{"glyphs":{"0":{"ha":593,"x_min":0,"x_max":0,"o":"m 593 351 b 289 797 593 597 475 797 b 18 458 128 797 18 649 b 338 -49 18 189 147 -49 b 593 351 493 -49 593 115 z m 514 579 b 553 369 540 522 553 453 b 300 -7 553 164 447 -7 b 72 385 186 -7 72 199 b 307 744 72 586 160 744 b 499 613 388 744 450 700 b 500 608 500 610 500 610 l 500 607 b 338 703 461 669 388 703 b 521 546 474 622 489 613 z m 432 369 b 328 590 432 492 389 590 b 203 365 251 590 203 486 b 318 136 203 250 240 174 b 432 369 393 175 432 253 z m 407 369 b 306 158 407 267 374 197 b 224 376 250 226 224 299 b 340 546 224 446 256 546 b 407 369 374 546 407 442 z m 294 88 b 168 247 256 110 214 163 l 168 231 b 288 85 168 183 240 85 b 294 88 290 85 293 85 z m 278 47 b 124 218 228 83 175 140 b 278 47 147 128 199 71 z m 444 525 b 350 614 444 574 400 614 l 338 613 b 444 525 367 599 365 596 z "},"1":{"ha":364,"x_min":0,"x_max":0,"o":"m 83 849 l 46 -54 l 314 -22 l 314 825 z m 253 26 l 238 93 l 226 22 l 200 21 l 174 142 l 160 11 l 90 -7 l 119 801 l 129 800 l 154 699 l 169 796 l 190 794 l 201 708 l 225 794 l 268 801 l 268 28 z "},"2":{"ha":718,"x_min":0,"x_max":0,"o":"m 718 572 b 415 854 718 744 593 854 b 72 632 251 854 114 757 l 238 496 b 379 621 290 581 339 621 b 449 589 401 621 425 610 l 449 572 b 375 436 449 532 424 486 b 82 178 363 424 115 238 l 64 178 b 7 181 36 178 18 179 l 42 -57 l 656 -44 l 642 185 b 496 182 593 183 546 182 b 433 183 472 182 454 183 b 575 293 460 210 507 243 b 718 572 686 365 718 435 z m 681 553 b 582 339 681 467 647 396 b 300 39 379 199 300 167 b 307 -10 300 21 301 4 l 221 -3 b 242 136 229 60 238 104 b 203 3 218 65 207 21 l 158 8 b 181 139 167 67 172 110 b 138 7 156 68 140 24 l 107 4 l 106 54 b 203 272 103 146 139 211 b 496 568 418 415 496 446 b 400 661 496 625 457 661 b 229 532 329 661 263 607 l 181 581 b 238 669 192 608 210 639 l 151 610 l 139 628 l 225 721 b 122 647 172 692 138 665 b 407 825 172 761 281 825 b 681 553 569 825 681 713 z m 617 1 b 342 -1 521 0 431 -1 l 340 36 b 374 150 339 78 354 110 b 610 144 449 150 526 149 l 467 111 l 608 90 l 436 47 l 613 47 z m 606 624 b 421 768 601 703 504 768 b 606 624 538 706 575 694 z m 76 138 b 54 4 71 76 65 32 l 42 142 z m 538 603 b 443 692 538 651 493 692 l 429 689 b 538 603 458 682 461 674 z m 201 113 l 190 101 l 201 90 l 213 101 z "},"3":{"ha":663,"x_min":0,"x_max":0,"o":"m 663 299 b 511 514 663 399 613 471 l 536 560 l 581 568 l 589 825 l 54 860 l 14 564 l 240 556 l 111 354 b 367 271 225 315 310 288 b 301 207 356 228 335 207 b 175 263 276 207 235 226 b 25 76 85 149 33 89 b 171 -11 115 21 163 -10 b 332 -57 226 -42 281 -57 b 663 299 503 -57 663 128 z m 629 296 b 338 -25 629 131 488 -25 b 76 94 261 -25 118 43 b 113 129 81 94 107 129 b 231 58 125 101 193 64 b 125 156 182 101 146 131 l 140 174 b 263 121 161 144 182 138 b 160 199 261 122 172 174 b 181 225 169 199 175 207 b 301 179 217 194 258 179 b 404 285 369 179 404 214 b 376 313 404 296 396 306 l 400 344 l 446 296 b 465 229 457 278 464 256 b 476 274 472 244 476 257 b 456 322 476 292 467 308 l 418 367 b 444 401 433 379 443 390 b 553 311 478 397 514 367 l 556 326 b 461 425 556 363 547 378 b 496 482 475 450 489 468 b 629 296 585 453 629 389 z m 553 729 l 453 722 l 550 708 l 546 676 l 413 654 l 533 636 l 539 590 l 58 590 l 47 636 l 167 664 l 56 697 l 190 722 l 58 743 l 72 814 l 563 801 z m 339 322 l 283 342 l 347 433 l 263 351 l 244 363 l 296 478 l 193 383 l 168 389 l 282 558 l 500 558 z m 379 700 l 365 688 l 379 675 l 393 688 z m 340 479 l 329 465 l 340 453 l 353 465 z m 235 58 l 231 58 b 232 57 231 57 231 57 l 235 57 z "},"4":{"ha":825,"x_min":0,"x_max":0,"o":"m 781 493 l 689 490 l 700 800 l 522 763 l 431 838 l 31 397 l 88 333 l 99 142 l 418 197 l 429 -79 l 678 -67 l 678 254 l 825 264 z m 214 274 l 181 307 l 276 396 l 157 326 l 181 393 l 117 347 l 79 397 l 433 796 l 482 753 l 383 654 l 494 731 l 522 711 l 465 636 l 551 688 l 589 661 z m 131 185 l 121 310 l 215 231 l 414 424 l 764 453 l 772 422 l 678 375 l 785 375 l 794 340 l 674 319 l 800 310 z m 646 -22 l 567 -22 l 556 111 l 539 -22 l 515 -28 l 501 69 l 482 -28 l 454 -22 l 440 204 l 647 249 z m 654 483 l 449 464 l 635 661 l 547 740 l 667 757 z m 582 386 l 572 390 l 563 381 l 582 347 l 590 343 l 601 353 z m 429 610 l 411 614 b 400 604 403 614 400 610 l 408 593 l 426 590 b 438 601 435 590 438 593 z "},"5":{"ha":706,"x_min":0,"x_max":0,"o":"m 706 306 b 415 604 706 411 658 467 l 649 629 l 624 917 b 21 861 350 890 160 872 b 22 846 22 860 22 854 l 22 792 b 15 578 22 738 18 667 l 54 569 l 44 363 b 328 401 160 375 256 388 b 368 326 354 368 368 343 b 317 297 368 307 351 297 b 174 321 283 297 194 321 b 114 60 169 272 122 111 b 294 28 164 39 225 28 b 706 306 524 28 706 138 z m 681 307 b 343 60 681 186 485 60 b 174 100 310 60 253 72 l 307 115 l 193 161 l 317 185 b 210 218 267 203 235 213 l 213 232 b 215 261 213 251 214 261 b 301 250 235 261 278 250 b 403 322 369 250 403 274 b 339 456 403 363 381 407 l 333 482 l 365 494 b 324 526 346 510 324 518 l 324 550 b 322 558 324 556 324 557 b 369 569 338 567 353 569 b 681 307 488 569 681 415 z m 615 797 l 515 781 l 614 776 l 610 744 l 481 710 l 603 704 l 613 658 l 57 615 l 44 650 l 158 688 l 46 711 l 178 750 l 44 757 l 54 831 l 618 871 z m 174 422 l 179 506 l 129 408 l 117 488 l 83 422 l 92 553 l 278 578 l 278 433 z m 579 274 b 536 357 579 304 556 357 l 525 347 b 557 274 546 324 557 299 b 549 238 557 265 549 244 l 560 225 b 579 274 572 226 579 242 z m 631 283 b 596 357 631 304 614 357 l 585 347 b 610 283 603 328 610 307 b 597 238 610 272 597 244 l 610 225 b 631 283 625 226 631 244 z m 243 524 l 235 529 l 224 521 l 236 493 l 243 488 l 254 496 z m 197 722 l 186 711 l 197 699 l 207 711 z "},"6":{"ha":689,"x_min":0,"x_max":0,"o":"m 689 253 b 435 528 689 369 560 511 b 581 753 472 581 518 656 l 358 888 b 3 194 168 667 3 358 b 317 -36 3 42 107 -36 b 689 253 518 -36 689 82 z m 640 276 b 328 22 640 113 525 22 b 54 229 146 22 54 92 b 376 825 54 379 210 678 l 397 811 l 310 681 l 426 790 l 449 785 l 346 632 l 482 758 l 532 735 b 369 503 436 603 388 526 b 256 269 294 385 256 306 b 318 193 256 218 276 193 b 392 276 363 193 392 232 b 338 340 392 289 338 339 l 347 390 l 424 344 b 358 408 414 365 392 388 l 379 436 l 397 442 b 476 392 414 442 440 425 b 390 465 460 432 432 457 b 413 496 404 472 411 482 b 640 276 493 496 640 353 z m 536 249 b 528 307 536 265 533 286 b 504 188 514 231 506 192 b 443 88 494 149 475 114 b 536 249 501 107 536 188 z m 356 256 b 313 228 356 243 331 228 b 293 256 300 228 294 238 l 318 299 b 356 256 335 293 356 274 z m 464 236 b 454 275 464 250 460 264 b 401 147 449 240 449 236 b 464 236 443 157 464 186 z m 232 506 b 246 494 232 500 238 494 b 261 506 254 494 261 500 b 246 517 261 511 254 517 b 232 506 238 517 232 511 z "},"7":{"ha":864,"x_min":0,"x_max":0,"o":"m 710 890 l 654 958 l 581 889 l 38 908 l 13 636 l 399 625 l -3 228 l 243 31 l 785 626 l 836 631 b 864 894 856 785 864 869 z m 807 808 l 686 775 l 807 767 l 800 731 l 704 706 l 794 694 l 790 661 l 57 661 l 67 708 l 188 726 l 67 751 l 208 781 l 61 781 l 90 860 l 813 860 z m 249 92 l 194 126 l 469 458 l 168 142 l 133 175 l 418 461 l 99 208 l 64 239 l 453 632 l 746 632 z m 619 888 l 654 924 l 674 894 z m 642 768 l 631 756 l 642 743 l 654 756 z "},"8":{"ha":708,"x_min":0,"x_max":0,"o":"m 708 229 b 579 431 708 317 656 400 b 674 624 642 486 674 549 b 422 897 674 788 581 897 b 85 589 243 897 85 757 b 149 386 85 521 106 454 b 13 157 47 264 13 229 b 310 -110 13 -8 133 -110 b 708 229 522 -110 708 38 z m 660 231 b 290 -67 660 79 463 -67 b 104 15 213 -67 150 -39 b 186 10 122 15 163 10 b 250 22 214 10 236 14 b 88 65 178 39 124 54 b 61 153 69 92 61 121 b 192 367 61 242 115 321 b 282 343 217 354 249 346 b 532 275 425 332 393 344 b 425 342 529 310 494 332 b 488 356 446 351 467 356 b 568 332 514 356 540 347 l 568 335 b 551 367 568 343 560 354 l 536 389 b 574 401 536 392 571 401 b 660 231 631 350 660 293 z m 635 608 b 340 364 635 489 471 364 b 125 601 228 364 125 488 b 426 864 125 742 276 864 b 635 608 553 864 635 767 z m 457 213 b 368 267 456 243 418 267 b 250 161 300 267 250 226 b 311 92 250 115 271 92 b 457 213 367 92 457 151 z m 444 638 b 383 676 444 658 401 676 b 261 575 328 676 261 626 b 300 517 261 556 283 517 b 444 638 397 517 444 557 z m 408 208 b 335 136 411 169 371 136 b 285 158 317 136 299 144 b 369 235 286 203 326 235 b 407 226 381 235 392 231 z m 396 624 b 368 556 385 590 375 567 l 364 556 b 296 585 339 556 317 564 b 372 636 326 614 351 633 z m 567 667 b 383 813 567 746 467 813 b 567 667 513 746 540 735 z m 503 76 b 414 -3 479 39 449 13 b 560 182 490 1 560 99 z m 500 649 b 404 735 500 694 456 735 l 390 733 b 500 649 419 726 483 664 z m 481 174 b 393 67 468 142 465 138 b 482 161 443 67 482 111 z "},"9":{"ha":689,"x_min":0,"x_max":0,"o":"m 3 506 b 256 232 3 388 138 250 b 111 7 224 181 174 103 l 333 -128 b 689 567 532 101 689 400 b 376 797 689 719 585 797 b 3 506 172 797 3 678 z m 53 483 b 365 738 53 643 168 738 b 639 532 547 738 639 669 b 318 -67 639 379 476 82 l 296 -50 l 383 79 l 267 -31 l 243 -24 l 346 128 l 213 1 l 161 24 b 322 256 256 157 306 236 b 436 492 399 375 436 453 b 376 567 436 540 415 567 b 300 483 332 567 300 528 b 357 421 300 475 351 424 l 344 368 l 269 415 b 332 351 276 392 299 372 l 313 322 l 296 319 b 253 339 282 319 267 326 l 218 368 b 301 294 232 328 261 301 b 275 263 289 288 276 263 b 53 483 203 263 53 404 z m 156 511 b 167 454 156 492 158 472 b 250 672 186 585 196 626 b 156 511 199 654 156 574 z m 339 503 b 378 533 339 515 365 533 b 401 503 392 533 400 524 l 376 461 b 339 503 363 467 339 489 z m 229 525 b 239 483 229 511 232 496 b 260 550 243 501 247 524 l 289 614 b 229 525 250 603 229 572 z m 482 285 l 496 301 l 486 313 l 471 294 z "},"\u0017":{"ha":357,"x_min":0,"x_max":0,"o":""}," ":{"ha":357,"x_min":0,"x_max":0,"o":""},"!":{"ha":378,"x_min":0,"x_max":0,"o":"m 329 854 l 46 808 l 100 275 l 335 286 z m 296 329 l 249 460 l 256 326 l 235 322 l 206 456 l 194 315 l 133 317 l 83 768 l 158 785 l 190 649 l 204 794 l 229 790 l 250 660 l 269 800 l 307 799 l 307 329 z m 349 121 b 219 263 349 201 300 263 b 92 121 138 263 92 201 b 219 -24 92 39 138 -24 b 349 121 300 -24 349 39 z m 304 129 b 235 22 304 83 267 22 b 203 38 224 22 214 26 l 213 124 l 169 49 b 165 93 167 68 165 81 b 168 126 165 103 165 113 b 147 67 153 113 147 93 b 125 122 133 83 125 103 b 196 217 125 193 146 217 b 304 129 253 217 304 181 z "},"\"":{"ha":450,"x_min":0,"x_max":0,"o":"m 214 833 l 217 811 l 15 797 l 36 521 l 182 521 l 213 660 b 238 540 214 632 221 593 l 383 540 l 450 829 z m 397 772 b 347 572 397 742 358 583 b 325 681 336 621 331 654 b 299 568 313 669 303 631 b 279 649 292 613 286 639 b 263 572 268 638 268 579 b 249 774 254 617 249 683 l 249 803 b 290 722 263 794 276 767 l 317 808 b 344 756 317 790 326 774 b 357 783 351 761 357 769 l 356 807 l 392 807 b 397 772 396 790 397 779 z m 196 751 b 144 551 196 721 156 563 b 122 660 139 575 131 610 b 104 583 110 626 104 601 b 76 628 93 604 85 619 b 60 551 65 617 65 558 b 47 753 51 596 47 663 l 47 783 b 88 703 64 772 74 735 b 115 778 97 733 110 758 b 142 735 117 765 126 750 b 153 786 150 753 153 769 l 189 786 b 196 751 194 776 196 765 z "},"#":{"ha":889,"x_min":0,"x_max":0,"o":"m 671 7 l 671 169 l 846 169 l 846 389 l 678 389 l 678 419 l 819 419 l 838 618 l 694 618 l 694 846 l 488 815 l 488 626 l 401 626 l 401 813 l 218 835 l 210 636 l 35 636 l 35 419 l 201 419 l 201 386 l 60 386 l 42 186 l 188 186 l 188 -7 l 393 24 l 393 179 l 481 179 l 481 28 z m 801 594 l 801 532 l 728 514 l 794 493 l 800 446 l 99 446 l 92 486 l 124 486 l 156 494 l 124 503 l 90 503 l 85 528 l 163 524 l 201 528 l 213 535 l 201 540 l 150 546 l 82 546 l 76 594 z m 93 210 l 93 258 l 124 261 l 136 269 l 117 276 l 93 275 l 93 300 l 107 300 l 168 311 l 160 318 l 93 318 l 93 357 l 797 357 l 801 319 l 763 321 l 721 310 l 757 300 l 806 301 l 810 275 l 768 271 l 801 260 l 815 231 z m 529 772 l 540 710 l 550 775 l 572 778 l 593 664 l 604 788 l 651 801 l 651 624 l 518 624 l 518 768 z m 364 629 l 247 629 l 247 790 l 254 788 l 275 694 l 288 786 l 306 783 l 313 706 l 332 783 l 364 790 z m 353 69 l 342 129 l 332 65 l 311 61 l 289 175 l 282 54 l 229 38 l 229 181 l 364 181 l 364 71 z m 518 174 l 636 174 l 636 49 l 629 53 l 610 146 l 594 56 l 579 57 l 569 136 l 550 57 l 521 49 z m 236 390 l 236 419 l 364 419 l 364 390 z m 643 390 l 518 390 l 518 419 l 643 419 z m 483 390 l 397 390 l 397 419 l 483 419 z "},"$":{"ha":515,"x_min":0,"x_max":0,"o":"m 496 718 b 358 790 464 764 418 789 l 358 856 l 175 879 l 169 724 b 57 511 101 672 57 593 b 156 340 57 426 79 396 l 156 294 b 101 315 131 306 115 313 b 11 139 99 307 28 182 b 147 85 56 110 103 93 l 147 -22 l 351 10 l 351 114 b 460 329 424 156 460 226 b 356 438 460 390 411 421 l 356 560 b 400 553 374 558 386 556 b 496 717 432 621 464 672 z m 438 681 b 378 703 411 694 390 703 b 369 696 376 703 376 703 b 421 651 403 672 419 656 l 404 626 b 342 658 375 647 353 658 b 390 606 375 635 390 617 b 385 594 390 603 389 599 l 383 592 b 326 607 378 603 358 607 b 226 507 260 607 226 574 b 281 436 226 467 243 450 b 429 319 385 397 429 390 b 201 124 429 221 311 124 b 56 160 194 124 146 136 l 64 172 b 164 142 106 158 138 147 l 167 149 b 79 194 122 163 93 179 b 92 219 81 206 90 213 b 178 193 103 208 139 193 l 179 199 b 111 253 142 219 118 239 b 118 269 113 260 114 264 b 190 242 142 251 167 242 b 256 299 215 242 256 276 b 136 392 256 315 153 368 b 94 511 110 426 94 456 b 342 757 94 640 213 757 b 454 718 385 757 421 744 b 438 681 447 704 444 692 z m 321 453 b 260 518 283 469 260 489 b 321 564 260 556 283 564 z m 363 304 b 310 381 363 333 344 358 l 307 376 b 340 306 329 350 340 326 b 313 221 340 300 331 274 b 363 304 346 243 363 271 z m 185 24 l 185 81 b 199 79 186 79 192 79 l 226 79 b 240 81 235 79 239 79 l 238 42 z m 311 319 b 275 361 311 346 299 361 l 264 361 b 290 304 282 343 290 324 b 256 231 290 278 281 254 b 311 319 289 239 311 282 z m 199 606 b 164 524 175 596 164 569 b 181 465 164 501 169 482 b 203 603 185 543 192 589 z m 160 613 b 121 517 133 604 121 572 b 129 460 121 500 124 481 l 136 461 b 133 501 135 475 133 488 b 164 607 133 540 144 578 z m 321 788 b 281 781 307 786 294 786 l 289 824 l 321 832 z m 263 824 l 267 775 b 236 764 254 774 247 768 l 244 825 z m 213 831 l 225 758 l 206 746 l 206 832 z m 263 83 l 294 90 l 289 54 l 269 50 z m 310 57 l 304 92 l 322 100 l 322 60 z m 190 275 l 190 315 l 215 293 b 192 275 207 286 203 282 z "},"%":{"ha":893,"x_min":0,"x_max":0,"o":"m 575 890 l 479 718 b 256 876 447 813 372 876 b 26 649 111 876 26 781 b 283 410 26 511 139 410 b 307 413 288 410 296 411 l 139 111 l 344 3 l 414 136 b 589 18 440 75 499 18 b 853 238 733 18 853 117 b 619 482 853 368 739 482 l 606 482 b 594 481 599 482 596 482 l 750 776 z m 449 663 l 356 496 b 286 469 339 486 317 476 l 286 465 l 299 465 b 342 472 311 465 338 467 l 321 436 b 286 431 313 432 301 431 b 65 665 167 431 65 538 b 274 851 65 786 146 851 b 449 672 389 851 449 788 z m 578 446 b 619 453 592 450 606 453 b 832 256 704 453 832 363 b 569 39 832 156 704 39 b 431 168 493 39 450 100 z m 335 65 l 300 89 l 372 193 l 364 197 l 278 104 l 274 111 l 322 238 l 315 250 l 225 125 l 185 131 l 575 843 l 589 829 l 539 742 l 603 819 l 631 799 l 590 682 l 667 788 l 704 778 z m 351 636 b 261 728 351 693 317 728 b 156 628 203 728 156 686 b 240 532 156 563 190 532 b 351 636 301 532 351 583 z m 681 171 b 707 238 697 192 707 214 b 603 332 707 286 651 332 b 500 235 546 332 500 281 b 603 142 500 188 547 142 b 681 171 632 142 658 151 z m 326 629 b 238 560 326 586 289 560 l 225 560 b 182 625 193 560 182 606 b 251 708 182 660 214 708 b 326 629 294 708 326 672 z m 654 185 b 607 167 639 172 624 167 b 525 218 583 167 544 186 b 619 307 525 264 550 307 b 678 243 658 307 678 275 b 654 185 678 219 671 201 z m 496 553 b 490 558 496 557 494 558 b 488 557 489 557 489 557 l 478 557 b 389 342 469 535 393 358 b 496 553 400 350 494 556 z m 560 604 b 494 469 529 551 510 506 b 504 461 494 465 499 461 b 560 604 515 461 560 592 z m 401 726 b 293 813 401 776 344 813 b 399 724 376 763 381 764 z m 776 199 b 796 250 789 214 796 229 b 763 339 796 286 785 317 b 781 244 779 271 781 260 b 774 201 781 225 778 208 z m 136 528 b 94 650 117 568 103 607 l 92 650 b 90 636 90 649 90 643 l 90 624 b 131 525 90 579 104 546 z m 604 94 b 528 133 574 101 549 114 l 522 140 b 517 129 518 136 517 131 b 583 88 517 115 550 88 b 604 92 592 88 599 89 z m 353 529 b 274 503 326 513 299 503 l 263 504 b 286 489 263 493 271 489 b 356 528 313 489 350 503 z m 361 713 b 307 764 361 743 339 764 l 297 761 b 357 711 311 753 332 738 z m 739 219 b 753 253 749 228 753 239 b 738 294 753 271 749 283 l 729 300 l 728 297 b 738 219 732 285 738 260 z m 124 660 l 113 624 b 124 578 113 618 115 603 l 150 543 b 124 660 135 568 126 607 z m 581 68 b 514 100 561 75 540 81 l 511 99 b 567 60 525 83 547 60 b 582 67 575 60 581 61 z "},"&":{"ha":799,"x_min":0,"x_max":0,"o":"m 635 535 b 642 596 639 561 642 582 b 363 824 642 731 521 824 b 131 654 229 824 131 757 b 136 613 131 638 133 624 b 75 560 122 594 101 578 l 199 415 b 10 194 72 351 10 276 b 339 -47 10 63 193 -47 b 489 10 404 -47 456 -28 b 528 -49 503 -7 517 -25 l 721 104 b 650 219 696 156 674 193 l 799 415 z m 635 83 l 568 174 b 564 178 567 174 564 175 l 567 179 b 561 174 563 179 561 178 b 578 147 561 172 575 149 l 610 60 l 599 46 l 510 131 l 585 36 l 556 24 b 124 567 390 251 250 421 b 158 592 138 581 150 590 l 256 482 l 269 490 b 179 607 269 506 183 593 l 199 624 b 299 528 231 624 288 532 l 311 535 b 221 636 310 564 281 597 b 276 678 229 653 235 653 l 304 674 b 672 124 388 551 510 368 z m 472 42 b 332 -22 435 -1 388 -22 b 60 215 207 -22 60 93 b 218 376 60 289 113 343 b 144 294 163 324 144 300 l 146 290 b 236 339 146 289 215 339 b 269 311 250 339 263 313 b 219 199 236 263 219 226 b 300 151 219 168 247 151 b 375 158 321 151 344 153 l 375 157 b 293 101 375 142 347 124 b 319 94 300 96 310 94 b 397 135 344 94 399 135 b 329 46 379 94 356 67 b 386 67 351 46 372 51 l 426 111 b 472 42 436 111 471 39 z m 599 579 b 521 429 599 513 572 461 l 499 447 b 546 515 499 460 546 493 b 543 526 544 517 543 522 b 490 488 535 513 507 488 b 489 490 489 488 489 489 l 500 515 b 510 557 506 528 510 543 l 510 564 b 465 518 501 544 486 529 l 446 538 b 456 586 453 560 456 575 b 400 642 456 622 436 643 l 372 640 b 307 717 354 650 333 675 b 261 700 289 707 275 703 l 282 724 l 281 726 b 169 669 267 726 231 707 b 383 800 190 750 281 800 b 599 579 504 800 599 694 z m 642 251 l 549 396 b 629 499 585 438 610 472 l 654 488 b 625 415 654 472 646 449 l 693 472 l 663 376 l 738 433 b 761 415 738 426 742 422 z m 340 194 b 288 179 326 183 308 179 b 244 204 260 179 244 186 b 294 261 244 219 261 239 b 340 194 297 254 338 197 z m 522 217 l 515 217 b 501 206 506 217 501 214 l 514 196 b 532 206 525 196 532 199 z m 419 599 b 413 575 418 589 414 581 l 389 601 l 410 601 b 419 599 414 601 418 601 z m 331 476 b 319 465 322 476 319 472 l 331 456 b 340 465 338 456 340 458 z "},"'":{"ha":276,"x_min":0,"x_max":0,"o":"m 29 819 l 54 521 l 200 521 l 265 808 z m 210 757 b 163 551 210 717 185 574 l 124 658 b 118 557 118 608 118 575 b 94 628 111 589 101 610 b 78 551 90 592 86 569 b 65 783 69 596 65 663 b 106 703 82 772 92 735 b 110 747 108 715 110 731 b 107 785 110 760 108 774 b 153 685 125 742 140 710 l 146 792 l 207 786 b 210 757 208 775 210 765 z "},"(":{"ha":532,"x_min":0,"x_max":0,"o":"m 519 676 b 450 978 513 749 483 879 b 78 329 169 876 78 558 b 222 -229 78 213 104 -115 b 506 -140 275 -229 467 -161 b 344 379 397 60 344 282 b 519 676 344 469 407 640 z m 471 699 b 303 407 331 601 303 442 b 440 -107 303 294 349 42 l 364 -135 b 267 14 335 -114 303 -65 b 343 -153 267 -47 292 -104 l 232 -192 b 115 326 154 -78 115 175 b 368 881 115 515 211 808 l 283 685 l 426 894 l 438 854 l 394 768 l 440 815 b 471 699 457 765 464 726 z "},")":{"ha":560,"x_min":0,"x_max":0,"o":"m 32 24 b 101 -276 40 -47 68 -179 b 475 372 383 -175 475 142 b 329 929 475 489 447 815 b 46 842 276 929 86 861 b 207 321 156 640 207 419 b 32 24 207 231 144 60 z m 81 1 b 249 294 222 100 249 260 b 111 808 249 407 203 660 l 189 835 b 285 686 217 814 249 765 b 210 854 285 749 260 806 l 319 892 b 436 375 397 778 436 525 b 183 -181 436 185 340 -107 l 269 15 l 125 -194 l 114 -153 l 157 -68 l 111 -115 b 81 1 96 -65 88 -25 z "},"*":{"ha":951,"x_min":0,"x_max":0,"o":"m 936 619 b 835 713 936 675 892 713 b 743 650 788 713 757 693 l 525 592 l 478 689 b 510 764 499 710 510 735 b 431 864 510 831 482 864 b 311 763 375 864 311 822 b 354 686 311 735 326 710 l 340 557 b 253 547 307 550 276 547 b 129 592 203 547 183 592 b 26 501 61 592 26 561 b 131 372 26 440 76 372 b 208 415 158 372 183 386 l 313 369 l 265 167 b 207 83 229 158 207 121 b 283 0 207 38 238 0 b 356 82 328 0 356 36 b 350 124 356 96 354 110 l 486 286 b 607 229 538 260 581 240 b 699 92 607 146 643 92 b 799 199 754 92 799 142 b 700 306 799 249 775 293 b 617 421 642 310 619 401 l 769 550 b 835 525 788 533 808 525 b 936 619 890 525 936 564 z m 904 619 b 836 556 904 582 876 556 b 774 593 806 556 785 568 l 578 426 l 671 265 b 706 272 682 271 694 272 b 768 201 743 272 768 240 b 703 124 768 161 742 124 b 636 188 671 124 636 157 b 646 236 636 196 639 213 l 478 324 l 311 124 b 329 79 322 94 329 81 b 283 31 329 56 304 31 b 238 83 253 31 238 47 b 282 138 238 121 251 138 l 289 138 l 347 388 l 196 454 b 131 410 183 424 161 410 b 57 483 89 410 57 442 b 131 560 57 528 88 560 b 199 506 169 560 192 543 l 367 528 l 386 703 b 347 764 361 713 347 733 b 414 835 347 803 376 835 b 479 764 453 835 479 803 b 438 700 479 733 465 711 l 510 553 l 768 625 b 836 683 772 664 794 683 b 904 619 875 683 904 658 z "},"+":{"ha":871,"x_min":0,"x_max":0,"o":"m 568 543 l 458 807 l 186 753 l 249 544 l 38 557 l 31 278 l 356 278 l 403 21 l 693 124 l 642 283 l 815 307 l 838 550 z m 781 332 b 275 307 558 315 390 307 b 90 311 254 307 146 311 l 65 311 l 164 340 l 64 351 l 181 365 l 72 386 l 76 510 l 779 490 l 779 363 l 610 363 z m 286 547 l 238 739 l 318 604 l 286 749 l 326 757 l 403 604 l 357 767 l 422 776 l 518 536 z m 579 111 l 518 197 l 515 111 l 469 174 l 433 72 l 400 274 l 583 283 l 643 139 z m 429 442 l 414 424 l 429 408 l 443 424 z "},",":{"ha":300,"x_min":0,"x_max":0,"o":"m 346 174 b 126 313 326 271 219 313 l 96 313 l 49 215 b 99 161 64 192 83 172 l 21 -22 l 21 -139 l 111 -90 l 208 96 b 289 78 235 89 251 79 z m 282 225 b 304 178 293 213 304 197 l 304 174 b 285 161 299 172 289 163 b 118 269 206 178 118 226 b 129 282 118 282 122 282 b 267 238 181 282 235 263 z m 47 -90 l 47 -25 l 128 142 b 181 107 142 128 160 117 b 164 83 174 100 169 92 l 136 96 b 151 56 138 85 147 68 l 94 -60 z m 101 238 b 286 142 144 179 217 160 b 269 115 281 135 271 121 b 92 218 206 124 129 160 z "},"-":{"ha":467,"x_min":0,"x_max":0,"o":"m 22 560 l 64 332 l 442 332 l 467 557 z m 426 490 l 297 482 l 421 465 l 422 442 l 326 438 l 421 411 l 419 372 l 79 372 l 75 418 l 156 426 l 71 438 l 67 467 l 106 467 l 215 488 l 61 488 l 54 528 l 144 533 l 431 533 z "},".":{"ha":294,"x_min":0,"x_max":0,"o":"m 294 121 b 144 281 294 207 232 281 b 25 149 68 281 25 225 b 174 -10 25 60 85 -10 b 294 121 250 -10 294 44 z m 267 129 b 167 15 267 78 221 15 b 124 35 150 15 136 22 l 103 104 b 93 72 96 96 93 85 l 93 67 b 60 161 71 92 60 124 b 149 231 60 207 100 231 b 267 129 210 231 267 192 z "},"/":{"ha":708,"x_min":0,"x_max":0,"o":"m 514 939 l 28 72 l 256 -46 l 708 813 z m 247 22 l 207 47 l 288 164 l 278 169 l 183 67 l 179 72 l 232 213 l 225 228 l 124 90 l 79 96 l 514 888 l 528 869 l 472 775 l 543 860 l 575 838 l 528 708 l 617 825 l 654 814 z m 425 567 b 421 571 425 569 424 571 b 407 568 421 571 417 569 b 307 331 393 546 311 350 b 425 567 313 339 425 564 z m 496 624 b 424 471 464 560 438 510 b 435 464 424 467 426 464 b 496 624 446 464 496 607 z "},":":{"ha":282,"x_min":0,"x_max":0,"o":"m 282 525 b 153 667 282 606 235 667 b 25 525 76 667 25 606 b 153 381 25 444 76 381 b 282 525 235 381 282 444 z m 282 121 b 153 263 282 201 235 263 b 25 121 76 263 25 201 b 153 -24 25 39 76 -24 b 282 121 235 -24 282 39 z m 238 129 b 168 22 238 83 201 22 b 136 38 157 22 146 26 l 142 47 b 90 104 135 60 99 88 b 79 72 82 99 79 88 b 47 161 75 94 47 144 b 117 221 47 201 71 221 b 238 129 181 221 238 181 z m 238 535 b 168 426 238 489 201 426 b 136 443 157 426 146 432 l 142 453 b 90 510 135 465 99 492 b 79 478 82 503 79 492 b 47 567 75 500 47 549 b 117 626 47 606 71 626 b 238 535 181 626 238 585 z "},";":{"ha":311,"x_min":0,"x_max":0,"o":"m 346 124 b 126 263 326 219 219 263 l 96 263 l 49 164 b 99 111 64 140 83 122 l 21 -72 l 21 -190 l 111 -140 l 208 46 b 289 26 235 38 251 28 z m 311 585 b 183 729 311 667 264 729 b 56 585 103 729 56 667 b 183 442 56 504 103 442 b 311 585 264 442 311 504 z m 269 594 b 199 488 269 551 232 488 b 167 503 186 488 175 492 l 174 513 l 146 540 b 121 571 133 551 125 563 b 111 538 114 563 111 551 l 111 535 b 78 628 101 551 78 613 b 149 686 78 667 101 686 b 269 594 207 686 269 651 z m 282 174 b 304 126 293 161 304 147 l 304 124 b 285 111 299 122 289 113 b 118 218 206 126 118 175 b 129 231 118 231 122 231 b 267 186 181 231 235 213 z m 47 -140 l 47 -76 l 128 92 b 181 57 142 78 160 67 b 164 33 174 49 169 42 l 136 46 b 151 4 138 35 147 18 l 94 -111 z m 101 186 b 286 92 144 128 217 110 b 269 65 281 83 271 69 b 92 168 206 72 129 110 z "},"<":{"ha":658,"x_min":0,"x_max":0,"o":"m 569 275 l 351 368 b 590 464 465 411 535 440 l 522 594 l 151 469 l 82 490 l 64 422 l 18 411 l 82 265 l 182 297 b 514 136 354 208 443 167 z m 103 301 l 99 315 b 142 367 104 329 115 346 b 83 350 126 363 94 358 l 76 363 l 124 396 l 67 381 l 67 383 b 517 557 138 414 204 443 l 521 549 l 446 513 l 503 506 l 465 479 l 539 493 l 546 481 z m 225 308 l 307 346 l 528 258 l 521 249 l 460 271 l 501 225 l 500 218 l 453 228 l 489 192 l 488 186 z m 106 449 l 124 443 l 101 432 z m 419 244 b 438 260 429 244 433 250 b 419 276 438 272 432 276 b 403 263 413 276 408 272 b 419 244 403 250 410 244 z m 429 468 b 443 479 435 468 440 472 b 429 494 443 490 440 494 b 413 483 419 494 414 492 b 429 468 413 475 418 468 z m 161 369 b 178 381 169 369 174 374 b 161 393 178 389 172 393 b 149 381 156 393 149 389 b 161 369 149 375 156 369 z "},"=":{"ha":881,"x_min":0,"x_max":0,"o":"m 838 704 b 511 694 731 697 621 694 b 38 710 357 694 203 699 l 31 432 b 232 429 99 431 164 429 b 815 460 431 429 625 436 z m 781 486 b 275 460 558 468 390 460 b 90 465 254 460 146 465 l 65 465 l 164 493 l 64 504 l 181 518 l 72 539 l 76 663 b 779 643 310 651 546 643 l 779 518 l 610 518 z m 419 571 b 435 556 419 560 424 556 b 450 571 446 556 450 560 b 435 586 450 582 446 586 b 419 571 424 586 419 582 z m 39 79 b 838 121 293 110 557 121 l 829 399 b 46 322 568 392 300 372 z m 82 300 b 772 363 428 347 529 350 l 797 364 l 800 324 l 685 304 l 792 289 l 797 167 l 93 142 l 90 193 l 247 219 l 88 231 z m 735 225 b 718 239 735 236 729 239 b 704 221 707 239 704 232 b 721 207 704 210 710 207 b 735 225 732 207 735 214 z "},">":{"ha":650,"x_min":0,"x_max":0,"o":"m 38 456 l 256 363 b 18 267 142 319 72 290 l 85 136 l 456 261 l 525 240 l 544 308 l 590 319 l 525 465 l 425 433 b 93 594 253 522 164 564 z m 504 429 l 510 415 b 465 364 503 401 492 385 b 524 381 481 368 513 372 l 532 368 l 483 335 l 540 350 l 540 347 b 90 174 469 317 403 288 l 88 182 l 161 218 l 104 225 l 142 251 l 68 238 l 61 250 z m 383 422 l 300 385 l 79 472 l 88 482 l 147 460 l 106 506 l 107 513 l 156 503 l 118 539 l 121 544 z m 501 282 l 483 288 l 506 299 z m 188 486 b 169 471 179 486 174 481 b 188 454 169 458 175 454 b 204 468 194 454 199 458 b 188 486 204 481 197 486 z m 179 263 b 164 251 172 263 168 258 b 179 236 164 240 168 236 b 194 247 188 236 193 239 b 179 263 194 256 190 263 z m 446 361 b 431 350 438 361 433 357 b 446 338 431 342 435 338 b 458 350 453 338 458 342 b 446 361 458 356 453 361 z "},"?":{"ha":626,"x_min":0,"x_max":0,"o":"m 401 76 b 363 179 401 115 389 149 l 396 178 l 396 231 b 457 361 396 319 419 335 b 586 608 563 411 586 496 b 326 856 586 758 476 856 b 25 661 185 856 58 769 l 172 540 b 294 649 218 613 260 649 b 351 624 311 649 333 640 b 235 443 346 544 263 463 b 151 188 183 407 151 340 b 174 186 157 188 167 186 b 149 104 157 163 149 136 b 288 -47 149 21 204 -47 b 401 76 363 -47 401 4 z m 549 592 b 465 410 549 515 529 454 b 357 229 385 353 357 335 b 358 206 357 221 358 210 b 290 213 335 206 315 210 b 308 329 299 264 301 299 l 304 331 b 271 218 285 275 275 236 l 271 217 b 238 219 263 218 246 217 b 254 332 244 275 249 307 l 250 332 b 214 218 231 281 219 238 l 193 218 l 193 244 b 289 442 193 326 218 392 b 397 606 360 492 397 546 b 310 689 397 656 363 689 b 161 579 249 689 194 643 b 124 617 150 590 136 606 b 172 693 135 642 151 667 l 168 696 b 99 647 144 682 122 661 l 89 658 l 161 738 l 161 742 b 79 686 117 717 96 704 b 317 825 128 775 215 825 b 549 592 456 825 549 729 z m 372 85 b 281 -19 372 43 331 -19 b 242 -3 265 -19 253 -14 l 243 -3 l 224 67 b 210 31 215 58 210 46 b 185 114 193 50 185 78 b 264 175 185 153 219 175 b 372 85 321 175 372 140 z m 490 654 b 328 781 490 722 400 781 l 326 776 b 486 653 393 757 458 715 z m 432 636 b 347 715 432 681 393 715 l 335 713 l 335 708 b 426 632 365 700 397 692 z m 272 313 l 258 299 l 271 286 l 282 299 z "},"@":{"ha":1106,"x_min":0,"x_max":0,"o":"m 982 263 b 1071 364 1047 285 1071 324 b 849 572 1071 472 950 543 b 783 769 832 638 846 728 b 610 832 733 794 669 832 b 539 806 585 832 560 824 l 467 810 b 304 563 365 801 361 646 b 100 642 239 563 161 642 b 31 551 76 642 31 618 b 225 332 31 464 156 372 b 663 218 347 263 492 218 b 982 263 779 218 888 229 z m 978 308 b 689 249 886 263 790 249 b 126 458 469 249 283 301 b 72 564 103 488 72 522 b 101 607 72 585 81 607 b 151 583 121 607 139 590 b 335 532 210 551 272 532 b 608 597 426 532 503 597 b 844 540 692 597 775 568 b 1026 381 910 515 1026 475 b 978 308 1026 354 1013 326 z m 421 751 b 471 776 428 768 444 776 b 503 774 482 776 492 775 l 460 738 l 467 731 b 582 810 504 756 526 783 b 781 739 653 797 722 785 b 813 581 803 689 811 636 b 606 626 742 606 686 626 b 364 564 500 626 419 564 l 335 564 z m 319 454 b 660 304 319 331 568 304 b 792 343 706 304 753 313 b 422 500 757 472 540 500 b 319 454 385 500 319 494 z "},"A":{"ha":860,"x_min":0,"x_max":0,"o":"m 825 306 l 733 306 l 572 619 l 624 768 l 418 889 l 388 821 l 269 775 l 311 660 l 172 288 l 46 269 l 85 -14 l 294 -90 b 356 56 324 -25 342 22 b 579 79 411 56 486 64 l 647 -37 l 838 42 l 818 114 z m 572 732 b 272 -42 393 272 293 18 l 250 -28 l 264 99 l 201 -1 b 214 88 208 22 214 50 l 214 129 l 153 11 l 118 19 l 269 432 b 433 838 321 585 378 717 l 454 826 b 411 729 435 783 419 750 l 472 818 l 515 797 b 476 717 496 769 482 743 b 558 776 504 744 532 765 b 572 732 568 765 572 750 z m 781 60 b 729 110 764 68 746 85 l 728 92 b 735 60 728 88 731 76 l 658 104 l 697 28 b 492 400 632 28 492 318 b 557 582 492 436 514 499 l 794 79 z m 563 111 b 372 92 492 99 426 92 b 433 244 383 131 403 183 l 440 244 b 503 231 465 244 503 236 b 468 203 503 218 492 208 b 539 174 501 194 525 185 l 454 157 b 563 136 503 146 539 140 z m 106 113 l 96 231 l 149 238 z m 794 142 l 754 269 l 800 269 z m 333 696 l 308 756 l 374 778 z m 436 283 l 465 346 l 493 269 z m 672 197 b 654 217 672 207 665 214 b 639 197 643 217 639 210 b 654 179 639 188 643 182 b 672 197 665 179 672 185 z m 281 183 b 265 201 281 190 275 196 b 250 183 254 201 250 194 b 265 164 250 174 254 168 b 281 183 275 164 281 171 z m 454 653 b 442 667 454 660 449 664 b 429 653 433 667 429 663 b 442 638 429 646 433 640 b 454 653 449 638 454 642 z "},"B":{"ha":750,"x_min":0,"x_max":0,"o":"m 138 842 l 147 763 l 81 749 l 136 581 l 124 414 l 42 350 l 124 250 l 100 0 l 118 0 b 383 -12 192 0 346 -12 b 764 249 638 -12 764 75 b 586 408 764 311 694 396 b 738 599 699 442 738 543 b 363 801 738 713 610 801 l 351 819 z m 296 22 l 290 21 b 267 111 283 42 275 71 b 236 21 253 72 243 39 l 231 22 b 207 114 231 36 224 68 b 157 31 190 76 174 47 b 150 131 151 50 150 85 b 171 739 150 240 171 629 b 167 813 171 778 169 803 l 218 799 b 243 686 231 738 239 699 b 250 756 250 704 250 726 l 250 796 l 276 794 l 283 706 l 304 788 l 333 783 z m 514 378 b 717 224 635 378 717 324 b 610 56 717 164 682 110 b 408 7 539 32 471 18 b 365 13 393 7 379 8 l 408 49 b 433 81 418 57 425 68 b 367 54 400 64 378 54 b 350 117 358 54 354 75 b 522 199 431 129 489 150 l 522 208 b 414 282 522 258 486 282 l 357 282 l 357 326 b 514 378 378 361 431 378 z m 472 571 b 361 638 472 624 422 638 b 351 678 354 646 351 658 b 357 743 351 689 357 726 b 464 758 390 754 425 758 b 693 589 583 758 693 689 b 403 401 693 482 568 414 l 403 407 b 471 460 447 418 469 435 b 396 433 447 443 422 433 b 358 435 383 433 372 435 l 357 440 b 432 486 396 450 421 467 b 396 478 415 481 403 478 b 350 489 388 478 374 481 b 472 571 432 513 472 539 z m 424 244 b 482 225 449 244 468 239 l 483 221 b 411 174 478 210 454 194 l 357 160 b 343 208 357 181 353 197 b 424 244 369 232 397 244 z m 442 583 b 358 528 442 557 414 538 l 358 617 l 375 617 b 442 583 425 617 442 592 z m 642 203 b 661 249 654 207 661 221 b 624 308 661 269 640 308 b 617 300 618 308 617 306 b 642 203 617 281 632 213 z m 583 193 b 603 250 589 197 603 242 b 568 300 603 274 586 300 b 561 293 563 300 561 297 b 583 193 561 276 579 218 z m 579 561 b 539 671 579 606 563 671 l 535 671 b 574 568 543 619 563 582 z m 83 346 l 117 378 l 129 288 l 126 288 z m 599 674 b 590 665 593 674 590 671 b 619 583 590 660 608 635 l 629 593 b 599 674 628 642 618 674 z m 256 269 b 239 288 256 282 250 288 b 224 269 228 288 224 282 b 239 251 224 258 228 251 b 256 269 250 251 256 258 z m 113 731 l 139 731 l 139 681 l 135 678 z m 263 651 b 249 638 253 651 249 647 b 263 624 249 628 253 624 b 275 638 271 624 275 628 b 263 651 275 647 271 651 z m 229 378 b 221 364 225 378 221 374 b 231 350 221 358 225 354 b 242 364 239 350 242 354 b 229 378 242 372 238 376 z "},"C":{"ha":626,"x_min":0,"x_max":0,"o":"m 626 168 b 503 335 626 178 536 304 b 415 240 476 272 446 240 b 307 479 351 240 307 383 b 393 618 307 572 335 618 b 503 574 424 618 460 604 b 529 788 503 656 513 728 b 344 853 465 831 403 853 b 60 425 175 853 60 658 b 368 22 60 188 178 22 b 626 168 458 22 626 81 z m 583 153 b 408 58 553 101 465 58 b 104 424 224 58 104 203 b 350 825 104 628 208 825 b 494 763 399 825 446 806 b 488 758 493 761 490 758 b 419 775 472 758 433 775 l 413 775 b 403 774 410 775 407 775 b 483 694 431 753 457 726 b 392 728 467 699 415 728 b 374 724 390 728 385 726 b 483 639 407 711 461 649 b 411 650 460 647 436 650 b 269 467 317 650 269 582 b 413 204 269 344 332 204 b 503 267 443 204 472 225 l 503 263 b 421 151 503 219 461 168 l 442 150 b 535 188 467 149 494 165 b 474 101 514 143 493 115 b 579 156 496 111 582 153 z m 271 175 b 190 313 238 206 210 251 l 186 290 b 264 174 186 247 231 174 z m 294 213 b 232 340 271 229 258 258 b 228 310 229 333 228 324 b 285 210 228 272 254 210 b 294 213 289 210 293 210 z m 469 99 b 474 101 471 99 472 100 b 469 99 471 100 469 99 z "},"D":{"ha":792,"x_min":0,"x_max":0,"o":"m 792 383 b 610 708 792 536 732 643 b 514 763 551 740 518 761 l 501 801 l 240 783 l 236 719 l 93 703 b 75 524 81 638 75 578 b 85 444 75 486 78 458 b 242 458 125 453 178 457 l 243 256 l 101 250 l 117 -36 b 232 -18 167 -28 206 -24 l 232 -35 l 476 -28 b 475 -18 475 -26 475 -24 b 482 -8 475 -11 478 -8 b 792 383 653 -8 792 190 z m 457 717 b 435 147 457 610 435 250 b 440 15 435 99 438 56 l 396 11 l 390 151 l 361 10 l 308 7 l 308 94 l 283 4 l 269 4 b 282 224 276 61 282 133 b 275 603 282 290 275 535 b 281 743 275 654 275 706 b 319 756 290 750 304 754 l 338 661 l 346 757 l 365 756 b 385 661 365 739 385 676 l 385 649 b 421 778 407 683 404 778 b 457 717 444 778 457 757 z m 744 347 b 483 22 744 178 654 56 l 483 213 b 596 357 549 236 596 289 b 496 496 596 415 563 461 b 493 557 494 514 493 533 b 510 719 493 593 499 646 b 744 347 647 682 744 521 z m 238 494 b 218 496 236 496 229 496 b 117 481 190 496 157 492 b 122 507 121 490 122 500 b 114 524 122 515 118 522 b 178 551 139 538 160 547 b 115 572 150 563 129 571 l 122 667 l 231 682 b 229 674 231 681 229 675 b 235 661 229 665 231 663 b 190 615 228 650 201 626 b 217 604 196 607 206 604 l 238 606 z m 239 15 l 153 15 l 142 226 l 232 225 b 178 175 218 201 201 185 b 210 168 192 171 203 168 b 240 174 221 168 232 169 l 231 139 b 172 106 218 114 218 118 b 225 81 190 89 207 81 b 242 83 226 81 231 82 z m 549 358 b 483 261 549 308 526 275 l 490 453 b 549 358 524 447 549 403 z m 667 506 b 561 617 667 550 607 617 b 529 606 550 617 540 614 b 667 506 599 601 628 550 z m 624 465 b 553 544 624 499 586 544 b 533 535 544 544 538 540 b 582 504 546 528 563 524 z m 369 599 l 357 604 l 346 593 b 367 581 354 585 363 581 b 376 592 374 581 376 583 z m 357 158 l 346 149 l 357 139 l 369 149 z "},"E":{"ha":781,"x_min":0,"x_max":0,"o":"m 733 757 b 456 763 643 758 546 763 l 432 788 b 199 797 356 792 276 792 l 199 744 l 101 750 b 76 492 93 661 83 582 b 192 503 114 496 153 501 l 182 235 l 67 242 l 28 21 b 174 3 78 14 128 10 l 174 -35 b 285 -32 210 -33 249 -32 b 650 -67 400 -32 528 -43 b 686 135 664 1 674 67 l 440 193 l 440 228 l 638 214 b 649 447 642 296 647 367 b 444 457 581 453 514 453 l 444 522 l 785 556 z m 399 46 l 353 15 l 339 124 l 313 15 l 281 14 l 267 136 l 242 22 l 231 22 l 231 774 l 282 726 b 311 763 289 738 304 754 l 344 763 l 372 674 b 399 749 379 699 390 724 l 403 746 z m 447 560 l 447 732 l 717 732 l 718 728 l 642 692 b 721 686 665 689 700 686 l 724 656 l 656 636 b 731 628 681 635 707 629 l 744 585 z m 661 104 b 585 43 642 56 628 44 b 642 4 615 31 635 18 l 621 3 b 586 10 608 3 593 10 b 629 -33 590 -1 604 -15 l 628 -36 l 411 -1 l 440 146 z m 543 288 l 603 267 l 601 263 l 449 269 l 449 431 l 618 431 l 618 354 l 557 339 b 629 313 581 331 606 319 z m 174 15 l 58 56 l 92 213 l 182 213 z m 110 535 l 125 718 l 174 718 l 190 535 z m 335 640 l 307 640 l 307 604 b 338 636 324 613 335 624 z m 326 375 l 299 408 l 290 400 l 311 363 z "},"F":{"ha":696,"x_min":0,"x_max":0,"o":"m 435 758 l 435 821 b 89 751 289 783 178 758 l 67 532 l 208 532 l 231 -21 l 501 36 l 494 290 l 683 319 l 676 496 l 467 490 l 465 525 l 663 533 l 696 754 z m 375 35 l 354 100 l 333 22 l 299 100 l 294 35 l 264 24 l 232 743 l 256 749 l 275 629 l 289 754 l 344 768 l 364 593 l 378 774 l 410 783 l 461 61 z m 663 710 l 556 694 l 654 654 l 651 629 l 567 601 l 636 563 l 464 556 l 450 731 l 665 731 z m 486 317 l 472 464 l 649 469 l 654 460 b 640 449 654 458 650 456 l 579 440 l 649 432 l 658 414 l 572 389 l 663 383 l 665 333 z m 99 575 l 103 635 l 140 649 l 104 658 l 106 682 l 147 694 l 111 708 l 111 731 b 175 740 128 738 149 740 l 199 740 l 206 575 z m 356 376 b 342 396 356 383 351 389 b 329 376 333 390 329 385 b 335 369 329 372 331 369 l 342 372 l 350 369 b 356 376 354 369 356 372 z m 321 667 l 310 658 l 321 649 l 332 658 z "},"G":{"ha":699,"x_min":0,"x_max":0,"o":"m 699 -33 b 556 490 663 89 614 254 l 344 429 l 367 278 b 269 408 308 283 269 340 b 407 551 269 492 318 551 b 481 536 436 551 460 547 l 604 738 b 400 819 533 792 465 819 b 26 458 167 819 26 686 b 357 21 26 242 172 21 b 440 33 385 21 411 25 l 486 -104 b 699 -33 581 -71 651 -47 z m 586 149 b 346 57 532 96 419 57 b 79 338 236 57 82 236 b 136 249 103 297 122 267 b 101 390 113 294 101 342 b 113 475 101 421 104 447 b 79 393 93 433 82 408 b 72 467 78 415 72 442 b 372 776 72 650 190 776 b 557 731 436 776 499 761 l 510 661 b 407 699 483 682 472 683 b 481 640 442 678 467 660 b 458 642 478 642 469 642 b 404 628 442 642 424 638 b 476 597 431 626 454 617 l 471 575 b 425 579 454 578 440 579 b 239 422 310 579 239 524 b 364 250 239 344 294 250 b 460 313 399 250 431 271 l 468 282 b 375 206 449 236 418 210 b 413 199 386 201 399 199 b 483 251 442 199 465 217 l 506 225 b 376 149 493 185 475 174 b 408 146 388 147 397 146 b 535 193 454 146 496 161 b 586 149 539 181 557 167 z m 615 168 b 467 351 578 201 525 269 l 403 288 l 375 411 l 414 340 l 408 413 l 450 425 b 507 357 478 383 496 358 b 486 440 494 375 490 403 l 535 460 z m 642 -21 l 599 47 l 604 -35 l 574 -46 l 528 -8 l 547 -58 l 503 -78 l 471 43 b 619 146 522 57 593 96 b 663 -8 639 75 654 25 z m 215 661 b 126 540 172 653 126 583 b 136 522 126 533 129 526 b 215 661 140 553 156 571 z m 232 603 b 168 526 199 594 168 560 b 181 501 168 515 172 506 b 232 603 185 540 219 585 z "},"H":{"ha":838,"x_min":0,"x_max":0,"o":"m 822 464 l 792 464 l 792 772 l 560 772 l 539 479 l 426 479 l 426 799 l 178 813 l 153 469 l 138 460 l 93 460 l 111 231 l 151 232 l 151 -44 l 389 -22 l 413 197 l 532 210 l 532 -33 l 768 -15 l 768 197 l 838 221 z m 389 753 b 364 24 389 517 381 288 l 313 25 l 297 133 l 286 14 l 243 18 l 221 101 l 213 3 l 181 -1 l 206 776 l 261 768 l 269 650 l 293 767 l 324 763 l 338 664 l 351 758 z m 658 13 l 642 92 l 628 11 l 604 161 l 569 18 l 592 749 l 636 643 l 636 746 l 667 746 l 683 647 l 700 746 l 746 746 l 746 25 z m 421 243 l 421 440 l 539 446 l 539 401 l 458 386 l 539 364 l 539 297 l 458 290 l 539 256 z m 126 263 l 122 433 l 157 429 l 157 267 z m 774 250 l 778 413 l 797 413 l 807 258 z m 276 357 l 265 346 l 276 338 l 289 346 z m 667 347 l 656 346 l 667 332 l 678 340 z "},"I":{"ha":386,"x_min":0,"x_max":0,"o":"m 117 849 l 79 -54 l 347 -22 l 347 825 z m 286 26 l 272 93 l 261 22 l 235 21 l 207 142 l 194 11 l 126 -7 l 153 801 l 163 800 l 186 699 l 206 796 l 225 794 l 238 708 l 261 794 l 300 801 l 300 28 z "},"J":{"ha":667,"x_min":0,"x_max":0,"o":"m 667 867 l 363 869 b 375 671 369 811 375 746 b 253 253 375 458 333 319 l 236 251 b 225 250 231 251 229 250 b 110 263 199 250 110 261 b 57 -47 90 181 71 79 b 250 -56 96 -47 217 -56 b 667 625 510 -56 664 260 z m 639 658 b 276 -12 639 275 492 -12 l 99 -3 b 107 35 104 11 107 24 l 107 47 b 254 60 188 49 238 53 b 117 85 201 60 156 68 b 126 142 122 111 122 129 b 150 140 135 142 142 140 b 239 161 175 140 206 147 l 206 161 b 131 183 157 161 131 169 b 138 225 131 192 136 206 l 238 225 b 281 226 261 225 275 225 b 421 636 374 326 421 464 b 403 836 421 699 415 763 l 468 832 l 494 667 l 499 832 l 524 832 l 539 706 l 557 832 l 624 832 b 639 658 635 789 639 731 z m 458 217 b 454 231 458 221 457 226 b 338 100 438 193 399 149 b 458 217 381 100 458 172 z m 392 265 b 386 282 392 272 390 276 b 286 181 374 250 365 243 l 293 181 b 392 265 326 181 392 228 z "},"K":{"ha":757,"x_min":0,"x_max":0,"o":"m 553 757 l 397 574 l 389 768 l 150 756 l 122 335 l 57 247 l 115 199 l 104 -33 l 350 -12 l 363 92 l 443 -85 l 667 50 l 493 351 l 757 608 z m 363 733 b 319 25 333 413 319 175 b 271 18 289 21 275 18 b 240 139 263 18 251 58 l 217 15 l 193 14 l 182 124 l 163 18 l 138 10 l 174 724 l 199 724 l 206 618 l 225 724 l 275 724 l 281 610 l 306 732 z m 689 615 b 361 242 639 551 424 311 b 357 290 358 260 357 274 b 568 724 357 456 433 610 b 689 615 606 710 647 674 z m 582 38 l 503 142 l 560 24 l 526 1 l 454 82 l 500 -11 l 456 -33 l 361 178 l 467 321 l 625 60 z m 636 642 b 585 607 606 618 590 608 b 599 661 585 619 599 653 l 599 667 b 518 564 578 654 526 599 l 590 590 b 636 642 617 597 631 615 z m 85 263 l 111 285 l 113 249 z m 247 331 l 238 318 l 247 306 l 256 318 z "},"L":{"ha":706,"x_min":0,"x_max":0,"o":"m 663 300 l 379 269 l 401 819 l 136 832 l 104 250 l 0 238 l 8 -35 l 92 -15 l 99 -42 l 361 -22 l 364 38 l 706 64 z m 331 15 l 307 14 l 289 107 l 271 10 l 201 4 l 175 117 l 157 1 l 131 -1 l 172 794 l 215 792 l 215 669 l 243 788 l 269 788 l 281 654 l 307 785 l 369 781 z m 369 69 l 369 235 l 638 263 l 640 243 l 553 214 l 646 208 l 649 183 l 521 158 l 661 151 l 678 89 z m 99 24 l 81 7 l 35 7 l 31 79 l 78 99 l 31 113 l 28 142 l 76 168 l 26 171 l 25 204 l 104 215 z m 238 149 l 221 136 l 238 122 l 250 136 z "},"M":{"ha":1418,"x_min":0,"x_max":0,"o":"m 1082 775 l 825 686 l 819 667 l 788 693 l 640 471 l 544 663 l 556 706 l 297 824 l 72 0 l 339 -76 l 418 290 l 429 289 l 578 -21 l 678 53 l 726 -7 l 951 422 l 1201 -50 l 1418 101 z m 1317 65 l 1263 153 l 1290 46 l 1263 31 l 1192 124 l 1238 14 l 1214 -4 b 871 664 1042 331 928 544 l 933 693 l 978 608 l 956 694 l 981 704 l 1036 624 l 1006 718 b 1065 735 1032 726 1053 731 b 1382 110 1211 456 1314 250 z m 286 -42 l 265 -26 l 272 117 l 218 -4 l 186 8 l 210 156 l 146 21 l 107 24 l 136 100 l 333 781 l 372 629 l 407 739 l 449 724 l 414 618 l 475 699 l 524 686 z m 697 103 l 642 178 l 669 82 l 649 67 l 579 149 l 617 47 l 585 22 l 431 332 l 453 367 l 501 319 l 468 397 l 478 440 l 550 365 l 490 514 l 529 629 l 746 131 z m 775 161 l 706 324 l 788 469 l 693 353 l 664 421 l 800 642 l 779 540 l 840 624 l 831 561 l 869 568 l 910 454 z m 301 383 l 286 238 l 365 475 z m 217 269 b 300 535 249 306 300 472 z m 833 414 l 753 306 l 844 403 z m 724 43 l 706 68 l 751 103 z m 399 579 b 383 592 393 586 388 592 b 368 579 376 592 372 586 b 383 564 374 569 378 564 b 399 579 388 564 393 569 z m 631 249 l 618 238 l 631 228 l 643 238 z m 986 581 l 975 571 l 986 560 l 996 571 z "},"N":{"ha":1000,"x_min":0,"x_max":0,"o":"m 932 242 l 950 783 l 676 810 l 667 422 l 408 682 l 393 832 l 125 819 l 121 694 l 38 604 l 136 510 l 192 -1 l 203 -1 b 374 -18 240 -1 344 -18 b 424 -11 393 -18 410 -15 l 414 286 l 667 38 l 674 -15 b 936 -42 825 -33 911 -42 l 933 113 l 1000 168 z m 901 10 l 851 15 l 818 136 l 808 15 l 774 21 l 746 117 l 738 28 l 703 31 l 703 764 l 750 754 l 768 635 l 794 754 l 822 614 l 822 758 l 913 731 z m 326 33 l 306 136 l 283 47 l 264 178 l 247 38 l 225 35 l 169 778 l 190 786 l 225 624 l 243 779 l 256 778 l 275 661 l 293 789 l 346 785 b 383 421 365 740 378 625 l 383 297 b 385 131 383 242 385 182 l 385 31 z m 410 340 l 411 401 l 501 353 l 415 444 l 415 486 l 503 403 l 418 540 l 418 636 l 674 369 l 674 75 z m 76 610 l 128 654 l 128 560 z m 938 149 l 928 201 l 964 168 z m 317 571 b 304 585 317 578 311 582 b 289 571 294 581 289 575 b 304 556 289 564 294 560 b 317 571 311 560 317 567 z m 799 192 l 786 179 l 799 168 l 811 179 z "},"O":{"ha":853,"x_min":0,"x_max":0,"o":"m 853 446 b 453 831 853 669 682 831 b 60 419 218 831 60 656 b 501 -7 60 181 254 -7 b 853 446 669 -7 853 239 z m 811 467 b 514 25 811 257 675 25 b 110 454 288 25 110 231 b 490 794 110 669 263 794 b 811 467 694 794 811 671 z m 631 403 b 471 564 631 500 567 564 b 282 388 368 564 282 489 b 432 217 282 286 338 217 b 631 403 539 217 631 297 z m 589 389 b 424 260 589 313 525 260 b 326 379 349 260 326 324 b 453 536 326 447 385 536 b 589 389 524 536 589 468 z m 721 563 b 538 718 717 646 614 718 b 721 563 669 642 694 619 z m 267 235 b 217 432 242 272 225 339 b 204 376 208 418 204 399 b 263 235 204 322 238 235 z m 638 207 b 504 158 589 174 544 158 b 492 160 500 158 496 160 l 476 161 b 514 136 476 144 489 136 b 638 207 561 136 632 171 z m 238 204 b 167 425 206 254 182 329 b 161 376 163 413 161 397 b 238 204 161 304 186 247 z m 646 540 b 550 629 646 592 601 629 l 536 629 b 646 540 569 614 571 613 z m 642 146 b 515 99 613 126 571 111 l 538 96 b 551 94 539 94 544 94 b 642 146 594 94 642 115 z "},"P":{"ha":889,"x_min":0,"x_max":0,"o":"m 889 561 b 535 819 889 708 728 819 b 415 808 494 819 456 815 l 408 849 l 149 849 l 149 792 l 39 775 l 72 560 l 146 556 l 142 490 l 82 465 b 149 85 126 385 149 258 b 146 -12 149 49 147 18 l 450 24 l 447 306 b 889 561 704 306 889 401 z m 361 50 l 329 178 l 319 39 l 288 35 l 269 190 l 238 24 l 179 15 l 179 822 l 225 824 l 243 667 l 256 825 l 381 819 l 414 64 z m 838 572 b 518 350 838 433 707 350 b 442 356 492 350 465 351 l 444 471 b 499 461 458 465 476 461 b 610 561 563 461 610 500 b 501 625 610 603 574 626 l 438 624 l 435 663 l 515 685 l 433 693 l 433 710 l 515 750 l 433 740 b 436 761 435 749 436 754 b 433 775 436 764 435 768 b 510 778 457 776 482 778 b 838 572 700 778 838 706 z m 590 564 b 499 510 574 528 544 510 b 435 521 479 510 458 513 l 433 585 b 489 603 447 596 467 603 b 590 564 528 603 561 590 z m 92 597 l 68 754 l 144 763 l 144 592 z m 768 585 b 706 682 768 626 749 658 b 756 532 729 632 744 583 b 768 585 764 556 768 572 z m 700 590 b 624 693 700 635 667 681 b 694 556 658 658 656 660 b 700 590 699 567 700 579 z m 117 453 l 139 453 l 139 396 z m 281 381 b 269 393 281 386 276 390 b 260 383 263 393 260 390 b 269 369 260 378 263 374 b 281 381 276 369 281 374 z "},"Q":{"ha":757,"x_min":0,"x_max":0,"o":"m 617 269 b 667 471 650 331 667 399 b 368 857 667 668 539 857 b 24 381 181 857 24 618 b 294 72 24 190 122 72 b 456 115 347 72 401 88 b 586 -93 486 67 528 -3 l 757 65 z m 629 465 b 594 301 629 399 618 344 l 564 353 l 585 414 b 596 467 590 432 596 451 b 569 561 596 499 588 529 b 578 507 574 540 578 522 b 547 376 578 461 568 418 l 522 418 l 522 442 b 515 510 522 479 521 501 l 496 442 l 453 539 b 357 585 432 569 400 585 b 181 378 265 585 181 479 b 311 254 181 297 229 254 b 346 256 322 254 335 256 l 369 231 b 313 206 365 214 346 206 b 251 221 286 206 265 210 b 308 183 263 196 282 183 b 383 210 338 183 363 193 l 396 185 b 317 156 378 185 343 156 b 354 146 328 149 340 146 b 401 168 368 146 385 153 b 426 133 404 156 413 144 b 290 104 375 114 329 104 b 72 389 157 104 72 218 b 376 831 72 607 206 831 b 629 465 524 831 629 650 z m 688 28 l 631 111 l 649 -8 l 585 82 l 619 -25 l 597 -49 l 329 365 l 344 374 l 399 332 b 375 386 388 353 381 372 l 396 396 b 458 338 421 368 442 347 b 425 408 444 364 433 389 l 465 425 l 721 58 z m 285 376 b 339 294 308 333 328 307 b 290 276 321 283 306 276 b 206 397 240 276 206 339 b 364 544 206 476 286 544 b 453 456 415 544 446 514 z m 372 731 b 313 753 367 744 346 753 b 221 686 253 753 224 731 b 343 732 261 717 301 732 l 353 732 z m 326 675 b 243 614 275 675 249 654 b 282 649 251 626 263 640 z m 458 299 l 447 288 l 469 272 l 478 282 z "},"R":{"ha":769,"x_min":0,"x_max":0,"o":"m 832 -47 l 558 288 b 686 521 640 328 686 419 b 403 813 686 685 575 808 l 403 853 l 169 853 l 160 800 b 22 783 126 792 81 788 b 25 557 22 706 25 632 l 142 563 l 126 436 l 32 414 l 100 208 l 72 -28 l 339 -15 l 346 129 l 649 -186 z m 307 11 l 244 22 l 240 104 l 221 10 l 181 10 l 174 118 l 156 1 l 106 -3 l 194 826 l 224 825 l 240 693 l 263 821 l 304 815 l 304 697 l 326 818 l 364 818 z m 651 533 b 418 275 651 388 551 272 l 358 276 l 357 310 b 524 357 454 318 510 333 b 369 329 488 340 440 333 l 372 357 b 515 419 468 375 515 396 l 514 421 b 369 383 496 400 449 388 l 374 415 b 521 526 486 449 521 476 b 389 619 521 585 465 619 l 396 778 l 413 778 b 651 533 547 778 651 676 z m 750 -61 l 694 -42 l 738 -82 l 711 -103 l 663 -61 l 696 -111 l 660 -136 l 357 172 l 357 243 b 532 264 432 243 490 250 l 781 -43 z m 156 778 b 147 585 156 732 151 661 l 49 579 l 49 610 l 107 636 l 49 636 l 47 664 l 110 681 l 47 699 l 49 768 z m 479 526 b 369 457 479 489 444 458 l 389 585 b 479 526 449 585 479 567 z m 111 267 l 104 265 l 60 401 l 121 415 z m 249 383 l 240 375 l 256 358 l 263 367 z m 274 667 l 263 661 b 274 653 267 660 269 654 b 282 661 275 654 276 660 z "},"S":{"ha":586,"x_min":0,"x_max":0,"o":"m 435 856 b 56 496 239 856 56 686 b 101 343 56 436 69 382 b 265 210 125 314 246 249 b 231 181 264 197 249 181 b 110 238 175 181 117 219 b -3 15 96 204 14 71 b 254 -58 81 -33 168 -58 b 572 261 446 -58 572 64 b 504 369 572 304 547 347 b 307 510 357 443 307 436 b 379 574 307 551 331 574 b 490 560 403 574 468 560 b 617 767 533 636 574 706 b 435 856 575 825 515 856 z m 421 825 b 585 764 479 825 540 800 l 550 708 b 469 739 514 729 488 739 b 533 678 513 711 533 693 l 507 639 b 436 682 471 665 447 681 b 493 624 475 656 493 638 b 471 586 493 619 486 607 b 401 617 471 607 447 617 b 276 492 318 617 276 575 b 344 408 276 453 299 425 b 540 249 490 344 540 346 b 236 -15 540 90 381 -15 b 60 26 186 -15 118 7 l 35 35 l 54 65 b 156 31 81 46 122 36 b 67 88 106 49 81 68 l 90 129 b 188 92 114 115 142 103 b 110 161 149 118 124 140 l 128 192 b 224 153 161 167 193 153 b 300 219 249 153 300 197 b 147 340 300 239 168 306 b 90 496 110 385 90 436 b 421 825 90 667 256 825 z m 442 228 b 393 313 442 260 425 288 b 426 229 415 285 426 256 b 399 139 426 199 411 171 b 442 228 426 160 442 188 z m 376 249 b 335 296 376 281 363 296 l 333 296 b 363 229 353 278 363 256 b 326 142 363 199 350 169 b 376 249 353 160 376 210 z m 193 513 b 203 458 193 492 194 476 b 229 613 207 535 217 585 b 193 513 206 597 193 564 z m 136 504 b 142 460 136 483 138 468 l 142 475 b 178 619 142 536 153 583 b 136 504 150 606 136 567 z "},"T":{"ha":567,"x_min":0,"x_max":0,"o":"m 543 794 l 18 728 l 8 471 l 163 493 l 163 -54 l 369 -54 l 369 514 l 567 528 z m 43 511 l 39 550 l 129 574 l 39 582 l 174 643 l 42 617 l 42 706 l 521 764 l 522 708 l 400 681 l 524 674 l 524 643 l 454 629 l 525 614 l 526 553 z m 307 -22 l 289 104 l 275 -26 l 253 -25 l 232 104 l 215 -22 l 186 -24 l 186 486 l 225 483 l 238 389 l 243 488 l 260 490 l 269 421 l 281 490 l 347 490 l 347 -22 z m 264 660 l 251 647 l 264 635 l 276 647 z "},"U":{"ha":860,"x_min":0,"x_max":0,"o":"m 860 779 b 851 849 860 801 857 825 l 582 822 l 582 796 b 450 231 582 399 540 231 b 347 433 383 231 347 299 b 354 578 347 446 353 556 l 357 661 b 361 721 357 685 357 704 b 354 811 361 754 358 786 l 89 788 b 92 706 90 763 92 735 b 82 397 92 651 82 453 b 449 -76 82 57 193 -76 b 842 418 674 -76 806 89 b 843 432 843 421 843 425 l 843 471 b 858 767 843 567 847 664 z m 819 724 b 774 271 819 590 804 440 b 401 -26 733 49 636 -26 b 128 478 217 -26 128 129 b 133 715 128 490 133 624 l 133 750 l 146 757 l 181 601 l 167 758 l 199 763 l 231 607 l 236 772 b 300 781 263 778 283 781 b 319 750 317 781 319 767 l 319 726 b 310 458 319 681 310 504 b 449 183 310 275 356 183 b 624 676 558 183 624 342 b 619 799 624 721 621 763 l 678 808 l 678 790 b 686 688 678 767 678 732 b 724 811 699 746 710 788 b 732 807 724 808 728 807 b 750 813 740 807 744 808 l 749 650 b 788 815 763 718 776 772 l 814 815 b 819 724 818 789 819 757 z m 524 139 b 422 129 478 133 443 129 b 376 136 403 129 388 131 b 438 114 386 122 407 114 b 524 139 475 114 503 122 z m 544 93 b 454 79 514 83 483 79 b 379 92 426 79 403 83 b 446 67 390 75 413 67 b 544 93 488 67 521 76 z "},"V":{"ha":785,"x_min":0,"x_max":0,"o":"m 561 869 l 389 471 b 218 908 318 669 263 811 l 0 794 l 219 147 l 186 31 l 306 -4 l 319 -79 l 558 31 l 503 201 b 785 783 610 411 703 597 z m 521 57 b 482 42 515 46 483 42 b 400 101 456 53 429 72 b 440 22 407 75 419 47 l 396 0 l 335 90 b 378 -10 354 42 369 10 l 357 -19 b 193 386 306 103 244 232 l 43 799 l 76 807 l 138 688 b 125 819 136 753 131 796 l 188 718 l 174 846 l 196 858 b 354 456 239 743 288 613 b 521 57 378 399 503 89 z m 493 244 l 414 418 l 579 826 l 614 800 l 582 715 l 642 778 l 660 763 l 651 708 l 706 757 l 718 740 z m 232 60 l 256 122 l 296 39 z m 594 619 b 579 640 594 631 590 638 b 561 619 568 640 561 635 b 579 601 561 610 568 604 b 594 619 590 601 594 607 z m 204 636 b 188 653 204 643 199 649 b 174 636 179 653 174 647 b 188 617 174 628 179 621 b 204 636 199 617 204 624 z m 378 164 b 365 181 378 169 374 175 b 351 164 356 181 351 175 b 365 149 351 158 356 153 b 378 164 374 149 378 153 z "},"W":{"ha":1371,"x_min":0,"x_max":0,"o":"m 364 -75 l 619 14 l 626 35 l 658 8 l 803 229 l 901 38 l 889 -4 l 1146 -124 l 1371 700 l 1106 776 l 1028 408 l 1015 411 l 868 719 l 767 649 l 718 707 l 493 278 l 243 751 l 26 599 z m 128 636 l 182 547 l 156 654 l 182 669 l 253 578 l 206 686 l 231 706 b 572 36 403 376 517 153 l 511 10 l 468 92 l 490 4 l 465 -3 l 408 79 l 440 -15 b 376 -35 413 -24 390 -33 b 64 592 231 244 135 446 z m 1157 742 l 1179 728 l 1174 583 l 1225 706 l 1258 693 l 1235 546 l 1300 681 l 1338 676 l 1308 599 l 1110 -81 l 1072 71 l 1039 -37 l 996 -24 l 1031 82 l 971 0 l 921 15 z m 749 597 l 801 524 l 775 618 l 796 635 l 865 553 l 826 653 l 860 678 l 1015 368 l 993 333 l 944 383 l 978 304 l 967 260 l 893 335 l 954 186 l 914 71 l 699 569 z m 669 540 l 739 376 l 656 231 l 751 347 l 779 281 l 646 60 l 664 161 l 604 79 l 615 139 l 574 131 l 535 247 z m 1142 318 l 1160 465 l 1078 226 z m 1229 432 b 1143 168 1190 386 1149 231 z m 610 286 l 693 396 l 601 296 z m 721 658 l 739 632 l 693 597 z m 1047 124 b 1061 110 1051 114 1057 110 b 1076 124 1065 110 1072 114 b 1061 136 1072 131 1065 136 b 1047 124 1057 136 1051 131 z m 813 453 l 825 461 l 813 472 l 800 461 z m 458 118 l 469 129 l 458 139 l 446 129 z "},"X":{"ha":800,"x_min":0,"x_max":0,"o":"m 621 769 l 418 540 l 296 774 l 56 643 l 240 338 l 65 99 l 301 -57 l 396 93 l 490 -42 l 672 58 l 558 282 l 800 558 z m 603 58 l 507 192 l 579 42 l 564 31 l 483 117 l 540 11 l 511 -10 l 89 632 l 125 646 l 207 536 l 151 658 l 178 674 l 271 567 l 213 699 l 276 731 l 624 75 z m 540 317 b 433 510 503 388 467 450 l 618 708 l 642 681 l 567 556 l 663 653 l 685 629 l 594 510 l 708 604 l 743 558 z m 286 -10 l 242 24 l 263 104 l 213 47 l 182 69 l 215 140 l 150 79 l 111 113 l 260 300 l 369 126 z m 400 346 l 389 335 l 400 322 l 411 335 z "},"Y":{"ha":785,"x_min":0,"x_max":0,"o":"m 526 797 l 396 549 l 175 794 l -15 567 l 244 272 l 124 35 l 351 -104 l 785 661 z m 340 -54 l 263 -14 l 324 99 l 238 7 l 221 18 l 300 178 l 197 35 l 174 54 l 547 751 l 617 718 l 553 575 l 654 689 l 682 674 l 621 546 l 711 661 l 750 647 z m 379 515 b 263 310 306 388 267 319 l 46 568 l 82 617 l 206 515 l 107 642 l 131 667 l 236 567 l 153 697 l 181 728 z m 414 343 l 401 331 l 414 318 l 426 331 z "},"Z":{"ha":879,"x_min":0,"x_max":0,"o":"m 596 765 l 54 783 l 28 511 l 414 500 l 156 242 l 4 226 l 18 -42 l 142 -46 l 235 -129 l 328 -31 l 838 25 l 838 36 b 854 206 838 76 854 181 b 849 256 854 226 853 243 l 551 247 l 800 503 l 853 507 b 879 769 869 660 879 744 l 724 767 l 671 833 z m 829 738 l 821 683 l 700 650 l 821 642 l 815 607 l 719 579 l 810 569 l 807 535 l 72 535 l 83 583 l 204 603 l 83 628 l 225 656 l 79 656 l 106 744 z m 803 158 l 700 139 l 789 117 l 661 99 l 799 81 l 800 58 l 60 3 l 53 22 l 214 57 l 58 76 l 60 92 l 178 110 l 47 126 l 53 181 b 418 217 94 201 215 213 l 807 218 z m 496 243 l 436 244 l 483 335 l 393 250 l 351 250 l 433 339 l 297 250 l 201 250 l 468 510 l 763 510 z m 228 -92 l 183 -42 l 278 -37 z m 689 769 l 636 763 l 671 800 z m 265 150 b 250 136 260 150 254 146 b 265 124 254 128 261 124 b 282 136 271 124 276 128 b 265 150 276 146 271 150 z m 647 631 l 660 618 l 671 631 l 660 643 z "},"[":{"ha":649,"x_min":0,"x_max":0,"o":"m 569 943 l 425 951 l 401 978 b 169 986 326 982 247 982 l 144 -161 b 254 -158 181 -160 218 -158 b 515 -179 313 -158 400 -164 b 551 22 529 -111 539 -46 l 410 67 l 410 711 l 619 740 z m 368 -81 l 322 -111 l 308 -3 l 283 -111 l 250 -112 l 238 10 l 213 -104 l 201 -104 l 201 963 l 251 915 b 282 951 260 926 274 944 l 315 951 l 342 864 b 368 938 350 889 361 914 l 374 936 z m 418 750 l 418 922 l 551 917 l 553 913 l 478 876 b 557 871 501 875 536 871 l 560 842 l 492 821 b 567 813 515 819 543 814 l 581 769 z m 526 -8 b 450 -69 507 -57 493 -68 b 507 -107 481 -82 500 -94 l 488 -110 b 453 -103 475 -110 458 -103 b 494 -146 456 -114 469 -128 l 493 -149 l 381 -128 l 410 19 z m 306 831 l 276 831 l 276 794 b 307 825 294 801 306 813 z "},"\\":{"ha":681,"x_min":0,"x_max":0,"o":"m 681 88 l 228 946 l 0 829 l 483 -39 z m 626 85 l 586 76 l 500 193 l 546 64 l 514 42 l 444 126 l 496 28 l 483 13 l 50 806 l 94 811 l 194 674 l 204 688 l 149 826 l 153 835 l 250 731 l 256 738 l 179 853 l 217 879 z m 396 335 b 344 447 396 336 378 375 b 278 569 318 503 279 569 b 376 332 276 568 374 333 b 390 331 379 331 385 331 b 396 335 393 331 396 332 z m 467 278 b 407 438 461 299 415 438 b 396 429 399 438 396 435 b 467 278 410 388 433 338 z "},"]":{"ha":649,"x_min":0,"x_max":0,"o":"m 363 825 b 392 794 364 813 375 801 l 392 831 l 364 831 z m 260 19 l 288 -128 l 175 -149 l 174 -146 b 217 -103 199 -128 214 -114 b 182 -110 210 -103 194 -110 l 161 -107 b 218 -69 169 -94 188 -82 b 142 -8 175 -68 161 -57 z m 89 769 l 103 813 b 178 821 126 814 153 819 l 110 842 l 113 871 b 192 876 133 871 168 875 l 115 913 l 117 917 l 251 922 l 251 750 z m 296 936 l 300 938 b 328 864 308 914 319 889 l 354 951 l 388 951 b 418 915 396 944 410 926 l 468 963 l 468 -104 l 457 -104 l 432 10 l 419 -112 l 386 -111 l 361 -3 l 346 -111 l 300 -81 z m 49 740 l 254 711 l 254 67 l 117 22 b 153 -179 129 -46 139 -111 b 414 -158 269 -164 356 -158 b 525 -161 450 -158 489 -160 l 500 986 b 267 978 422 982 343 982 l 243 951 l 100 943 z "},"^":{"ha":550,"x_min":0,"x_max":0,"o":"m 186 322 l 281 540 b 375 301 322 426 351 357 l 506 369 l 381 740 l 401 810 l 333 829 l 322 875 l 178 810 l 208 710 b 47 378 121 538 78 449 z m 214 789 l 226 794 b 278 750 240 788 258 776 b 261 808 274 765 271 797 l 274 815 l 307 768 l 293 825 l 294 825 b 468 375 326 754 354 688 l 460 372 l 424 446 l 418 389 l 390 426 l 404 353 l 392 346 z m 219 667 l 258 585 l 169 364 l 160 372 l 182 432 l 136 390 l 129 392 l 139 440 l 103 403 l 99 404 z m 361 786 l 354 768 l 343 790 z m 157 472 b 171 454 157 464 161 458 b 188 472 183 454 188 460 b 174 489 188 479 183 483 b 157 472 161 489 157 482 z m 379 464 b 390 449 379 457 385 453 b 407 464 401 449 407 453 b 396 479 407 472 403 478 b 379 464 386 479 379 475 z m 282 731 b 293 715 282 722 285 718 b 306 731 300 715 306 719 b 293 743 306 738 300 743 b 282 731 286 743 282 738 z "},"_":{"ha":864,"x_min":0,"x_max":0,"o":"m 838 -36 b 511 -46 731 -43 621 -46 b 39 -32 358 -46 204 -42 l 32 -271 b 235 -274 100 -272 167 -274 b 815 -247 432 -274 625 -267 z m 781 -225 b 276 -247 558 -240 392 -247 b 92 -242 256 -247 147 -242 l 67 -242 l 167 -218 l 65 -208 l 182 -196 l 75 -179 l 78 -72 l 779 -89 l 779 -196 l 610 -196 z m 421 -151 b 435 -164 421 -161 425 -164 b 450 -151 446 -164 450 -161 b 435 -137 450 -142 446 -137 b 421 -151 425 -137 421 -142 z "},"`":{"ha":469,"x_min":0,"x_max":0,"o":"m 169 1167 b 11 933 65 1150 11 1029 l 101 878 b 161 922 126 890 147 908 l 338 825 l 447 810 l 410 901 l 232 1021 b 261 1099 243 1047 254 1068 z m 99 1096 b 156 1128 115 1108 131 1128 l 163 1128 b 174 1124 163 1128 167 1126 l 182 1104 b 58 947 161 1029 99 947 b 39 951 50 947 44 949 b 99 1096 39 1007 68 1064 z m 410 838 l 340 847 l 179 946 b 221 997 199 961 214 979 l 250 978 l 236 954 l 272 964 l 383 894 z m 79 928 b 197 1107 142 967 174 1036 l 226 1083 b 103 913 207 1018 167 949 z "},"a":{"ha":688,"x_min":0,"x_max":0,"o":"m 688 28 b 661 244 681 49 674 201 b 646 243 658 243 653 243 l 586 243 b 461 492 532 375 489 458 b 507 629 481 550 494 597 l 478 624 b 317 717 424 676 369 708 b 318 704 318 715 318 711 b 213 629 318 661 258 629 b 238 536 213 608 238 550 b 136 239 238 515 160 253 b 36 215 101 218 42 215 b 60 19 36 126 44 61 b 96 -43 60 15 96 -25 b 129 -36 107 -37 118 -36 b 236 -72 153 -36 214 -65 b 285 44 260 -21 274 18 b 464 64 329 44 389 50 b 510 -43 493 18 510 -19 b 649 22 511 -43 603 22 b 672 19 653 22 661 21 z m 458 585 b 218 -33 313 214 236 15 l 201 -22 l 213 79 l 161 -1 b 171 93 168 38 171 69 l 171 104 l 122 10 l 94 15 b 347 669 238 396 267 488 l 364 661 b 329 583 346 628 338 603 l 378 654 l 411 638 b 381 572 397 615 386 593 b 446 621 400 593 422 610 b 458 585 454 610 458 597 z m 625 47 b 582 88 610 56 596 69 l 582 72 b 589 47 582 65 583 57 l 526 82 l 558 22 b 393 319 501 25 393 257 b 456 458 393 350 414 397 l 636 61 z m 450 90 b 297 75 396 79 343 75 b 346 196 306 106 322 147 l 354 196 b 403 185 368 196 403 192 b 375 161 403 174 393 167 b 432 139 399 156 418 147 b 364 125 400 133 378 129 b 450 110 401 117 432 111 z m 636 114 l 603 215 l 639 215 z m 85 94 l 85 100 b 78 182 85 111 82 139 l 118 186 z m 267 557 l 247 604 l 299 624 z m 350 226 l 372 278 l 396 215 z m 538 158 b 524 174 538 163 533 169 b 511 158 515 174 511 169 b 524 142 511 150 515 146 b 538 158 533 142 538 147 z m 225 147 b 213 161 225 153 219 158 b 201 147 204 161 201 157 b 213 131 201 139 204 135 b 225 147 219 131 225 136 z m 364 522 b 353 535 364 526 361 532 b 343 522 346 535 343 529 b 353 510 343 517 346 513 b 364 522 361 510 364 514 z "},"b":{"ha":594,"x_min":0,"x_max":0,"o":"m 629 183 b 503 313 629 225 533 290 b 604 482 571 372 604 426 b 339 656 604 579 479 656 l 271 656 l 282 669 b 93 689 186 682 126 688 l 90 669 b 99 624 90 654 93 639 l 44 610 l 90 465 l 79 326 b 10 271 53 300 26 283 b 81 185 35 249 58 219 b 60 -28 79 114 72 47 b 306 -39 103 -28 261 -39 b 629 183 522 -39 629 35 z m 228 -10 b 206 79 219 14 214 42 b 175 -10 193 39 183 10 b 156 78 175 11 169 39 b 114 1 138 42 125 15 b 110 85 111 14 110 43 b 125 599 110 175 125 511 b 122 660 125 629 124 649 l 161 649 b 186 549 172 593 179 561 b 193 614 192 567 193 589 l 193 649 l 213 643 l 218 558 l 238 639 l 261 636 z m 585 161 b 326 -21 585 67 415 -21 b 293 -15 311 -21 300 -19 b 353 49 329 15 347 38 b 289 21 321 31 300 21 b 275 24 288 21 283 22 l 275 35 b 278 71 275 43 276 54 b 422 140 343 75 392 99 l 424 151 b 331 217 424 194 392 217 b 285 213 313 217 297 215 l 285 249 b 415 290 301 276 344 290 b 585 161 513 290 585 244 z m 564 471 b 321 315 564 381 467 328 b 381 368 361 326 381 344 b 306 343 361 351 335 343 l 285 343 b 350 390 321 356 342 372 b 315 381 333 385 322 381 b 282 388 306 381 294 383 b 383 457 350 408 383 431 b 307 521 383 496 346 521 b 286 515 300 521 294 518 b 281 547 282 524 281 535 b 282 601 281 561 282 589 b 372 614 315 608 344 614 b 564 471 479 614 564 551 z m 389 161 b 339 135 383 151 365 146 l 285 113 b 272 149 285 128 281 140 b 339 181 293 169 315 181 b 389 161 354 181 372 174 z m 351 468 b 288 424 351 446 331 432 l 286 494 l 331 494 b 351 468 344 483 351 476 z m 540 183 b 507 238 540 204 526 238 b 500 226 503 238 500 235 b 514 153 500 208 514 171 l 524 142 b 540 183 535 142 540 157 z m 476 458 b 432 547 476 499 456 547 l 431 547 b 432 543 431 546 431 544 l 436 522 b 471 446 446 469 451 446 b 476 458 475 446 476 450 z m 492 185 b 460 231 492 204 478 231 b 453 219 456 231 453 228 b 471 133 453 203 471 158 b 492 185 483 133 492 168 z m 514 478 b 489 547 514 524 506 547 b 478 539 481 547 478 544 b 493 506 478 533 492 511 b 506 468 493 476 499 468 z m 50 269 l 76 289 l 85 218 z m 197 201 b 181 218 197 213 192 218 b 167 201 171 218 167 213 b 181 185 167 190 171 185 b 197 201 192 185 197 190 z m 213 514 b 199 528 213 524 207 528 b 186 514 192 528 186 524 b 199 501 186 506 192 501 b 213 514 207 501 213 506 z m 186 282 b 174 297 186 286 182 293 b 164 282 168 297 164 293 b 174 265 164 275 168 271 b 186 282 182 265 186 271 z m 78 592 l 94 592 l 94 551 z "},"c":{"ha":506,"x_min":0,"x_max":0,"o":"m 503 135 b 400 272 503 139 438 235 b 332 194 379 219 357 194 b 247 383 288 194 247 315 b 313 492 247 456 269 492 b 404 454 338 492 368 479 b 426 631 404 522 413 581 b 275 685 375 667 324 685 b 44 340 142 685 44 522 b 294 15 44 156 140 15 b 503 135 378 15 503 65 z m 404 72 b 326 49 375 57 347 49 b 88 339 174 49 88 168 b 281 658 88 496 169 658 b 392 610 315 658 353 642 l 389 610 b 332 624 376 610 332 619 b 317 619 332 624 328 621 b 379 560 343 599 361 581 b 313 585 368 560 332 585 b 290 581 311 585 306 585 b 369 517 328 561 356 531 b 329 522 358 521 343 522 b 213 374 251 522 213 472 b 331 161 213 267 265 161 b 401 206 357 161 381 175 b 335 124 397 179 365 138 l 338 118 b 347 117 339 118 343 117 b 421 142 372 117 390 124 b 374 79 407 113 390 90 l 375 75 b 424 99 388 76 397 90 l 458 117 b 404 72 447 101 431 88 z m 219 139 b 156 254 194 161 172 199 l 149 253 l 146 232 b 213 136 146 194 182 136 z m 238 172 b 188 278 217 190 208 199 b 181 249 183 264 181 254 b 228 167 181 210 204 167 b 238 168 232 167 236 167 z "},"d":{"ha":639,"x_min":0,"x_max":0,"o":"m 636 306 b 489 569 636 425 586 514 b 481 572 486 569 482 571 l 432 599 b 418 607 425 604 422 606 l 413 610 l 401 643 l 190 629 b 186 579 188 613 186 596 l 72 564 b 57 419 61 513 57 464 b 67 351 57 389 58 368 b 192 364 96 358 136 364 b 193 207 192 311 193 263 l 79 203 l 90 -32 b 183 -18 128 -25 163 -22 l 185 -28 l 383 -28 l 383 -15 b 386 -10 383 -11 385 -10 b 636 306 521 -10 636 140 z m 364 572 b 344 117 364 489 344 201 b 350 15 344 79 346 46 b 318 13 339 15 329 13 l 315 122 l 310 122 l 286 10 b 250 8 272 10 263 8 l 250 78 l 243 78 l 225 7 l 218 7 b 228 179 225 50 228 107 l 228 251 b 224 410 228 286 224 369 l 224 482 b 222 539 224 500 222 521 b 253 603 222 571 226 599 l 267 528 l 272 528 b 281 604 276 551 275 579 l 289 604 b 307 528 289 585 307 546 l 306 517 l 310 515 b 333 619 319 533 324 593 b 364 572 354 618 364 603 z m 593 278 b 389 21 593 139 522 47 b 390 168 389 71 390 117 b 479 286 440 186 479 235 b 401 400 479 332 454 369 b 397 446 399 414 397 429 b 408 572 397 472 400 514 b 593 278 521 539 593 413 z m 188 399 l 179 399 b 96 389 158 399 129 397 b 99 407 99 392 99 399 b 96 419 99 411 99 415 b 149 442 117 431 135 436 b 94 460 125 453 107 458 l 100 532 l 181 543 l 181 535 b 182 528 181 532 181 529 b 149 493 171 514 168 507 b 178 481 157 486 167 481 b 188 482 182 481 186 482 z m 188 14 l 125 14 b 115 179 124 69 117 122 b 181 178 136 179 160 178 b 135 140 172 163 153 147 b 168 133 147 135 160 133 b 190 136 175 133 182 135 b 135 85 185 100 178 96 b 181 61 149 69 163 61 l 186 61 b 192 64 188 61 190 61 z m 436 288 b 389 213 436 250 421 225 b 393 358 389 263 392 308 b 436 288 421 354 436 321 z m 536 400 b 449 496 532 444 492 496 b 421 482 438 496 429 492 b 525 411 465 478 481 460 z m 500 365 b 443 438 500 399 472 438 b 421 426 435 438 426 435 b 465 401 438 422 450 413 l 465 403 z m 297 482 l 286 483 l 275 475 b 294 461 283 467 289 461 b 306 472 301 461 306 465 z m 286 129 l 275 118 l 286 110 l 297 118 z "},"e":{"ha":626,"x_min":0,"x_max":0,"o":"m 599 626 l 367 626 l 346 651 l 150 651 l 150 615 l 71 618 l 50 414 l 138 414 l 138 192 l 42 199 l 10 21 l 133 -3 l 131 -36 b 225 -32 161 -35 192 -32 b 528 -60 328 -32 429 -42 l 560 103 l 356 151 l 356 188 l 521 178 l 529 375 l 358 375 l 358 433 l 642 458 z m 318 36 l 283 14 l 269 111 l 249 11 l 225 10 l 213 125 l 183 14 l 183 631 l 224 594 l 250 626 l 274 626 l 296 546 l 321 614 z m 364 458 l 364 601 l 582 601 l 511 567 l 585 561 l 589 540 l 525 522 l 593 513 l 604 482 z m 536 82 b 464 35 524 43 510 35 l 461 35 b 521 4 494 21 514 10 l 472 4 b 510 -32 475 -4 488 -18 l 332 -3 l 364 125 z m 432 236 l 488 215 l 364 219 l 364 350 l 500 350 l 500 290 l 442 275 l 501 256 z m 131 24 l 39 46 l 67 169 l 138 169 z m 81 442 l 94 589 l 131 589 l 142 442 z m 267 528 l 243 528 l 243 490 b 269 524 261 499 269 510 z m 263 306 b 243 332 254 318 249 331 l 238 338 l 228 326 b 247 300 236 311 242 304 l 253 297 z "},"f":{"ha":561,"x_min":0,"x_max":0,"o":"m 351 610 l 351 661 b 68 604 232 628 138 608 l 50 422 l 164 422 l 182 -19 l 403 26 l 399 231 l 544 253 l 544 401 b 376 393 489 397 432 396 b 375 418 376 401 375 410 l 533 424 l 560 606 z m 300 31 l 283 90 l 269 25 l 242 82 l 238 81 l 232 31 l 214 22 b 188 592 206 219 196 393 l 203 596 l 217 504 l 221 504 l 235 601 b 272 610 247 606 260 608 l 288 475 l 294 475 b 306 617 296 524 300 567 l 326 624 b 367 50 339 432 354 242 z m 528 571 l 444 558 l 443 553 b 522 522 467 543 496 529 b 518 507 521 515 518 513 l 446 481 l 499 453 b 374 446 454 453 418 447 b 364 582 368 494 365 536 l 529 582 z m 390 256 b 381 368 389 294 383 329 l 515 374 b 522 368 521 367 519 371 l 511 363 l 513 363 l 464 354 l 464 350 l 515 342 b 522 332 517 340 521 338 l 456 313 l 457 308 l 528 304 b 529 271 528 290 529 285 z m 82 464 b 85 504 82 478 85 490 l 122 518 l 85 528 b 88 543 85 535 88 538 l 126 556 b 90 568 115 560 101 567 b 136 592 90 592 110 592 b 157 590 142 592 149 590 l 161 464 z m 288 301 b 274 319 288 308 283 315 b 261 301 265 315 261 308 b 269 294 261 297 264 294 l 281 294 b 288 301 285 294 288 297 z m 256 536 l 244 526 l 256 515 l 269 526 z "},"g":{"ha":563,"x_min":0,"x_max":0,"o":"m 560 -25 l 446 396 l 274 344 b 290 225 278 308 286 264 b 218 326 244 231 218 276 b 326 440 218 393 258 440 b 386 426 346 440 367 435 l 488 592 b 319 656 429 635 372 656 b 19 367 128 656 19 551 b 286 14 19 183 138 14 b 351 22 307 14 328 18 l 388 -89 b 560 -28 464 -64 522 -43 z m 376 69 b 276 47 333 56 300 47 b 67 256 201 47 79 174 b 104 197 83 229 93 213 l 111 199 b 83 313 93 242 83 281 b 92 378 83 333 88 354 l 88 381 b 64 326 76 357 68 340 b 60 346 61 333 60 340 b 297 618 60 511 139 618 b 442 583 347 618 396 607 l 408 535 b 324 561 383 551 385 553 l 322 557 b 378 515 347 543 367 529 l 365 515 b 313 500 347 515 331 511 b 378 478 342 499 364 492 b 375 464 375 475 378 467 b 356 465 369 465 364 465 l 339 465 b 188 339 239 465 188 422 b 290 197 188 271 232 197 b 367 243 321 197 343 210 l 372 226 b 299 168 356 192 332 172 l 297 161 b 331 157 306 158 317 157 b 388 196 353 157 372 169 b 401 181 392 190 397 182 b 290 121 381 150 392 146 b 326 114 306 115 317 114 b 426 151 363 114 397 126 b 465 117 435 140 447 128 b 376 69 444 100 415 83 z m 433 206 b 376 285 414 231 401 247 l 326 235 b 307 310 318 260 315 285 l 329 269 l 333 271 b 332 299 332 275 332 285 l 332 313 b 331 329 332 318 332 324 b 358 339 339 333 351 333 b 410 282 379 306 397 286 b 392 350 399 301 393 324 l 425 364 b 488 140 453 263 475 193 b 433 206 472 156 454 178 z m 515 -12 l 482 39 l 478 38 b 481 -25 478 18 479 -4 b 458 -35 475 -31 467 -31 l 421 -3 l 419 -7 l 433 -46 b 404 -58 422 -50 415 -53 l 381 32 b 494 110 425 43 478 78 b 528 -4 513 54 521 22 z m 172 532 b 99 433 136 524 99 467 b 113 411 99 425 103 418 b 136 472 114 425 124 453 l 147 489 b 174 528 151 496 163 515 z m 193 486 b 131 421 160 478 131 450 b 149 397 131 410 138 401 b 161 443 150 411 153 431 z "},"h":{"ha":711,"x_min":0,"x_max":0,"o":"m 696 379 l 669 379 l 669 661 l 458 661 l 440 396 l 338 396 l 338 686 l 111 700 l 88 388 l 72 378 l 35 378 l 47 168 l 88 172 l 88 -79 l 301 -60 l 324 140 l 432 150 l 432 -69 l 649 -54 l 649 138 l 711 161 z m 301 643 b 281 -18 300 433 294 218 l 231 -15 l 218 81 l 208 -26 l 171 -24 l 150 53 l 142 -36 l 111 -42 l 136 665 l 186 661 l 193 550 l 215 654 l 242 651 l 256 564 l 269 650 z m 547 -28 l 535 43 l 521 -28 l 496 106 l 467 -24 l 486 640 l 525 546 l 525 639 l 556 639 l 569 547 l 585 639 l 628 639 l 628 -15 z m 326 182 l 332 358 l 440 365 l 440 326 l 365 311 l 440 290 l 440 231 l 364 225 l 440 192 z m 64 199 l 60 354 l 92 350 l 92 204 z m 651 186 l 656 335 l 674 335 l 682 194 z m 199 285 l 190 275 l 199 267 l 213 275 z m 556 276 l 546 275 l 556 263 l 567 269 z "},"i":{"ha":328,"x_min":0,"x_max":0,"o":"m 92 682 l 60 -46 l 282 -21 l 282 661 z m 231 24 l 219 76 l 215 76 b 190 19 208 54 215 19 l 168 114 l 163 114 b 153 11 161 81 156 44 b 104 -3 135 10 122 1 l 125 639 l 129 639 l 149 558 l 153 558 l 167 635 b 178 632 171 635 172 632 l 186 567 l 192 564 b 225 636 197 585 206 636 b 238 638 229 636 235 636 b 239 25 238 426 239 236 z "},"j":{"ha":539,"x_min":0,"x_max":0,"o":"m 535 696 l 288 699 b 297 536 294 653 297 597 b 172 206 297 353 253 206 b 85 213 147 206 106 213 b 43 -39 68 144 56 61 b 199 -47 103 -44 150 -47 b 536 532 401 -47 536 186 z m 510 526 b 196 -10 510 196 382 -10 b 82 0 158 -10 118 -4 b 89 35 88 10 89 19 b 215 50 153 36 203 42 b 96 69 164 50 128 57 b 103 111 99 89 99 103 b 199 131 149 111 172 115 b 167 129 188 131 174 129 b 107 147 126 129 107 136 b 111 178 107 153 110 164 b 149 175 125 178 138 175 b 243 203 201 175 228 183 b 340 510 307 281 340 383 b 326 667 340 558 338 610 l 372 663 l 399 535 b 401 663 399 578 401 618 l 415 663 l 433 564 b 447 663 438 594 446 632 l 496 663 b 510 526 504 619 510 575 z m 369 174 b 363 186 369 178 367 182 b 263 78 351 157 318 121 b 369 174 297 78 369 129 z m 317 213 b 307 228 317 217 313 224 b 221 142 290 194 274 174 b 317 213 269 142 317 179 z "},"k":{"ha":607,"x_min":0,"x_max":0,"o":"m 469 661 l 326 490 l 318 671 l 99 661 l 72 271 l 13 190 l 65 146 l 56 -68 l 282 -49 l 294 47 l 368 -117 l 572 10 l 414 285 l 660 524 z m 294 639 b 254 -15 267 335 254 129 b 208 -22 231 -21 215 -22 b 181 90 197 -22 188 15 l 160 -22 l 138 -25 l 128 76 l 111 -22 l 85 -28 l 118 629 l 142 629 l 149 532 l 167 629 l 213 629 l 218 525 l 240 636 z m 594 528 b 293 185 461 369 363 261 b 288 231 289 199 288 214 b 483 629 288 383 363 528 b 594 528 518 617 556 583 z m 496 -3 l 421 92 l 476 -15 l 446 -36 l 378 38 l 421 -47 l 379 -68 l 293 125 l 389 260 l 535 18 z m 496 522 b 514 572 499 529 514 561 l 513 578 b 438 482 489 564 443 503 b 546 556 489 503 533 507 z m 38 203 l 61 225 l 64 192 z m 186 267 l 179 253 l 186 242 l 196 253 z "},"l":{"ha":575,"x_min":0,"x_max":0,"o":"m 538 243 l 311 218 l 331 660 l 111 667 l 88 203 l 3 193 l 10 -31 l 79 -15 l 82 -35 l 296 -21 l 300 28 l 572 47 z m 267 15 b 253 14 261 15 258 14 l 239 88 l 235 88 l 219 11 l 169 7 l 149 93 l 144 93 l 129 3 b 114 1 122 3 115 1 l 146 632 b 174 631 157 632 167 631 l 174 535 l 181 535 l 201 628 l 218 628 l 226 524 l 231 524 b 253 625 239 556 247 589 b 299 624 271 625 285 624 z m 304 58 b 311 185 308 103 307 140 l 514 208 b 515 196 514 204 515 201 l 446 174 l 446 169 l 518 164 b 522 149 518 158 522 149 l 421 129 l 421 124 b 532 118 458 124 493 121 l 546 72 z m 82 22 b 68 8 78 18 75 10 l 35 8 b 33 60 35 26 33 43 l 75 81 b 31 111 54 88 31 83 l 75 135 l 28 139 l 28 161 b 85 169 46 163 68 168 z m 194 124 l 181 110 l 194 93 l 208 110 z "},"m":{"ha":1140,"x_min":0,"x_max":0,"o":"m 867 624 l 658 551 b 654 536 656 544 654 538 l 629 558 b 571 471 610 528 589 499 l 513 383 l 438 532 l 447 567 l 238 663 l 54 -3 l 274 -65 b 338 231 293 36 317 129 b 339 229 339 231 339 231 l 342 229 l 458 -21 b 543 36 483 -1 517 18 l 581 -10 b 761 332 639 100 703 218 l 960 -44 l 1139 79 z m 1054 56 l 1013 124 l 1007 124 b 1028 38 1015 96 1019 65 b 1008 28 1026 33 1014 31 l 956 100 l 950 99 b 989 11 961 71 975 38 b 972 0 983 10 978 4 b 700 529 835 265 750 435 l 744 550 l 779 486 l 785 488 l 767 553 l 775 557 l 772 557 b 783 560 772 557 776 558 l 825 496 l 832 496 l 808 572 b 853 585 829 581 842 585 b 1100 89 967 363 1046 203 z m 228 -28 b 215 -21 224 -24 219 -22 l 219 96 l 215 99 b 174 0 203 65 186 33 b 151 10 167 1 158 4 l 171 125 l 167 125 b 114 19 151 92 128 53 b 90 22 106 19 99 22 l 111 79 b 267 615 161 258 217 436 l 297 493 b 326 586 306 524 318 560 b 356 579 339 585 344 581 l 328 494 l 332 492 b 381 557 350 515 364 536 b 414 547 393 551 401 551 z m 560 85 l 515 144 l 511 142 l 533 67 b 521 56 526 65 522 60 l 465 121 l 460 117 b 490 38 471 92 479 64 b 469 22 483 33 475 24 b 346 265 431 103 386 185 l 364 289 l 401 253 l 403 256 l 376 318 b 383 347 381 329 381 338 l 440 289 l 443 293 b 396 411 431 329 408 374 b 424 494 403 442 413 465 l 593 106 z m 619 136 l 567 260 l 635 375 l 629 376 b 557 288 604 350 581 315 l 535 339 l 632 496 l 621 432 l 626 431 l 667 486 l 661 446 l 693 453 b 724 364 704 422 717 390 z m 171 215 l 175 213 b 243 426 215 261 238 332 l 239 426 z m 240 307 l 226 188 l 231 186 l 294 379 l 289 381 z m 665 335 l 599 244 l 604 243 l 678 322 z m 321 464 b 307 476 319 471 308 476 b 289 461 299 476 294 471 b 307 449 296 454 301 449 b 321 460 311 449 317 453 z m 579 39 b 567 54 574 42 572 46 l 593 72 z m 504 201 l 492 192 l 504 181 l 517 192 z m 789 467 l 778 457 l 789 446 l 800 457 z "},"n":{"ha":806,"x_min":0,"x_max":0,"o":"m 749 193 l 763 629 l 539 650 b 529 343 535 549 535 444 l 329 546 l 318 667 l 99 660 b 93 556 99 626 94 589 l 28 482 b 106 408 53 458 82 433 l 150 -3 l 183 -3 l 228 -10 b 290 -17 254 -11 274 -17 b 342 -11 311 -17 329 -14 b 332 225 338 65 338 149 l 532 31 l 536 -14 l 751 -36 b 750 88 751 3 750 47 l 803 133 z m 719 10 l 681 15 l 656 111 l 651 111 l 646 15 b 619 19 639 15 631 18 l 599 96 l 594 96 b 585 24 590 72 590 47 l 575 25 b 568 28 575 26 569 26 b 567 174 567 79 567 128 l 567 460 b 564 608 567 510 567 558 b 597 601 578 604 585 606 l 613 506 l 617 506 l 636 589 l 654 490 l 660 490 b 661 604 660 529 661 564 l 728 582 z m 263 28 l 247 111 l 242 111 l 226 50 l 214 142 l 208 142 l 194 33 b 182 32 190 33 188 32 b 138 621 169 224 151 431 b 150 625 140 625 147 622 l 175 496 l 181 496 b 196 621 186 539 192 579 b 204 619 201 621 199 619 l 218 528 l 224 528 b 238 629 225 561 232 597 b 275 625 250 629 261 626 b 306 288 293 586 306 472 l 306 28 z m 331 272 b 332 317 331 286 332 301 l 401 281 l 401 282 b 335 383 374 314 335 342 l 401 322 l 407 326 b 338 433 383 358 361 400 l 338 503 b 533 296 401 433 468 367 l 538 65 z m 64 488 b 99 517 71 494 90 510 b 100 453 99 496 100 476 z m 256 457 b 243 472 256 461 251 468 b 229 457 235 468 229 461 b 243 440 229 449 235 444 b 256 457 251 446 256 453 z m 639 156 l 626 142 l 639 129 l 651 142 z m 753 124 b 746 156 751 136 749 144 l 768 136 z "},"o":{"ha":686,"x_min":0,"x_max":0,"o":"m 685 357 b 364 667 685 540 539 667 b 46 335 168 667 46 525 b 401 -8 46 139 199 -8 b 685 357 540 -8 685 194 z m 647 374 b 411 22 647 218 542 22 b 90 364 240 22 90 178 b 393 631 90 535 208 631 b 647 374 558 631 647 538 z m 507 322 b 376 454 507 403 457 454 b 224 308 288 454 224 397 b 344 169 224 219 271 169 b 507 322 432 169 507 242 z m 468 311 b 339 210 468 250 414 210 b 263 304 279 210 263 263 b 363 426 263 354 311 426 b 468 311 421 426 468 374 z m 579 450 b 421 578 579 518 496 578 b 574 449 546 508 553 500 z m 193 164 b 136 342 168 204 149 264 l 129 342 b 126 300 128 328 126 313 b 188 161 126 240 147 194 z m 510 168 b 393 129 471 142 433 129 l 378 131 b 411 106 378 114 386 106 b 513 167 454 106 504 133 z m 218 185 b 174 354 196 218 182 274 b 161 300 167 333 161 317 b 174 236 161 293 167 272 z m 518 433 b 440 506 518 472 482 506 l 429 504 l 426 500 b 515 432 447 492 476 469 z m 513 118 b 413 81 489 101 456 89 l 413 76 b 438 75 421 76 431 75 b 515 117 475 75 514 88 z "},"p":{"ha":717,"x_min":0,"x_max":0,"o":"m 713 449 b 426 660 713 569 583 660 b 335 649 400 660 368 656 l 328 682 l 117 682 l 117 636 l 28 624 l 57 446 b 114 442 76 446 94 443 b 111 396 114 424 111 413 l 61 374 b 117 68 99 308 117 206 b 114 -12 117 42 115 11 l 364 15 b 361 240 364 92 361 164 b 713 449 556 240 713 317 z m 289 43 l 265 142 l 261 142 b 253 35 256 106 258 71 l 232 31 l 218 153 l 213 153 l 186 21 b 142 14 169 15 160 15 b 146 654 142 236 144 433 b 178 656 157 654 167 656 l 193 535 l 197 535 b 207 658 199 578 206 615 l 301 653 b 329 54 310 449 321 258 z m 667 458 b 414 282 667 344 567 282 b 356 286 396 282 375 282 b 357 372 356 317 357 344 b 399 367 368 368 381 367 b 490 449 454 367 490 397 b 401 503 490 486 460 503 b 351 500 385 503 368 500 l 351 528 l 413 546 l 413 550 l 350 557 l 350 567 l 414 597 l 414 603 b 351 596 393 597 369 597 l 351 608 b 350 617 351 610 351 614 b 408 619 368 618 385 619 b 667 458 572 619 667 560 z m 399 411 b 351 419 388 411 372 414 b 350 468 351 432 350 456 b 390 479 361 476 374 479 b 468 453 421 479 447 469 b 399 411 454 425 431 411 z m 76 481 l 57 601 l 113 607 l 113 476 z m 617 468 b 558 551 617 501 597 529 b 604 415 579 506 594 460 b 617 468 613 443 617 460 z m 563 471 b 499 557 563 511 536 544 l 496 553 b 556 436 518 526 529 522 b 563 471 560 449 563 460 z m 226 306 b 215 318 226 313 224 317 b 206 307 208 318 206 315 b 214 294 206 300 208 296 b 226 306 221 294 226 297 z m 99 361 l 110 361 l 110 332 z "},"q":{"ha":610,"x_min":0,"x_max":0,"o":"m 496 215 b 538 376 524 264 538 318 b 294 689 538 533 429 689 b 15 304 139 689 15 492 b 236 56 15 150 96 56 b 364 89 275 56 318 67 l 468 -79 l 608 53 z m 501 372 b 476 249 501 324 493 283 l 454 282 b 479 378 468 333 479 367 b 458 453 479 404 472 429 l 453 450 b 458 407 457 435 458 421 b 438 308 458 372 453 339 b 411 414 415 342 425 394 b 397 361 407 397 403 378 l 364 433 b 286 471 346 458 319 471 b 142 301 210 471 142 388 b 250 201 142 235 179 201 l 263 201 b 276 203 271 201 275 201 b 294 185 283 197 288 190 b 250 168 288 174 274 168 b 194 185 235 168 215 174 b 247 144 206 158 224 144 b 306 163 267 144 288 150 b 313 150 306 161 311 156 b 251 126 306 146 265 126 l 250 122 b 283 114 264 117 275 114 b 319 129 297 114 308 118 b 335 107 321 124 328 115 b 232 85 293 93 260 85 b 61 311 125 85 61 182 b 301 661 61 472 163 661 b 501 372 418 661 501 518 z m 551 24 l 506 90 l 503 89 b 515 4 504 61 511 35 l 471 67 l 465 67 b 493 -21 472 39 486 7 l 478 -35 b 267 290 408 75 338 178 b 275 296 269 290 275 294 l 319 264 l 321 267 b 304 307 313 281 308 294 l 315 313 b 365 265 333 294 358 265 l 368 269 b 343 326 356 293 350 308 b 369 338 351 328 358 332 b 572 47 442 236 503 149 z m 225 301 b 267 236 242 269 260 247 b 232 225 256 228 244 225 b 167 318 199 225 167 272 b 290 433 167 375 229 433 b 357 367 331 433 353 411 z m 301 583 b 250 604 297 597 281 604 b 174 544 201 604 175 583 b 282 583 207 571 242 583 z m 263 538 l 263 543 b 193 490 219 543 196 525 l 197 489 b 225 517 204 500 214 510 z m 367 242 l 354 229 l 375 215 l 388 228 z "},"r":{"ha":660,"x_min":0,"x_max":0,"o":"m 731 -31 b 493 258 629 90 550 186 b 604 461 568 290 604 358 b 358 719 604 608 506 715 l 358 750 l 149 756 l 140 710 b 22 693 110 703 71 694 l 24 490 l 126 496 l 111 392 l 28 374 l 90 192 l 65 -19 l 300 -4 l 307 117 l 569 -156 z m 269 22 l 219 32 l 213 117 l 194 21 l 161 21 l 158 139 l 136 14 l 100 10 l 175 729 l 197 726 l 213 597 l 236 722 l 269 718 l 265 575 l 290 719 l 318 719 z m 569 475 b 369 250 569 357 490 250 l 324 251 b 329 265 328 258 329 263 b 322 276 329 272 328 275 b 465 326 411 288 458 304 b 328 297 433 308 389 301 l 329 318 b 456 375 413 333 456 353 b 453 381 456 376 454 379 b 329 344 442 363 400 350 l 332 369 b 458 469 415 396 458 429 b 344 553 458 525 421 553 l 351 683 l 364 685 b 569 475 483 685 569 596 z m 658 -43 l 601 -21 l 642 -60 l 624 -76 l 569 -32 l 606 -89 l 579 -110 l 317 160 l 318 218 b 407 228 338 219 374 222 l 468 238 b 682 -26 521 181 592 94 z m 136 685 b 129 522 136 642 135 590 l 49 515 l 49 540 l 110 567 l 49 567 l 47 589 l 111 604 l 47 619 l 50 676 z m 419 468 b 329 411 419 432 389 413 l 344 515 b 419 468 393 515 419 500 z m 99 243 l 60 358 l 104 369 z m 219 344 l 213 333 l 226 319 l 238 331 z m 243 593 l 231 585 l 243 574 l 251 585 z "},"s":{"ha":483,"x_min":0,"x_max":0,"o":"m 511 596 b 368 667 479 643 432 667 b 72 389 219 667 72 536 b 110 267 72 338 85 296 b 231 169 132 242 218 194 b 206 153 222 157 217 153 b 117 193 164 179 135 192 b 26 15 114 182 44 64 b 229 -43 92 -24 158 -43 b 475 206 382 -43 475 54 b 422 294 475 244 460 276 b 275 396 335 338 275 351 b 325 443 275 426 292 443 b 414 432 344 443 389 436 b 511 593 447 496 478 549 z m 451 558 b 390 572 439 565 413 572 l 383 572 b 436 528 417 549 435 535 b 421 503 433 525 425 513 b 357 535 390 524 368 535 b 406 483 390 511 406 494 b 399 464 406 479 401 471 b 333 478 383 471 356 478 b 242 385 267 478 242 450 b 299 317 242 354 265 329 b 444 197 403 278 444 263 b 217 0 444 101 324 0 b 71 36 158 0 99 19 b 79 49 72 43 78 47 b 181 21 121 35 153 22 b 93 72 136 39 107 56 l 107 99 b 193 69 121 83 150 78 b 125 129 156 99 135 115 b 135 146 126 136 129 140 b 206 118 158 128 182 118 b 269 175 226 118 269 157 b 150 269 269 193 171 243 b 110 389 124 301 110 333 b 357 636 110 518 224 636 b 469 596 400 636 436 624 b 451 558 463 582 460 569 z m 376 181 b 325 258 376 210 365 240 b 356 182 351 235 356 203 b 329 99 356 158 354 139 b 376 181 360 121 376 147 z m 325 197 b 279 238 325 225 314 238 b 307 181 297 219 307 201 b 269 107 307 157 294 131 b 325 197 307 115 325 158 z m 213 483 b 181 401 192 472 181 444 b 194 342 181 378 185 358 b 213 483 199 418 207 464 z m 174 490 b 136 396 149 482 136 450 b 146 339 136 378 139 358 b 174 490 147 388 151 447 z "},"t":{"ha":481,"x_min":0,"x_max":0,"o":"m 458 638 l 35 585 l 25 375 l 149 392 l 149 -47 l 325 -47 l 325 408 l 476 421 z m 60 411 b 57 438 60 422 57 426 l 129 457 l 128 461 l 64 468 l 163 513 l 161 517 l 58 496 l 58 561 b 436 608 186 575 308 594 b 438 568 436 597 438 579 l 339 547 l 339 540 b 439 535 372 540 406 536 l 439 515 l 383 506 l 383 501 b 440 446 422 489 440 503 z m 268 -15 l 256 83 l 251 83 l 240 -19 b 226 -18 235 -19 232 -18 l 211 85 l 206 85 b 174 -18 203 51 200 -18 l 174 386 b 199 383 181 386 190 383 l 208 311 l 213 311 l 219 388 b 226 389 224 388 225 388 l 236 335 l 242 335 b 249 390 243 354 244 372 b 292 389 264 390 278 389 l 299 -15 z m 233 529 l 221 517 l 233 504 l 246 517 z "},"u":{"ha":664,"x_min":0,"x_max":0,"o":"m 663 624 b 654 682 663 636 658 654 l 435 661 l 435 638 b 329 186 435 326 404 186 b 253 347 278 186 253 240 b 261 578 253 389 261 536 b 257 651 261 604 258 631 l 39 631 b 40 615 40 629 40 625 l 40 483 b 35 318 40 389 35 338 b 329 -64 35 39 126 -64 b 646 333 510 -64 617 69 l 646 421 b 660 614 646 482 653 546 z m 622 579 b 588 217 622 471 611 350 b 292 -19 550 46 482 -19 b 75 383 149 -19 75 93 l 75 432 b 78 490 75 449 78 465 l 78 506 b 81 567 78 525 79 549 l 82 597 l 86 603 l 111 481 l 117 481 b 107 604 111 524 108 561 b 128 606 115 604 119 606 l 153 486 l 157 486 l 163 615 b 210 624 183 619 199 624 b 224 608 219 624 224 618 l 224 581 b 215 365 224 543 215 403 b 329 144 215 218 254 144 b 474 540 426 144 474 276 b 469 636 474 574 472 606 b 511 643 483 640 497 642 l 511 629 b 518 549 511 610 511 582 l 522 549 b 550 643 531 593 539 625 b 557 642 550 642 553 642 b 568 643 564 642 567 642 l 567 522 l 572 522 b 576 543 574 525 575 532 l 603 650 l 619 650 b 622 579 621 629 622 606 z m 404 78 b 335 67 385 69 361 67 b 268 79 311 67 289 71 b 328 50 279 60 299 50 b 407 72 360 50 386 58 z m 390 114 b 310 106 351 110 326 106 b 265 111 290 106 276 107 b 322 89 276 96 294 89 b 392 110 351 89 374 94 z "},"v":{"ha":628,"x_min":0,"x_max":0,"o":"m 449 697 l 311 376 b 174 726 253 535 207 649 l 0 636 l 175 117 l 149 24 l 243 -3 l 256 -61 l 446 24 l 401 161 b 628 626 486 332 563 479 z m 415 46 b 385 33 404 38 393 33 b 319 81 363 42 340 57 b 351 15 324 57 333 36 l 317 0 l 269 71 l 301 -8 l 286 -15 b 153 308 243 85 196 188 l 35 639 l 60 646 l 111 550 b 100 654 110 606 104 638 l 149 575 l 139 676 l 156 686 b 415 46 269 389 354 192 z m 396 196 l 332 333 l 461 661 l 490 640 l 465 572 l 514 624 l 526 610 l 522 567 l 563 606 l 572 592 z m 186 49 l 206 99 l 238 32 z m 476 496 b 464 513 476 504 471 510 b 449 496 454 513 449 507 b 464 481 449 490 454 486 b 476 496 471 481 476 486 z m 161 507 b 150 522 161 513 158 517 b 139 507 142 522 139 517 b 150 493 139 500 142 494 b 161 507 158 493 161 499 z m 301 131 b 293 144 301 138 299 142 b 282 131 285 144 282 139 b 293 121 282 125 285 122 b 301 131 299 121 301 124 z "},"w":{"ha":1103,"x_min":0,"x_max":0,"o":"m 289 -64 l 499 10 l 503 22 l 526 3 b 642 178 563 58 606 121 l 718 28 l 708 -4 l 918 -103 l 1100 563 l 882 625 b 819 331 864 528 840 426 b 813 332 818 331 818 332 l 696 581 b 614 522 671 561 639 540 l 574 571 b 396 229 515 457 454 343 l 196 604 l 15 481 z m 101 504 l 144 436 l 149 438 b 128 522 140 465 136 494 b 144 532 129 522 142 529 l 199 460 l 206 464 l 168 549 l 182 560 b 454 31 321 293 410 126 b 411 10 440 22 425 18 l 376 75 l 372 72 b 389 7 378 53 385 26 b 381 3 386 3 381 6 l 378 3 b 372 1 376 3 376 1 l 329 65 l 324 64 b 346 -11 332 39 339 13 l 304 -25 b 54 471 190 197 110 357 z m 926 589 b 939 581 932 583 938 585 l 936 465 l 940 464 l 982 560 b 1004 551 990 558 996 553 l 985 435 l 990 435 b 1042 540 1007 468 1028 507 b 1065 539 1050 540 1058 539 b 1043 482 1053 510 1049 493 b 889 -54 993 304 939 125 l 858 67 b 831 -26 851 39 838 3 b 800 -18 818 -22 811 -22 l 826 67 l 822 68 b 775 3 806 47 792 26 b 740 13 761 8 753 8 z m 597 475 l 639 415 l 643 418 l 624 493 b 636 503 625 499 629 501 l 689 440 l 694 442 b 665 522 683 468 676 494 l 686 539 b 810 294 729 457 769 376 l 794 271 l 756 307 l 753 306 l 779 242 b 772 213 775 231 776 224 l 715 271 l 711 269 l 761 149 b 731 67 753 122 742 93 l 563 454 z m 535 425 l 589 300 l 522 186 l 528 183 b 599 274 551 214 574 243 l 619 224 l 522 61 l 535 129 l 528 129 b 488 72 515 113 500 92 l 493 114 l 460 110 b 432 197 449 139 443 167 z m 985 344 l 981 347 b 913 133 940 299 917 226 l 917 133 z m 915 253 l 929 369 l 925 372 l 860 181 l 865 181 z m 489 225 l 556 315 l 551 318 l 478 238 z m 835 99 b 849 85 838 90 843 85 b 865 99 854 85 860 90 b 849 111 860 106 854 111 b 835 100 843 111 838 107 z m 650 358 l 663 369 l 650 381 l 638 369 z m 578 521 b 586 506 579 515 585 511 l 561 489 z m 367 92 l 378 104 l 367 114 l 356 104 z "},"x":{"ha":646,"x_min":0,"x_max":0,"o":"m 499 619 b 335 436 446 561 390 494 l 238 624 l 42 515 b 188 269 90 435 139 351 l 47 76 l 243 -49 b 317 71 269 -11 293 32 l 390 -37 l 540 46 b 450 225 511 103 481 167 l 643 446 z m 482 50 l 408 156 l 401 151 l 460 35 l 453 26 l 389 94 l 385 92 l 429 10 b 410 -4 422 4 415 -3 l 76 504 b 99 514 83 510 90 510 l 163 429 l 168 432 b 125 525 156 461 139 493 b 140 535 131 529 135 529 l 214 453 l 218 453 l 174 558 l 221 581 l 496 60 z m 433 258 b 347 407 401 315 378 361 b 493 563 397 458 444 507 l 510 544 l 450 446 l 454 443 l 528 518 l 544 503 l 472 408 l 478 404 b 567 478 504 429 536 454 b 592 446 574 467 583 458 z m 229 -3 l 196 21 l 213 85 l 208 88 b 171 42 196 75 183 56 l 150 57 l 174 113 l 172 115 l 121 67 b 92 90 113 75 100 82 l 207 235 b 294 101 238 190 264 146 z m 319 281 l 307 269 l 319 256 l 332 269 z "},"y":{"ha":632,"x_min":0,"x_max":0,"o":"m 421 642 b 317 443 388 574 350 507 l 140 639 l -15 456 b 193 218 54 379 124 294 l 94 28 l 282 -87 l 631 528 z m 271 -37 b 214 -10 251 -26 232 -21 l 261 79 l 256 81 b 190 8 236 57 210 32 b 181 15 185 10 185 11 l 242 140 l 238 142 l 158 33 b 142 44 151 35 147 39 b 438 597 243 236 338 407 b 490 572 457 590 471 581 l 440 460 l 446 458 b 522 547 471 490 496 517 l 540 538 l 494 438 l 500 435 b 569 525 521 465 549 494 b 594 515 578 521 586 521 z m 300 413 b 208 254 251 331 219 274 b 42 454 153 322 96 386 b 67 489 47 465 58 478 l 163 411 l 168 414 l 89 515 l 104 533 l 186 453 l 192 454 b 126 558 168 488 147 525 b 144 579 131 563 139 571 z m 332 276 l 319 264 l 332 251 l 344 264 z "},"z":{"ha":717,"x_min":0,"x_max":0,"o":"m 483 615 l 47 629 l 26 407 b 333 397 128 401 232 401 l 131 196 l 10 183 l 18 -35 l 122 -39 l 193 -104 b 269 -26 217 -81 243 -50 l 681 18 l 681 28 b 693 164 681 58 693 142 b 688 208 693 185 692 199 b 453 199 613 204 528 204 b 647 399 515 264 583 335 l 692 401 l 713 618 b 589 617 681 618 625 617 l 544 671 z m 667 585 l 661 547 l 567 524 l 567 518 b 661 511 597 514 629 515 b 658 488 661 506 660 499 l 581 467 l 581 461 b 653 453 604 457 629 457 l 650 443 b 568 432 650 435 608 432 b 501 433 539 432 511 433 l 215 433 b 68 432 168 433 118 433 b 76 465 72 444 71 453 l 171 479 l 171 483 b 85 501 144 490 113 494 l 186 522 l 186 526 b 72 528 147 526 113 528 l 93 593 z m 649 128 l 567 114 l 567 110 b 626 93 585 104 607 100 l 535 81 l 535 76 l 643 61 b 646 49 643 57 646 56 b 56 4 454 36 247 19 b 53 18 53 8 56 13 l 181 43 l 181 47 b 56 64 138 54 99 58 l 56 67 b 57 69 57 67 57 68 l 149 85 l 149 90 b 47 104 117 92 79 100 b 53 142 47 117 50 128 b 436 172 96 167 226 172 l 649 172 z m 404 197 b 358 199 390 197 374 199 l 397 269 l 393 269 b 322 203 369 249 346 224 l 294 203 l 354 269 l 351 274 b 243 203 318 250 276 226 b 174 204 218 203 197 204 b 381 400 243 269 310 335 l 613 404 z m 190 -69 l 160 -35 b 225 -33 181 -35 201 -33 z m 219 124 b 204 110 214 124 208 118 b 219 96 208 101 215 96 b 238 110 225 96 231 101 b 219 124 232 118 226 124 z m 522 504 l 535 492 l 547 504 l 535 517 z m 553 618 b 522 613 540 617 533 614 b 540 636 529 619 533 628 z "},"{":{"ha":649,"x_min":0,"x_max":0,"o":"m 613 751 l 569 968 b 456 971 526 968 489 971 b 213 750 275 971 213 876 b 240 613 213 721 240 669 b 83 500 240 524 169 501 l 92 328 b 125 324 101 326 113 324 l 122 304 b 265 190 201 293 265 265 b 221 42 265 128 225 72 b 219 3 219 26 219 15 b 553 -215 219 -193 399 -201 l 619 -4 b 422 133 563 11 422 36 b 454 306 422 183 454 249 b 393 410 454 351 429 385 b 414 478 407 429 414 450 b 401 624 414 526 401 581 b 613 751 401 732 544 732 z m 363 624 b 375 478 363 571 375 518 b 142 364 375 385 244 364 l 131 364 l 129 385 l 217 422 l 128 403 l 126 431 l 192 458 l 125 449 l 125 461 b 281 613 210 471 281 510 b 251 750 281 663 251 706 b 456 932 251 854 306 932 b 536 928 479 932 504 928 l 539 906 l 374 872 l 547 867 l 551 842 l 443 815 b 558 813 515 815 536 815 l 564 783 b 363 624 483 769 363 744 z m 525 -172 b 260 13 367 -172 260 -118 b 307 193 260 36 307 115 b 203 328 307 265 263 306 b 367 379 264 332 326 347 b 414 306 396 363 414 338 b 385 133 414 244 385 186 b 568 -31 385 25 492 -11 l 558 -58 l 453 -28 l 549 -92 l 538 -128 l 456 -101 l 529 -156 z "},"|":{"ha":461,"x_min":0,"x_max":0,"o":"m 156 967 l 124 -204 l 344 -179 l 344 946 z m 294 -135 l 283 -82 l 278 -82 b 253 -139 272 -104 281 -139 l 231 -44 l 226 -44 b 217 -147 225 -78 218 -114 b 168 -161 197 -149 185 -157 b 188 924 172 14 183 749 l 193 924 l 213 843 l 217 843 l 229 918 b 240 917 235 918 236 917 l 250 851 l 254 849 b 288 921 261 869 268 921 b 300 922 293 921 297 921 l 300 393 b 301 -61 300 197 301 46 l 301 -133 z "},"}":{"ha":649,"x_min":0,"x_max":0,"o":"m 111 -156 l 185 -101 l 103 -128 l 92 -92 l 188 -28 l 82 -58 l 72 -31 b 256 133 149 -11 256 25 b 226 306 256 186 226 244 b 274 379 226 338 244 363 b 438 328 315 347 376 332 b 333 193 378 306 333 265 b 381 13 333 115 381 36 b 115 -172 381 -118 274 -172 z m 278 624 b 76 783 278 744 157 769 l 82 813 b 197 815 104 815 125 815 l 89 842 l 93 867 l 267 872 l 101 906 l 104 928 b 185 932 136 928 161 932 b 389 750 335 932 389 854 b 361 613 389 706 361 663 b 515 461 361 510 431 471 l 515 449 l 449 458 l 514 431 l 513 403 l 424 422 l 511 385 l 510 364 l 499 364 b 265 478 396 364 265 385 b 278 624 265 518 278 571 z m 28 751 b 239 624 96 732 239 732 b 226 478 239 581 226 526 b 247 410 226 450 235 429 b 186 306 213 385 186 351 b 218 133 186 249 218 183 b 21 -4 218 36 78 11 l 88 -215 b 421 3 242 -201 421 -193 b 419 42 421 15 421 26 b 375 190 415 72 375 128 b 518 304 375 265 440 293 l 515 324 b 549 328 528 324 539 326 l 557 500 b 400 613 471 501 400 524 b 429 750 400 669 429 721 b 185 971 429 876 365 971 b 71 968 151 971 114 968 z "},"~":{"ha":914,"x_min":0,"x_max":0,"o":"m 203 199 b 368 338 243 242 296 338 b 658 249 433 338 574 249 b 882 481 743 249 813 347 l 732 568 b 614 467 703 511 664 467 b 272 585 521 467 415 585 b 31 338 164 585 124 518 z m 368 378 b 196 256 293 378 235 307 l 172 275 b 224 379 181 296 190 315 l 150 294 l 129 310 l 206 467 l 100 335 l 81 347 b 276 544 149 490 193 544 b 615 425 399 544 506 425 b 749 514 671 425 713 464 l 758 507 l 719 454 l 775 499 l 799 483 l 740 414 l 814 472 l 832 464 l 826 453 b 656 289 788 376 724 289 b 368 378 581 289 456 378 z "},"":{"ha":357,"x_min":0,"x_max":0,"o":""},"":{"ha":421,"x_min":0,"x_max":0,"o":"m 99 -24 l 383 22 l 329 556 l 93 544 z m 133 501 l 181 369 l 172 503 l 194 507 l 224 375 l 235 514 l 294 514 l 344 60 l 269 46 l 238 182 l 225 36 l 199 39 l 179 171 l 160 28 l 122 32 l 122 501 z m 81 710 b 208 567 81 628 128 567 b 338 710 289 567 338 628 b 208 854 338 790 289 854 b 81 710 128 854 81 790 z m 124 700 b 193 808 124 744 160 808 b 226 792 204 808 215 803 l 217 707 l 260 781 l 263 763 b 256 721 261 749 256 733 b 261 704 256 713 258 708 b 282 764 275 718 282 738 b 304 708 296 746 304 728 b 231 614 304 635 282 614 b 124 700 175 614 124 649 z "},"":{"ha":635,"x_min":0,"x_max":0,"o":"m 578 158 b 460 293 578 169 489 267 b 410 228 444 261 426 239 l 410 511 b 460 486 425 506 442 496 b 486 658 460 551 469 610 b 410 693 458 672 435 683 l 410 831 l 225 847 l 219 693 b 36 365 107 647 36 515 b 199 68 36 226 96 117 l 194 -79 l 410 -60 l 410 49 b 578 158 515 71 578 110 z m 538 146 b 368 69 507 104 424 69 b 79 364 193 69 79 185 b 313 689 79 528 178 689 b 453 638 361 689 404 672 b 444 636 450 636 447 636 b 379 649 432 636 393 649 l 374 649 b 365 647 369 649 368 649 b 442 583 390 629 415 608 b 354 610 425 586 376 610 b 335 607 353 610 346 608 b 433 538 363 596 408 553 b 372 547 411 544 390 547 b 236 399 282 547 236 492 b 374 186 236 300 297 186 b 460 238 401 186 432 204 l 460 235 b 381 146 460 199 421 158 l 407 144 b 490 174 429 143 450 161 b 440 104 471 139 456 117 b 533 147 468 117 536 146 z m 368 217 b 272 410 310 226 272 333 b 356 522 272 483 300 522 l 367 522 b 368 217 367 329 368 271 z m 258 814 l 263 814 l 281 750 l 285 750 l 297 810 b 308 808 301 810 304 808 l 318 756 l 322 756 b 354 811 331 774 333 811 b 367 813 358 811 364 811 l 367 704 b 308 710 346 707 328 710 b 253 704 289 710 271 707 z m 285 -35 b 238 -46 267 -36 254 -42 b 240 53 238 -18 239 14 b 294 42 258 47 275 44 b 285 -35 290 15 286 -10 z m 361 -24 l 350 18 l 344 18 b 335 -26 340 3 340 -12 l 321 -26 l 300 42 b 332 39 310 39 321 39 b 368 42 343 39 356 39 l 368 -24 z m 238 164 b 161 275 206 188 181 225 l 158 258 b 232 163 158 221 199 163 z m 261 193 b 201 297 238 207 226 231 b 197 272 199 290 197 285 b 251 192 197 242 224 192 b 261 193 256 192 260 192 z m 294 126 b 308 114 294 121 299 114 b 324 126 318 114 324 121 b 308 139 324 133 318 139 b 294 126 299 139 294 133 z m 272 610 b 285 597 272 604 278 597 b 297 610 290 597 297 604 b 285 624 297 617 290 624 b 272 610 278 624 272 617 z "},"":{"ha":840,"x_min":0,"x_max":0,"o":"m 68 469 l 121 299 l 146 299 b 142 249 144 282 142 264 b 26 256 104 250 57 253 l 19 -22 b 142 -25 60 -22 101 -24 l 142 -53 l 447 -53 l 443 -21 b 806 7 564 -15 685 -8 l 826 250 b 438 240 719 243 610 240 l 443 299 l 592 299 l 621 467 l 488 467 b 615 563 503 543 557 563 b 700 551 643 563 674 557 b 753 861 719 635 739 735 b 560 869 713 861 593 869 b 175 468 376 869 244 732 z m 769 32 b 264 7 547 14 379 7 b 79 11 243 7 135 11 l 54 11 l 153 39 l 53 50 l 169 65 l 61 85 l 65 208 b 468 199 192 201 331 199 b 774 203 571 199 675 201 l 768 65 l 599 65 z m 243 574 b 533 826 308 743 404 826 b 711 818 593 826 660 822 b 703 767 706 803 703 790 b 556 754 621 765 572 763 b 693 729 608 754 654 746 b 683 672 688 704 683 683 b 660 674 675 672 667 674 b 571 653 635 674 604 667 l 604 653 b 678 631 653 653 678 646 b 672 590 678 624 674 608 b 614 596 650 593 631 596 b 447 467 486 596 456 501 l 208 468 b 243 574 218 504 229 539 z m 572 411 l 411 404 l 564 392 l 568 376 l 447 374 l 564 354 l 563 326 l 139 326 l 135 358 l 235 365 l 129 374 l 124 393 b 308 408 217 393 265 399 l 118 408 l 107 438 b 578 442 228 443 438 442 z m 390 240 b 174 247 319 242 247 243 b 179 299 174 264 178 282 l 397 299 b 390 240 393 281 392 260 z m 351 597 b 356 583 351 593 353 589 b 472 715 372 621 411 665 b 351 597 429 715 351 642 z m 418 549 b 424 533 418 543 419 538 b 524 635 436 564 444 571 l 517 635 b 418 549 483 635 418 586 z m 258 117 b 283 94 258 104 269 94 b 308 117 297 94 308 104 b 283 140 308 129 297 140 b 258 117 269 140 258 129 z m 339 381 b 353 364 339 369 344 364 b 367 381 361 364 367 369 b 353 400 367 392 361 400 b 339 381 344 400 339 392 z "},"":{"ha":871,"x_min":0,"x_max":0,"o":"m 50 529 l 156 449 b 149 376 150 425 149 401 l 149 351 l 44 285 l 199 54 l 289 118 b 465 71 339 89 399 71 b 586 124 506 71 549 92 l 653 60 l 829 311 l 715 397 b 711 431 715 408 713 419 l 822 533 l 699 744 l 564 642 b 431 672 524 661 478 672 b 351 663 401 672 376 669 l 240 732 z m 674 410 b 471 101 674 267 582 101 b 194 400 324 101 194 238 b 457 636 194 550 297 636 b 674 410 597 636 674 553 z m 556 365 b 442 479 556 435 511 479 b 308 353 365 479 308 431 b 414 229 308 274 350 229 b 556 365 489 229 556 294 z m 521 354 b 415 265 521 301 478 269 l 344 329 b 343 347 343 335 343 342 b 429 457 343 392 386 457 b 521 354 479 457 521 410 z m 686 661 l 761 557 l 692 510 b 613 610 674 550 647 585 z m 103 267 l 157 304 b 214 185 167 260 186 219 l 171 167 z m 743 236 l 683 260 b 708 339 694 285 704 311 l 779 296 z m 229 686 l 297 642 b 235 597 274 631 253 615 l 182 640 z m 161 615 l 219 583 b 188 536 207 569 197 553 l 135 585 z m 283 226 b 235 381 261 261 244 313 l 229 381 b 226 344 228 368 226 356 b 281 224 226 293 243 251 z m 613 476 b 479 589 613 536 546 589 b 613 476 582 531 594 521 z m 556 228 b 457 194 524 206 490 194 l 443 196 b 471 174 443 182 449 174 b 558 228 507 174 551 197 z m 306 243 b 267 392 289 272 274 321 b 256 344 260 375 256 358 b 306 243 256 339 263 275 z m 561 460 l 561 464 b 494 525 561 499 532 525 l 486 525 b 561 460 503 514 526 493 z m 779 533 l 706 471 l 697 494 z m 558 185 b 472 151 538 171 510 160 l 472 149 b 494 147 479 149 488 147 b 561 183 525 147 560 158 z m 168 490 l 100 549 l 178 514 z m 411 386 b 424 369 411 376 418 369 b 436 386 431 369 436 376 b 424 401 436 396 431 401 b 411 386 418 401 411 396 z m 263 138 l 208 101 l 247 150 z m 647 121 l 614 150 b 631 172 619 158 626 164 z m 692 199 l 658 210 b 671 232 663 217 665 225 z m 236 161 l 183 131 l 226 171 z "},"":{"ha":628,"x_min":0,"x_max":0,"o":"m 604 478 l 469 478 l 647 861 l 483 951 l 346 632 l 210 982 l 35 890 l 186 478 l 78 483 l 78 313 l 193 313 l 185 281 l 215 271 l 213 225 l 71 225 l 71 79 l 207 72 l 207 -46 l 442 -15 l 442 88 l 604 88 l 604 235 l 442 235 l 442 263 l 481 281 l 476 294 l 607 306 z m 453 300 b 421 288 442 293 431 288 b 354 338 397 297 375 313 b 386 272 358 313 369 290 l 351 256 l 304 326 b 339 249 321 288 331 261 l 321 240 b 188 564 278 338 231 443 l 69 894 l 96 901 l 146 807 l 136 911 l 185 832 l 174 933 l 192 943 b 453 300 338 581 421 375 z m 431 453 l 367 590 l 496 917 l 526 894 l 501 826 l 549 878 l 561 865 l 525 753 l 592 856 l 608 847 z m 392 31 l 379 94 l 369 26 l 344 24 l 319 142 l 308 15 l 254 -1 l 254 258 l 278 251 l 290 193 l 407 244 l 407 33 z m 446 115 l 446 213 l 585 213 l 585 122 z m 481 331 l 446 401 l 465 453 l 575 453 l 579 421 l 483 408 l 579 392 l 575 335 z m 193 339 l 103 335 l 103 453 l 193 449 l 229 392 z m 92 100 l 94 149 l 194 171 l 99 178 l 99 197 l 213 197 l 206 99 z m 221 306 l 240 353 l 272 288 z "},"":{"ha":461,"x_min":0,"x_max":0,"o":"m 171 957 l 140 414 l 342 433 l 342 943 z m 296 467 l 286 506 l 282 506 b 260 464 276 489 283 464 l 239 535 l 235 535 b 226 457 235 510 228 482 b 182 447 208 456 197 450 b 201 925 186 614 194 758 l 204 925 l 221 865 l 226 865 l 238 922 b 249 921 242 922 243 921 l 256 871 l 261 869 b 290 924 265 883 275 924 l 301 924 b 304 468 301 767 304 625 z m 171 338 l 140 -206 l 342 -186 l 342 322 z m 296 -153 l 286 -114 l 282 -114 b 260 -157 276 -129 282 -157 l 239 -85 l 235 -85 b 226 -162 235 -111 228 -137 b 182 -172 208 -164 197 -169 b 201 306 186 -7 194 139 l 204 306 l 221 244 l 226 244 l 238 301 b 249 300 242 301 243 300 l 256 251 l 261 250 b 290 304 265 265 275 304 l 301 304 b 304 -151 301 147 304 4 z "},"":{"ha":513,"x_min":0,"x_max":0,"o":"m 350 -58 b 469 158 425 -12 469 75 b 442 265 469 196 461 232 l 438 269 b 478 386 464 300 478 340 b 414 500 478 436 468 481 b 265 563 282 528 265 531 b 379 617 265 621 317 603 b 433 763 396 669 414 719 b 342 797 407 786 376 797 b 106 558 214 797 106 674 b 117 490 106 535 110 506 b 38 342 67 450 38 399 b 149 186 38 286 65 186 b 201 193 169 186 186 192 b 250 188 217 190 235 188 b 289 192 263 188 275 190 b 311 153 300 186 311 164 b 219 89 311 114 258 111 b 221 21 219 65 221 42 b 218 -68 221 -11 219 -39 b 271 -81 236 -78 253 -81 b 350 -58 296 -81 322 -72 z m 299 774 b 331 776 310 776 319 776 b 414 756 358 776 388 768 l 399 718 b 351 726 379 722 364 726 b 342 724 346 726 344 724 b 390 696 374 715 388 706 l 379 667 b 329 685 351 678 338 685 b 372 656 358 674 372 663 b 364 629 372 651 368 642 b 340 643 363 639 353 643 b 250 571 281 643 250 610 b 308 500 250 528 264 508 b 456 397 415 481 456 488 b 253 218 456 294 347 218 b 175 224 228 218 201 218 l 160 226 l 168 247 b 236 239 188 239 214 239 b 171 261 203 244 183 251 l 181 293 b 250 282 199 286 218 282 b 188 315 221 293 201 306 l 199 338 b 249 322 218 328 235 322 b 304 375 263 322 304 343 b 188 432 304 389 214 408 b 128 561 151 465 128 504 b 299 774 128 656 206 753 z m 369 213 b 367 215 368 213 368 214 b 396 229 378 218 386 224 b 414 158 408 204 414 181 b 419 178 415 164 419 169 b 399 232 419 192 413 210 b 422 251 408 239 415 244 b 447 156 438 221 447 188 b 260 -58 447 43 369 -58 b 235 -57 251 -58 242 -58 l 236 -14 b 290 -4 263 -14 281 -10 b 235 8 258 -3 239 0 l 236 38 b 265 36 247 36 258 36 b 289 38 276 36 286 36 b 238 53 260 38 243 44 l 238 81 b 253 72 240 75 247 72 b 331 147 293 72 331 121 b 315 194 331 161 326 178 b 313 196 313 194 315 196 b 361 213 331 201 346 206 b 381 144 374 182 381 158 b 386 161 385 150 386 156 b 369 213 386 175 381 192 z m 135 285 b 151 269 139 278 144 274 b 138 208 144 244 139 221 l 149 204 b 65 318 100 204 65 256 b 133 460 65 372 92 424 b 228 397 151 426 167 424 b 208 346 218 386 208 363 b 181 364 194 351 183 357 l 171 332 b 169 353 169 340 169 344 l 169 372 b 167 346 168 365 167 356 b 169 321 167 339 167 329 l 153 276 l 142 289 b 129 350 133 307 133 329 b 124 322 125 342 124 332 b 135 285 124 311 128 299 z m 283 367 b 269 343 283 358 276 347 b 225 361 244 344 225 346 b 236 381 225 368 228 378 l 247 388 b 283 367 263 379 275 374 z m 392 400 b 350 447 388 421 375 436 b 385 386 374 429 385 407 b 378 340 385 372 381 356 b 393 381 388 351 393 365 b 392 400 393 388 393 393 z m 350 407 b 315 431 343 426 332 431 l 313 429 b 343 375 333 418 343 400 b 329 332 343 361 339 344 b 350 407 346 346 350 379 z "},"":{"ha":503,"x_min":0,"x_max":0,"o":"m 26 972 b 138 857 26 904 75 857 b 250 946 190 857 236 893 b 356 869 264 897 307 869 b 471 990 419 869 471 922 b 356 1110 471 1058 418 1110 b 247 1019 300 1110 260 1072 b 138 1097 228 1064 186 1097 b 26 972 75 1097 26 1042 z m 272 989 b 356 1075 272 1038 310 1075 b 442 992 401 1075 442 1040 b 356 906 442 943 401 906 b 272 989 310 906 272 939 z m 56 974 b 138 1063 56 1024 93 1063 b 225 978 186 1063 225 1028 b 138 893 225 928 186 893 b 56 974 93 893 56 928 z "},"":{"ha":875,"x_min":0,"x_max":0,"o":"m 836 446 b 436 831 836 672 663 831 b 43 419 201 831 43 654 b 483 -7 43 181 238 -7 b 836 446 657 -7 836 242 z m 794 467 b 496 25 794 258 660 25 b 92 454 274 25 92 231 b 475 794 92 669 247 794 b 794 467 678 794 794 671 z m 629 607 b 567 656 610 628 590 646 l 567 658 b 436 703 521 688 478 703 b 300 625 381 703 338 676 b 192 393 228 568 192 490 b 408 118 192 229 308 118 b 693 421 613 118 693 285 b 629 607 693 500 672 561 z m 547 183 b 479 164 522 171 500 164 b 276 410 351 164 276 264 b 440 681 276 543 344 681 b 535 639 469 681 501 665 b 481 649 533 639 501 649 l 471 649 b 525 597 494 631 507 615 b 458 615 513 599 483 615 l 450 615 b 518 560 483 596 506 571 b 482 567 510 564 496 567 b 383 440 415 567 383 524 b 483 260 383 351 429 260 b 543 297 504 260 525 272 b 488 228 540 274 513 240 l 489 225 b 499 224 490 225 496 224 b 560 243 518 224 535 226 b 518 190 547 218 533 197 l 521 186 b 561 206 522 186 550 194 l 592 221 b 547 183 582 207 568 194 z m 663 399 b 615 263 663 346 647 300 b 540 353 592 296 560 333 b 483 288 525 310 506 288 b 413 447 450 288 413 386 b 469 539 413 510 432 539 b 547 507 488 539 514 528 b 553 610 547 546 549 581 b 663 399 626 556 663 483 z m 225 381 b 250 493 225 419 232 457 b 242 411 244 464 242 436 b 329 181 242 315 274 224 l 313 182 b 225 381 254 240 225 307 z m 389 240 b 333 339 369 256 351 289 l 331 338 l 326 319 b 383 238 326 288 361 238 z m 403 269 b 364 357 386 282 385 288 b 356 332 358 350 356 340 b 396 263 356 300 378 263 b 403 264 400 263 401 263 z "},"":{"ha":589,"x_min":0,"x_max":0,"o":"m 571 243 b 547 425 563 267 558 385 b 488 421 539 421 536 421 b 390 617 444 522 413 586 l 400 649 b 429 731 410 681 422 711 l 399 724 b 251 801 358 764 306 794 b 264 785 264 790 264 789 b 179 731 264 753 215 731 b 199 650 179 699 199 663 b 121 415 199 636 136 425 b 39 363 64 392 39 419 b 57 238 39 306 46 263 b 88 179 57 232 88 203 b 118 186 101 185 113 186 b 207 157 136 186 179 164 b 239 238 219 188 232 218 l 244 251 b 385 265 283 251 328 256 b 415 174 404 231 415 201 l 429 186 b 533 235 444 200 506 233 b 551 231 538 235 546 231 z m 358 646 b 186 203 256 386 203 242 b 181 207 185 203 182 206 l 188 288 l 182 288 l 151 243 b 157 296 156 263 157 282 l 157 307 l 147 310 l 107 235 b 96 238 104 235 100 238 b 296 750 207 540 243 643 l 297 750 b 276 699 286 728 283 713 l 272 692 l 282 686 b 318 739 293 704 307 721 b 338 731 321 738 331 732 b 315 678 328 713 318 694 l 321 674 b 369 711 335 689 353 703 b 376 692 374 706 376 697 z m 513 265 b 475 307 504 272 493 283 l 475 271 l 422 300 l 453 247 b 333 478 414 258 333 436 b 378 579 333 499 351 536 l 517 269 z m 369 297 b 258 286 328 288 293 286 b 296 374 264 308 276 338 l 297 374 b 332 369 308 374 332 372 b 310 356 332 364 324 358 l 310 344 l 343 335 l 338 333 b 285 319 322 332 307 328 l 369 304 z m 517 342 l 504 389 l 521 389 z m 88 322 b 81 364 88 335 85 332 l 100 364 z m 228 681 b 218 703 225 686 219 694 l 243 710 z m 300 407 l 310 433 l 321 401 z m 449 347 b 435 365 449 354 444 361 b 418 347 424 365 418 361 b 432 331 418 339 422 333 b 449 347 443 331 449 335 z m 199 339 b 185 356 199 346 194 351 b 169 339 174 356 169 351 b 182 321 169 331 174 326 b 199 339 193 321 199 326 z m 310 639 b 297 654 310 646 307 650 b 283 639 289 654 283 649 b 294 624 283 632 288 628 b 310 639 306 624 310 629 z "},"":{"ha":708,"x_min":0,"x_max":0,"o":"m 367 597 b 225 678 329 640 275 667 l 149 599 b 179 533 156 574 164 551 l 42 385 b 35 347 36 374 35 361 b 53 294 35 331 42 311 l 282 138 l 403 150 l 326 265 l 181 358 l 181 369 l 258 443 b 310 404 276 431 290 418 l 307 401 b 294 358 299 388 294 374 b 307 313 294 343 299 328 l 517 133 l 642 133 l 578 254 l 440 364 l 442 374 l 526 438 b 592 385 547 419 564 399 l 685 449 b 686 464 686 453 686 457 l 686 478 b 517 675 686 571 603 650 l 433 606 b 457 535 438 579 449 553 l 414 496 l 414 499 b 367 597 410 536 390 568 z m 418 386 l 375 386 l 414 374 l 410 363 l 553 231 l 610 153 l 525 160 l 333 326 b 326 364 329 342 326 354 b 333 399 326 372 329 383 l 472 511 b 510 456 481 492 494 468 l 476 438 l 464 456 l 458 418 z m 156 379 l 113 375 l 151 367 l 149 354 l 307 239 l 369 168 l 286 168 l 79 310 b 67 353 71 324 67 339 b 71 383 67 364 68 375 l 197 510 b 238 458 206 492 224 471 l 207 438 l 193 453 l 193 414 z m 375 529 b 381 503 379 522 381 514 b 372 478 381 493 378 486 l 350 471 b 226 618 278 510 226 582 b 238 646 226 629 229 638 b 363 558 289 632 339 592 z m 642 540 b 654 490 647 524 654 507 b 643 460 654 478 651 468 l 621 458 b 514 610 558 501 514 572 b 526 642 514 624 518 635 b 642 540 579 624 621 578 z m 490 610 b 618 442 503 540 568 488 l 586 422 b 467 594 532 460 481 524 z m 203 610 b 350 456 228 540 288 499 l 319 433 b 182 592 261 465 203 522 z "},"":{"ha":838,"x_min":0,"x_max":0,"o":"m 586 754 l 582 676 l 511 676 b 38 693 357 676 203 682 l 31 414 b 232 411 99 413 164 411 b 571 421 346 411 460 414 l 554 26 l 776 51 l 776 438 l 815 443 l 838 686 l 776 682 l 776 733 z m 275 443 b 90 447 254 443 146 447 l 65 447 l 164 476 l 64 488 l 181 501 l 72 522 l 76 646 l 581 632 l 572 453 b 275 443 450 446 350 443 z m 656 561 b 671 544 656 550 660 544 b 686 561 682 544 686 550 b 671 576 686 572 682 576 b 656 561 660 576 656 572 z m 779 626 l 779 501 l 776 501 l 776 626 z m 781 468 b 776 467 779 468 778 467 l 776 468 z m 725 96 l 714 149 l 710 149 b 685 92 703 126 710 92 l 663 186 l 657 186 b 647 83 656 153 650 117 b 599 69 629 82 617 74 l 619 711 l 624 711 l 643 631 l 647 631 l 661 707 b 672 704 665 707 667 704 l 681 639 l 686 636 b 719 708 692 657 700 708 b 732 710 724 708 729 708 b 733 97 732 499 733 308 z "},"":{"ha":853,"x_min":0,"x_max":0,"o":"m 853 446 b 453 831 853 708 694 831 b 60 419 215 831 60 654 b 501 -7 60 181 254 -7 b 853 446 669 -7 853 239 z m 710 421 b 465 689 710 586 597 682 l 465 713 l 318 713 l 311 682 b 231 669 290 676 264 674 l 231 528 l 238 528 b 207 393 217 489 207 444 b 263 201 207 315 226 250 l 240 381 b 243 419 240 393 242 404 l 276 319 l 260 174 l 282 174 b 424 118 321 138 368 118 b 546 146 464 118 504 128 l 610 78 l 721 161 b 514 25 664 71 594 25 b 110 454 288 25 110 231 b 490 794 110 669 263 794 b 811 467 694 794 811 671 b 722 164 811 365 781 264 b 656 243 699 194 676 219 b 710 421 693 293 710 351 z m 401 201 l 367 207 l 363 267 l 350 199 l 324 199 l 324 283 l 308 196 l 283 193 l 338 694 l 351 693 l 363 604 l 378 692 l 400 686 l 400 589 l 415 689 l 435 689 z m 610 517 b 461 361 610 429 557 361 l 440 363 l 443 372 b 440 379 443 375 442 378 b 539 414 501 386 535 397 b 443 393 518 403 488 396 l 443 408 b 532 447 501 419 532 433 b 529 453 532 449 532 450 b 443 426 521 440 492 432 l 446 444 b 535 514 504 461 535 486 b 454 572 535 553 507 572 l 458 663 l 468 664 b 610 517 557 664 610 606 z m 674 156 l 632 172 l 661 142 l 649 133 l 610 164 l 636 124 l 617 111 l 435 297 l 435 339 b 528 350 456 339 507 344 l 540 351 b 689 168 578 313 626 251 z m 681 399 b 636 269 681 344 665 301 b 558 367 606 307 579 338 b 636 510 610 390 636 438 b 631 547 636 522 635 535 b 681 399 664 504 681 456 z m 308 664 b 304 550 308 635 308 596 l 249 547 l 249 563 l 289 582 l 249 582 l 247 597 l 290 607 l 247 618 l 250 660 z m 404 169 b 354 182 388 169 367 178 l 424 182 l 429 269 l 504 186 b 404 169 476 175 443 169 z m 506 513 b 443 472 506 488 486 475 l 454 547 b 506 513 489 547 506 536 z m 250 450 b 286 533 258 478 269 503 l 301 535 l 290 460 z m 282 357 l 256 436 l 288 444 z m 367 426 l 363 419 l 372 410 l 378 415 z m 383 601 l 378 594 l 383 586 l 389 594 z "},"":{"ha":671,"x_min":0,"x_max":0,"o":"m 660 926 b 614 1082 660 985 646 1040 l 507 1076 b 479 1007 490 1053 481 1029 l 122 996 l 18 946 l 99 890 l 471 890 b 489 806 475 836 482 819 l 601 800 b 660 926 638 836 660 878 z m 578 835 b 547 926 550 869 547 899 b 599 1050 547 1000 563 1046 b 629 938 621 1017 629 975 b 578 835 629 899 617 844 z m 67 943 l 129 974 l 478 978 b 468 911 471 957 469 935 l 433 917 l 433 939 l 408 911 l 118 911 z m 551 1049 b 529 954 536 1018 529 986 b 547 833 529 913 533 875 l 507 835 b 494 926 499 861 494 897 b 526 1049 494 968 504 1011 z "},"":{"ha":503,"x_min":0,"x_max":0,"o":"m 460 614 b 250 815 460 732 364 815 b 43 599 122 815 43 722 b 275 375 43 471 142 375 b 460 614 365 375 460 507 z m 426 624 b 282 401 426 525 358 401 b 79 617 172 401 79 500 b 269 785 79 724 153 785 b 426 624 372 785 426 726 z m 346 590 b 258 681 346 646 313 681 b 157 582 199 681 157 640 b 238 489 157 522 188 489 b 346 590 296 489 346 538 z m 313 583 b 235 524 313 546 282 524 b 190 579 199 524 190 558 b 249 654 190 610 218 654 b 313 583 285 654 313 621 z m 392 671 b 285 757 392 718 338 757 b 392 671 317 729 364 713 z m 147 489 b 110 607 129 514 115 553 b 94 578 96 597 94 590 b 147 489 94 536 110 506 z m 344 496 b 256 472 318 478 294 472 b 282 447 256 456 263 447 b 350 489 308 447 344 467 z m 153 500 b 133 614 147 525 138 560 b 122 575 124 599 122 586 b 153 500 122 551 136 529 z m 353 647 b 288 711 351 689 321 711 b 353 647 300 696 328 669 z m 356 465 b 275 438 339 453 307 444 b 299 426 282 432 286 426 b 356 465 322 426 351 438 z "},"":{"ha":690,"x_min":0,"x_max":0,"o":"m 426 500 l 342 704 l 132 661 l 179 501 l 17 511 l 11 294 l 263 294 l 299 97 l 524 176 l 483 300 l 618 318 l 635 506 z m 590 338 b 200 318 419 324 289 318 b 57 321 183 318 100 321 l 38 321 l 114 343 l 38 351 l 126 363 l 43 379 l 47 474 l 590 460 l 590 361 l 458 361 z m 208 503 l 171 651 l 233 547 l 208 658 l 240 665 l 299 547 l 264 672 l 314 681 l 388 494 z m 435 167 l 388 233 l 386 167 l 350 215 l 322 136 l 297 292 l 439 300 l 485 188 z m 319 422 l 307 407 l 319 396 l 331 407 z m 610 88 b 378 82 533 83 456 82 b 40 92 268 82 158 85 l 36 -81 b 179 -82 83 -81 131 -82 b 593 -62 319 -82 458 -76 z m 568 -47 b 210 -62 411 -57 292 -62 b 78 -60 194 -62 118 -60 l 60 -60 l 131 -42 l 60 -35 l 142 -26 l 65 -14 l 68 63 l 568 50 l 568 -26 l 447 -26 z m 313 6 b 322 -4 313 -1 315 -4 b 333 6 331 -4 333 -1 b 322 15 333 13 331 15 b 313 6 315 15 313 13 z "},"":{"ha":506,"x_min":0,"x_max":0,"o":"m 506 781 b 293 979 506 901 415 979 b 49 821 178 979 79 910 l 171 724 b 267 813 208 783 240 813 b 313 781 285 813 307 808 b 251 681 313 751 296 719 b 57 508 215 650 82 550 l 47 508 b 7 511 26 508 14 510 l 31 340 l 461 340 l 453 514 b 350 513 418 513 385 513 l 311 513 b 404 582 331 532 363 551 b 506 781 475 633 506 689 z m 472 768 b 407 621 472 707 449 657 l 407 622 l 356 588 b 210 410 247 514 210 486 b 214 381 210 399 213 388 l 161 385 l 175 476 l 169 478 b 142 388 156 438 146 404 l 117 393 b 133 478 122 429 126 456 l 126 482 l 117 456 b 82 390 101 414 103 390 l 81 421 b 147 568 78 482 110 525 l 210 610 b 353 776 306 674 353 701 b 282 844 353 818 322 844 b 163 757 231 844 185 810 b 136 794 144 769 136 782 b 171 844 136 810 150 826 l 168 850 l 111 813 l 104 819 l 161 882 l 160 886 b 101 849 133 872 114 860 b 286 953 139 913 208 953 b 472 768 399 953 472 876 z m 429 388 l 418 388 b 243 385 357 386 300 385 l 243 408 b 264 483 243 433 250 461 b 410 482 306 483 368 483 l 328 464 l 328 457 b 410 447 354 453 383 451 l 307 419 l 307 414 b 425 415 347 414 386 415 z m 426 817 b 294 919 424 872 354 919 l 293 913 b 421 815 368 883 403 854 z m 54 475 b 43 399 50 443 49 418 l 36 478 z m 381 796 b 301 864 381 835 347 864 b 344 831 318 854 322 850 z m 144 465 l 133 454 l 144 443 l 156 454 z "},"":{"ha":469,"x_min":0,"x_max":0,"o":"m 469 590 b 367 742 469 658 436 711 b 383 769 369 750 378 761 l 413 774 l 418 958 l 42 985 l 14 772 l 168 765 l 79 628 b 258 568 157 600 218 579 b 217 531 253 542 238 531 b 129 569 203 531 172 543 b 32 450 82 510 46 468 l 33 450 l 21 436 b 238 340 163 343 168 340 b 469 590 358 340 469 471 z m 442 589 b 240 369 442 475 344 369 b 65 450 193 369 101 415 l 83 468 b 175 419 96 450 146 422 l 128 464 b 96 490 115 474 104 482 l 103 499 b 192 464 115 479 133 476 l 193 471 b 124 519 188 471 136 501 b 135 532 129 521 131 522 b 217 503 158 513 186 503 b 290 581 265 503 290 531 b 275 603 290 590 288 596 l 285 617 l 313 588 b 329 532 318 576 326 553 b 342 569 338 547 342 558 b 301 636 342 586 335 600 b 319 658 308 643 317 653 b 396 590 339 654 367 628 b 332 679 390 635 369 661 b 353 715 340 696 344 699 b 442 589 408 693 442 650 z m 389 893 l 321 888 l 321 882 l 388 872 l 385 856 l 293 840 l 375 821 l 379 796 l 49 796 l 43 822 l 135 843 l 58 865 l 140 882 l 140 888 l 50 900 l 58 946 l 396 936 z m 240 611 l 208 622 l 251 682 l 247 685 l 190 631 b 183 636 186 632 186 635 l 215 714 l 214 717 l 140 653 b 128 654 138 653 131 653 l 206 768 l 347 768 z m 271 874 l 256 863 l 271 849 l 285 863 z m 242 722 l 231 706 l 243 689 l 254 706 z "},"":{"ha":469,"x_min":0,"x_max":0,"o":"m 411 1057 b 281 1151 378 1103 329 1139 l 199 1082 b 219 1008 201 1051 213 1026 l 72 872 l 22 768 l 121 775 l 288 910 l 318 881 b 353 856 326 869 339 864 l 443 921 b 446 949 444 932 446 940 b 411 1057 446 986 432 1024 z m 401 1015 b 414 963 408 996 414 981 b 403 933 414 950 411 940 l 383 929 b 275 1086 324 972 275 1050 b 288 1117 275 1097 281 1108 b 401 1015 340 1099 383 1053 z m 64 796 l 93 860 l 238 985 b 271 926 244 964 258 946 l 239 910 l 226 926 l 224 889 l 124 806 z m 251 1086 b 379 914 264 1013 328 958 l 347 894 b 231 1071 293 932 242 994 z "},"":{"ha":693,"x_min":0,"x_max":0,"o":"m 683 682 l 464 661 l 464 638 b 358 186 464 326 433 186 b 282 347 307 186 282 240 b 290 578 282 417 290 540 b 286 651 290 604 288 631 l 68 631 l 39 -242 l 282 -212 l 282 -58 b 358 -64 306 -62 331 -64 b 675 333 539 -64 646 69 l 675 421 b 686 625 675 494 686 560 b 683 682 686 644 686 663 z m 419 114 b 339 106 381 110 356 106 b 294 111 319 106 306 107 b 351 89 306 96 324 89 b 421 110 381 89 403 94 z m 433 78 b 364 67 414 69 390 67 b 297 79 340 67 318 71 b 357 50 308 60 328 50 b 436 72 389 50 415 58 z m 226 -169 l 214 -110 l 203 -174 l 179 -175 l 154 -67 l 143 -183 l 82 -199 l 107 525 b 110 575 107 543 110 561 l 110 597 l 115 603 l 140 481 l 144 482 b 136 604 139 525 138 561 b 157 606 144 604 149 606 l 182 486 l 186 486 l 192 615 b 239 624 213 619 228 624 b 253 608 249 624 253 618 l 253 581 b 244 365 253 543 244 403 b 358 144 244 218 283 144 b 503 540 456 144 503 276 b 499 636 503 574 501 606 b 540 643 513 640 526 642 l 540 629 b 547 549 540 610 540 582 l 551 549 b 579 643 560 593 568 625 b 586 642 579 642 582 642 b 597 643 593 642 596 642 l 596 522 l 601 522 b 606 543 603 525 604 532 l 632 650 l 649 650 b 651 579 650 629 651 606 b 617 217 651 471 640 350 b 321 -19 579 46 511 -19 b 239 -3 290 -19 263 -14 l 239 -168 z "},"":{"ha":718,"x_min":0,"x_max":0,"o":"m 501 381 b 510 369 501 374 506 369 b 518 383 515 374 518 378 b 510 393 518 390 515 393 b 501 381 506 390 501 386 z m 610 396 l 610 453 l 626 453 z m 183 590 b 188 556 183 579 183 567 b 240 693 217 660 214 658 b 183 590 208 681 183 635 z m 131 585 b 140 532 131 572 133 556 b 178 682 149 583 161 632 b 131 585 146 658 131 626 z m 606 592 l 606 763 l 664 754 l 646 597 z m 267 564 b 343 603 289 590 314 603 b 386 585 360 603 375 596 l 385 521 b 336 510 367 513 351 510 b 267 564 301 510 279 528 z m 78 572 b 328 778 78 706 183 778 b 386 775 349 778 368 776 b 383 761 385 768 383 764 b 386 740 383 754 385 749 l 324 750 l 386 710 l 386 693 l 324 685 l 385 663 l 382 624 l 333 625 b 251 561 279 626 251 603 b 336 461 251 500 288 461 b 378 471 353 461 367 465 l 379 356 b 321 350 361 351 342 350 b 78 572 178 350 78 433 z m 397 -26 l 426 819 l 521 825 l 531 667 l 544 824 l 579 822 l 579 -75 l 532 -67 l 507 100 l 493 -56 l 469 -51 l 461 88 l 438 -40 z m 39 561 b 375 306 39 401 179 306 l 369 -67 l 601 -103 b 599 -6 600 -72 599 -42 b 653 465 599 168 619 385 l 607 490 l 604 556 l 660 560 l 686 775 l 603 792 l 603 849 l 404 849 l 400 808 b 308 819 368 815 339 819 b 39 561 161 819 39 708 z "},"":{"ha":410,"x_min":0,"x_max":0,"o":"m 339 374 b 188 533 339 460 276 533 b 69 401 113 533 69 478 b 218 243 69 313 129 243 b 339 374 294 243 339 297 z m 311 383 b 210 269 311 331 265 269 b 168 288 194 269 181 275 l 147 357 b 138 326 140 350 138 339 l 138 319 b 104 414 115 344 104 376 b 193 483 104 460 144 483 b 311 383 254 483 311 444 z "},"":{"ha":358,"x_min":0,"x_max":0,"o":"m 181 -139 b 178 -172 179 -150 178 -161 b 297 -344 178 -258 238 -310 l 376 -289 b 369 -232 376 -269 375 -247 l 489 -146 b 503 -110 496 -135 501 -124 l 503 -87 b 496 -65 503 -79 501 -72 l 403 47 l 290 67 l 339 -44 l 376 -99 l 375 -107 l 318 -137 b 267 -92 300 -118 290 -106 z m 396 -118 l 431 -122 l 399 -107 l 401 -99 l 357 -28 l 335 33 l 392 24 l 468 -75 b 471 -103 469 -85 471 -92 b 461 -136 471 -111 468 -122 l 361 -203 b 338 -153 356 -183 344 -171 l 364 -140 l 372 -156 l 379 -125 z m 236 -150 b 308 -282 278 -190 308 -249 b 296 -312 308 -294 308 -307 b 206 -181 236 -283 206 -215 b 218 -150 206 -169 210 -158 z m 329 -290 b 239 -136 321 -228 278 -186 l 267 -124 b 350 -281 307 -161 344 -217 z "},"":{"ha":226,"x_min":0,"x_max":0,"o":"m 54 976 l 28 342 l 219 364 l 219 958 z m 178 406 l 160 450 l 153 403 l 142 400 l 117 483 l 107 394 l 65 382 l 85 936 l 110 865 l 121 932 l 128 931 l 142 874 l 158 931 l 182 936 l 182 407 z "},"":{"ha":613,"x_min":0,"x_max":0,"o":"m 563 560 b 300 813 563 708 443 813 b 42 543 140 813 42 696 b 331 263 42 383 167 263 b 563 560 444 263 563 426 z m 522 572 b 339 296 522 449 436 296 b 88 564 204 296 88 418 b 324 774 88 697 179 774 b 522 572 453 774 522 700 z m 421 532 b 310 642 421 599 378 642 b 183 521 238 642 183 593 b 285 403 183 446 224 403 b 421 532 357 403 421 465 z m 379 524 b 281 447 379 476 339 447 b 225 517 238 447 225 490 b 299 610 225 556 261 610 b 379 524 343 610 379 569 z m 478 631 b 343 740 478 689 408 740 b 478 631 383 704 442 685 z m 171 403 b 124 551 150 436 133 486 b 106 514 107 540 106 529 b 171 403 106 464 124 425 z m 418 414 b 307 385 385 390 354 385 b 339 353 307 363 315 353 b 424 404 374 353 418 376 z m 181 418 b 153 560 171 449 160 493 b 139 513 142 543 139 526 b 181 418 139 482 158 456 z m 429 601 b 347 682 426 654 396 682 b 429 601 364 663 397 629 z m 432 375 b 332 342 411 358 369 347 b 361 328 339 332 344 328 b 432 375 390 328 425 340 z "},"":{"ha":708,"x_min":0,"x_max":0,"o":"m 357 213 b 500 131 396 169 449 142 l 575 210 b 546 276 569 238 557 260 l 682 425 b 688 461 686 436 688 449 b 672 515 688 481 683 499 l 443 672 l 319 660 l 397 544 l 544 450 l 544 440 l 465 367 l 414 404 l 418 408 b 429 450 425 419 429 433 b 418 496 429 468 425 482 l 206 676 l 82 676 l 147 556 l 283 446 l 282 436 l 197 372 b 131 425 174 390 161 411 l 39 361 b 36 332 38 350 36 340 b 206 135 36 242 124 156 l 289 204 b 267 275 288 231 275 256 l 310 313 l 310 311 b 357 213 315 274 332 242 z m 307 424 l 350 424 l 310 436 l 313 447 l 171 579 l 114 656 l 199 650 l 389 483 b 399 446 396 471 399 458 b 389 411 399 435 396 424 l 250 299 b 215 354 242 318 228 342 l 249 372 l 261 354 l 264 392 z m 569 431 l 610 435 l 572 443 l 574 456 l 418 571 l 353 642 l 438 642 l 646 500 b 658 457 653 486 658 471 b 653 426 658 444 656 435 l 614 385 l 526 300 b 486 351 518 318 500 339 l 515 372 l 532 357 l 532 396 z m 350 281 b 343 307 344 288 343 296 b 351 332 343 315 346 324 l 375 339 b 496 192 443 300 496 228 b 488 164 496 181 493 172 b 363 251 432 178 386 218 z m 82 269 b 68 319 78 286 68 301 b 79 350 68 332 71 342 l 103 351 b 210 199 163 308 210 238 b 197 168 210 186 206 175 b 82 269 146 186 103 232 z m 522 199 b 375 354 496 269 431 311 l 403 376 b 540 218 461 344 522 288 z m 235 199 b 104 368 215 271 160 319 l 136 388 b 256 215 193 350 243 286 z "},"":{"ha":1088,"x_min":0,"x_max":0,"o":"m 111 976 l 85 342 l 276 364 l 276 958 z m 235 406 l 217 450 l 210 403 l 199 400 l 174 483 l 164 394 l 122 382 l 142 936 l 167 865 l 178 932 l 185 931 l 199 874 l 215 931 l 239 936 l 239 407 z m 771 889 l 18 -8 l 206 -126 l 907 754 z m 194 -60 l 218 -12 l 214 -10 b 172 -46 200 -19 188 -36 b 158 -37 169 -43 163 -42 l 201 50 l 199 54 b 125 -21 176 28 147 3 b 79 -1 110 -11 96 -10 b 771 833 190 131 658 703 l 774 832 l 739 756 l 742 753 l 799 806 b 807 797 804 801 804 800 l 774 739 l 776 733 b 833 775 793 744 815 764 b 857 763 851 765 850 765 l 528 350 b 201 -64 374 157 268 18 z m 1058 253 b 993 251 1038 253 1014 251 l 1001 467 b 876 440 960 458 918 447 l 810 494 l 531 183 l 569 140 l 576 3 l 799 43 l 807 -150 l 986 -140 l 986 82 l 1089 89 z m 661 101 b 640 122 657 104 646 115 l 707 181 b 625 140 678 172 650 156 l 642 188 l 594 156 b 569 183 588 167 578 174 l 813 457 l 843 429 l 775 364 b 856 410 801 376 831 392 b 869 400 863 407 864 403 l 832 350 l 896 381 l 915 365 z m 606 39 b 599 117 604 65 600 92 l 661 65 l 799 199 l 1040 218 l 1046 203 l 979 172 b 1060 149 1007 165 1053 179 l 979 133 l 1038 122 z m 957 -104 l 910 -104 l 896 -14 l 885 -106 b 872 -107 881 -107 875 -107 l 857 -42 l 844 -107 l 831 -104 l 821 46 l 957 78 z m 964 247 l 831 232 l 957 368 l 901 419 l 971 431 z m 919 179 l 910 182 l 900 174 l 915 147 l 922 144 l 933 153 z m 810 335 l 797 339 b 786 328 790 339 786 333 l 796 317 l 808 315 b 819 326 818 315 819 317 z "},"":{"ha":1085,"x_min":0,"x_max":0,"o":"m 144 976 l 118 342 l 310 364 l 310 958 z m 268 406 l 250 450 l 243 403 l 232 400 l 207 483 l 197 394 l 156 382 l 175 936 l 200 865 l 211 932 l 218 931 l 232 874 l 249 931 l 272 936 l 272 407 z m 771 889 l 18 -8 l 206 -126 l 907 754 z m 194 -60 l 218 -12 l 214 -10 b 172 -46 200 -19 188 -36 b 158 -37 169 -43 163 -42 l 201 50 l 199 54 b 125 -21 176 28 147 3 b 79 -1 110 -11 96 -10 b 771 833 190 131 658 703 l 774 832 l 739 756 l 742 753 l 799 806 b 807 797 804 801 804 800 l 774 739 l 776 733 b 833 775 793 744 815 764 b 857 763 851 765 850 765 l 528 350 b 201 -64 374 157 268 18 z m 1085 306 b 872 504 1085 426 994 504 b 628 346 757 504 658 435 l 750 249 b 846 338 788 308 819 338 b 892 306 864 338 886 333 b 831 206 892 276 875 244 b 636 33 794 175 661 75 l 626 33 b 586 36 606 33 593 35 l 610 -135 l 1040 -135 l 1032 39 b 929 38 997 38 964 38 l 890 38 b 983 107 910 57 942 76 b 1085 306 1054 158 1085 214 z m 1051 293 b 986 146 1051 232 1028 182 l 986 147 l 935 113 b 789 -65 826 39 789 11 b 793 -94 789 -76 792 -87 l 740 -90 l 754 1 l 749 3 b 721 -87 735 -37 725 -71 l 696 -82 b 713 3 701 -46 706 -19 l 706 7 l 696 -19 b 661 -85 681 -61 682 -85 l 660 -54 b 726 93 657 7 689 50 l 789 135 b 932 301 885 199 932 226 b 861 369 932 343 901 369 b 742 282 810 369 764 335 b 715 319 724 294 715 307 b 750 369 715 335 729 351 l 747 375 l 690 338 l 683 344 l 740 407 l 739 411 b 681 374 713 397 693 385 b 865 478 718 438 788 478 b 1051 293 978 478 1051 401 z m 1008 -87 l 997 -87 b 822 -90 936 -89 879 -90 l 822 -67 b 843 8 822 -42 829 -14 b 989 7 885 8 947 8 l 907 -11 l 907 -18 b 989 -28 933 -22 963 -24 l 886 -56 l 886 -61 b 1004 -60 926 -61 965 -60 z m 1006 342 b 874 444 1003 397 933 444 l 872 438 b 1000 340 947 408 982 379 z m 633 0 b 622 -76 629 -32 628 -57 l 615 3 z m 960 321 b 881 389 960 360 926 389 b 924 356 897 379 901 375 z m 724 -10 l 713 -21 l 724 -32 l 735 -21 z "},"":{"ha":1189,"x_min":0,"x_max":0,"o":"m 472 590 b 369 742 472 658 439 711 b 386 769 372 750 381 761 l 415 774 l 421 958 l 44 985 l 17 772 l 171 765 l 82 628 b 261 568 160 600 221 579 b 219 531 256 542 240 531 b 132 569 206 531 175 543 b 35 450 85 510 49 468 l 36 450 l 24 436 b 240 340 165 343 171 340 b 472 590 361 340 472 471 z m 444 589 b 243 369 444 475 347 369 b 68 450 196 369 104 415 l 86 468 b 178 419 99 450 149 422 l 131 464 b 99 490 118 474 107 482 l 106 499 b 194 464 118 479 136 476 l 196 471 b 126 519 190 471 139 501 b 138 532 132 521 133 522 b 219 503 161 513 189 503 b 293 581 268 503 293 531 b 278 603 293 590 290 596 l 288 617 l 315 588 b 332 532 321 576 329 553 b 344 569 340 547 344 558 b 304 636 344 586 338 600 b 322 658 311 643 319 653 b 399 590 342 654 369 628 b 335 679 393 635 372 661 b 356 715 343 696 347 699 b 444 589 411 693 444 650 z m 392 893 l 324 888 l 324 882 l 390 872 l 388 856 l 296 840 l 378 821 l 382 796 l 51 796 l 46 822 l 138 843 l 61 865 l 143 882 l 143 888 l 53 900 l 61 946 l 399 936 z m 243 611 l 211 622 l 254 682 l 250 685 l 193 631 b 186 636 189 632 189 635 l 218 714 l 217 717 l 143 653 b 131 654 140 653 133 653 l 208 768 l 350 768 z m 274 874 l 258 863 l 274 849 l 288 863 z m 244 722 l 233 706 l 246 689 l 257 706 z m 860 889 l 107 -8 l 294 -126 l 996 754 z m 283 -60 l 307 -12 l 303 -10 b 261 -46 289 -19 276 -36 b 247 -37 258 -43 251 -42 l 290 50 l 288 54 b 214 -21 265 28 236 3 b 168 -1 199 -11 185 -10 b 860 833 279 131 747 703 l 863 832 l 828 756 l 831 753 l 888 806 b 896 797 893 801 893 800 l 863 739 l 865 733 b 922 775 882 744 904 764 b 946 763 940 765 939 765 l 617 350 b 290 -64 463 157 357 18 z m 1160 253 b 1094 251 1139 253 1115 251 l 1103 467 b 978 440 1061 458 1019 447 l 911 494 l 632 183 l 671 140 l 678 3 l 900 43 l 908 -150 l 1088 -140 l 1088 82 l 1190 89 z m 763 101 b 742 122 758 104 747 115 l 808 181 b 726 140 779 172 751 156 l 743 188 l 696 156 b 671 183 689 167 679 174 l 914 457 l 944 429 l 876 364 b 957 410 903 376 932 392 b 971 400 964 407 965 403 l 933 350 l 997 381 l 1017 365 z m 707 39 b 700 117 706 65 701 92 l 763 65 l 900 199 l 1142 218 l 1147 203 l 1081 172 b 1161 149 1108 165 1154 179 l 1081 133 l 1139 122 z m 1058 -104 l 1011 -104 l 997 -14 l 986 -106 b 974 -107 982 -107 976 -107 l 958 -42 l 946 -107 l 932 -104 l 922 46 l 1058 78 z m 1065 247 l 932 232 l 1058 368 l 1003 419 l 1072 431 z m 1021 179 l 1011 182 l 1001 174 l 1017 147 l 1024 144 l 1035 153 z m 911 335 l 899 339 b 888 328 892 339 888 333 l 897 317 l 910 315 b 921 326 919 315 921 317 z "},"":{"ha":640,"x_min":0,"x_max":0,"o":"m 225 731 b 264 629 225 693 238 660 l 231 629 l 231 575 b 169 446 231 489 206 469 b 39 199 64 396 39 308 b 300 -47 39 46 150 -47 b 601 147 444 -47 563 33 l 454 265 b 332 158 408 194 367 158 b 275 183 315 158 293 169 b 392 364 281 267 363 344 b 475 618 439 396 474 469 b 453 619 469 618 460 619 b 478 704 469 643 478 671 b 339 854 478 788 422 854 b 225 731 264 854 225 806 z m 78 215 b 161 397 78 292 93 351 b 269 579 242 451 269 471 b 267 603 269 586 267 596 l 335 596 b 318 478 328 540 324 507 l 322 478 b 356 590 342 529 351 571 l 356 592 l 389 586 b 372 476 381 535 378 500 l 376 476 b 433 590 403 547 401 590 l 433 561 b 338 365 433 479 408 415 b 229 201 265 315 229 260 b 317 117 229 150 264 117 b 465 229 378 117 432 164 l 503 190 b 454 115 492 167 478 142 l 458 111 l 528 161 b 538 149 533 156 533 153 l 465 67 b 547 121 510 92 529 106 b 310 -19 499 32 411 -19 b 78 215 171 -19 78 79 z m 254 721 b 346 825 254 767 296 825 b 385 810 361 825 374 821 l 383 810 l 403 742 b 415 776 411 750 415 763 b 442 693 433 756 442 729 b 363 631 442 653 407 631 b 254 721 306 631 254 665 z m 136 153 b 299 25 136 83 226 25 l 300 31 b 140 156 232 49 168 92 z m 194 172 b 278 92 194 126 232 92 l 290 93 l 290 99 b 199 174 261 106 229 115 z m 354 494 l 368 510 l 356 522 l 344 510 z "},"":{"ha":860,"x_min":0,"x_max":0,"o":"m 825 306 l 733 306 l 572 619 l 624 768 l 418 889 l 388 821 l 269 775 l 311 660 l 172 288 l 46 269 l 85 -14 l 294 -90 b 356 56 324 -25 342 22 b 579 79 411 56 486 64 l 647 -37 l 838 42 l 818 114 z m 572 732 b 272 -42 393 272 293 18 l 250 -28 l 264 99 l 201 -1 b 214 88 208 22 214 50 l 214 129 l 153 11 l 118 19 l 269 432 b 433 838 321 585 378 717 l 454 826 b 411 729 435 783 419 750 l 472 818 l 515 797 b 476 717 496 769 482 743 b 558 776 504 744 532 765 b 572 732 568 765 572 750 z m 781 60 b 729 110 764 68 746 85 l 728 92 b 735 60 728 88 731 76 l 658 104 l 697 28 b 492 400 632 28 492 318 b 557 582 492 436 514 499 l 794 79 z m 563 111 b 372 92 492 99 426 92 b 433 244 383 131 403 183 l 440 244 b 503 231 465 244 503 236 b 468 203 503 218 492 208 b 539 174 501 194 525 185 l 454 157 b 563 136 503 146 539 140 z m 106 113 l 96 231 l 149 238 z m 794 142 l 754 269 l 800 269 z m 333 696 l 308 756 l 374 778 z m 436 283 l 465 346 l 493 269 z m 672 197 b 654 217 672 207 665 214 b 639 197 643 217 639 210 b 654 179 639 188 643 182 b 672 197 665 179 672 185 z m 281 183 b 265 201 281 190 275 196 b 250 183 254 201 250 194 b 265 164 250 174 254 168 b 281 183 275 164 281 171 z m 454 653 b 442 667 454 660 449 664 b 429 653 433 667 429 663 b 442 638 429 646 433 640 b 454 653 449 638 454 642 z m 336 1267 b 178 1033 232 1250 178 1129 l 268 978 b 328 1022 293 990 314 1008 l 504 925 l 614 910 l 576 1001 l 399 1121 b 428 1199 410 1147 421 1168 z m 265 1196 b 322 1228 282 1208 297 1228 l 329 1228 b 340 1224 329 1228 333 1226 l 349 1204 b 225 1047 328 1129 265 1047 b 206 1051 217 1047 211 1049 b 265 1196 206 1107 235 1164 z m 576 938 l 507 947 l 346 1046 b 388 1097 365 1061 381 1079 l 417 1078 l 403 1054 l 439 1064 l 550 994 z m 246 1028 b 364 1207 308 1067 340 1136 l 393 1183 b 269 1013 374 1118 333 1049 z "},"":{"ha":860,"x_min":0,"x_max":0,"o":"m 825 306 l 733 306 l 572 619 l 624 768 l 418 889 l 388 821 l 269 775 l 311 660 l 172 288 l 46 269 l 85 -14 l 294 -90 b 356 56 324 -25 342 22 b 579 79 411 56 486 64 l 647 -37 l 838 42 l 818 114 z m 572 732 b 272 -42 393 272 293 18 l 250 -28 l 264 99 l 201 -1 b 214 88 208 22 214 50 l 214 129 l 153 11 l 118 19 l 269 432 b 433 838 321 585 378 717 l 454 826 b 411 729 435 783 419 750 l 472 818 l 515 797 b 476 717 496 769 482 743 b 558 776 504 744 532 765 b 572 732 568 765 572 750 z m 781 60 b 729 110 764 68 746 85 l 728 92 b 735 60 728 88 731 76 l 658 104 l 697 28 b 492 400 632 28 492 318 b 557 582 492 436 514 499 l 794 79 z m 563 111 b 372 92 492 99 426 92 b 433 244 383 131 403 183 l 440 244 b 503 231 465 244 503 236 b 468 203 503 218 492 208 b 539 174 501 194 525 185 l 454 157 b 563 136 503 146 539 140 z m 106 113 l 96 231 l 149 238 z m 794 142 l 754 269 l 800 269 z m 333 696 l 308 756 l 374 778 z m 436 283 l 465 346 l 493 269 z m 672 197 b 654 217 672 207 665 214 b 639 197 643 217 639 210 b 654 179 639 188 643 182 b 672 197 665 179 672 185 z m 281 183 b 265 201 281 190 275 196 b 250 183 254 201 250 194 b 265 164 250 174 254 168 b 281 183 275 164 281 171 z m 454 653 b 442 667 454 660 449 664 b 429 653 433 667 429 663 b 442 638 429 646 433 640 b 454 653 449 638 454 642 z m 640 1178 b 510 1272 607 1224 558 1260 l 428 1203 b 449 1129 431 1172 442 1147 l 301 993 l 251 889 l 350 896 l 517 1031 l 547 1001 b 582 976 556 990 568 985 l 672 1042 b 675 1069 674 1053 675 1061 b 640 1178 675 1107 661 1144 z m 631 1136 b 643 1083 638 1117 643 1101 b 632 1054 643 1071 640 1061 l 613 1050 b 504 1207 553 1093 504 1171 b 517 1238 504 1218 510 1229 b 631 1136 569 1219 613 1174 z m 293 917 l 322 981 l 467 1106 b 500 1047 474 1085 488 1067 l 468 1031 l 456 1047 l 453 1010 l 353 926 z m 481 1207 b 608 1035 493 1133 557 1079 l 576 1015 b 460 1192 522 1053 471 1115 z "},"":{"ha":860,"x_min":0,"x_max":0,"o":"m 825 306 l 733 306 l 572 619 l 624 768 l 418 889 l 388 821 l 269 775 l 311 660 l 172 288 l 46 269 l 85 -14 l 294 -90 b 356 56 324 -25 342 22 b 579 79 411 56 486 64 l 647 -37 l 838 42 l 818 114 z m 572 732 b 272 -42 393 272 293 18 l 250 -28 l 264 99 l 201 -1 b 214 88 208 22 214 50 l 214 129 l 153 11 l 118 19 l 269 432 b 433 838 321 585 378 717 l 454 826 b 411 729 435 783 419 750 l 472 818 l 515 797 b 476 717 496 769 482 743 b 558 776 504 744 532 765 b 572 732 568 765 572 750 z m 781 60 b 729 110 764 68 746 85 l 728 92 b 735 60 728 88 731 76 l 658 104 l 697 28 b 492 400 632 28 492 318 b 557 582 492 436 514 499 l 794 79 z m 563 111 b 372 92 492 99 426 92 b 433 244 383 131 403 183 l 440 244 b 503 231 465 244 503 236 b 468 203 503 218 492 208 b 539 174 501 194 525 185 l 454 157 b 563 136 503 146 539 140 z m 106 113 l 96 231 l 149 238 z m 794 142 l 754 269 l 800 269 z m 333 696 l 308 756 l 374 778 z m 436 283 l 465 346 l 493 269 z m 672 197 b 654 217 672 207 665 214 b 639 197 643 217 639 210 b 654 179 639 188 643 182 b 672 197 665 179 672 185 z m 281 183 b 265 201 281 190 275 196 b 250 183 254 201 250 194 b 265 164 250 174 254 168 b 281 183 275 164 281 171 z m 454 653 b 442 667 454 660 449 664 b 429 653 433 667 429 663 b 442 638 429 646 433 640 b 454 653 449 638 454 642 z m 694 901 b 788 1036 738 935 774 986 l 718 1119 b 647 1097 689 1114 667 1106 l 514 1247 b 472 1258 500 1256 486 1258 b 425 1247 454 1258 439 1256 l 246 1036 l 246 913 l 365 976 l 475 1113 l 486 1111 l 550 1028 b 497 961 532 1004 511 992 l 563 869 b 589 867 574 868 581 867 b 694 901 626 867 661 882 z m 499 1135 l 499 1179 l 486 1140 l 474 1143 l 342 1000 l 265 943 l 271 1028 l 438 1219 b 475 1228 450 1225 463 1228 b 511 1219 488 1228 497 1225 l 550 1175 l 624 1079 b 568 1044 603 1072 586 1063 l 550 1078 l 568 1090 l 531 1094 z m 654 913 b 601 897 635 906 619 897 b 574 908 590 897 581 901 l 569 933 b 724 1040 615 992 681 1040 b 753 1028 735 1040 746 1036 b 654 913 735 975 690 931 z m 724 1064 b 554 935 653 1044 603 990 l 535 965 b 707 1086 571 1022 633 1074 z "},"":{"ha":860,"x_min":0,"x_max":0,"o":"m 825 306 l 733 306 l 572 619 l 624 768 l 418 889 l 388 821 l 269 775 l 311 660 l 172 288 l 46 269 l 85 -14 l 294 -90 b 356 56 324 -25 342 22 b 579 79 411 56 486 64 l 647 -37 l 838 42 l 818 114 z m 572 732 b 272 -42 393 272 293 18 l 250 -28 l 264 99 l 201 -1 b 214 88 208 22 214 50 l 214 129 l 153 11 l 118 19 l 269 432 b 433 838 321 585 378 717 l 454 826 b 411 729 435 783 419 750 l 472 818 l 515 797 b 476 717 496 769 482 743 b 558 776 504 744 532 765 b 572 732 568 765 572 750 z m 781 60 b 729 110 764 68 746 85 l 728 92 b 735 60 728 88 731 76 l 658 104 l 697 28 b 492 400 632 28 492 318 b 557 582 492 436 514 499 l 794 79 z m 563 111 b 372 92 492 99 426 92 b 433 244 383 131 403 183 l 440 244 b 503 231 465 244 503 236 b 468 203 503 218 492 208 b 539 174 501 194 525 185 l 454 157 b 563 136 503 146 539 140 z m 106 113 l 96 231 l 149 238 z m 794 142 l 754 269 l 800 269 z m 333 696 l 308 756 l 374 778 z m 436 283 l 465 346 l 493 269 z m 672 197 b 654 217 672 207 665 214 b 639 197 643 217 639 210 b 654 179 639 188 643 182 b 672 197 665 179 672 185 z m 281 183 b 265 201 281 190 275 196 b 250 183 254 201 250 194 b 265 164 250 174 254 168 b 281 183 275 164 281 171 z m 454 653 b 442 667 454 660 449 664 b 429 653 433 667 429 663 b 442 638 429 646 433 640 b 454 653 449 638 454 642 z m 772 1192 l 685 1168 l 596 1090 l 533 1188 b 490 1204 519 1199 504 1204 b 453 1196 483 1204 471 1200 l 350 1124 b 278 1175 331 1147 311 1175 l 197 1136 b 192 1094 193 1128 192 1114 b 306 900 192 1014 236 933 l 406 946 b 407 967 406 953 407 960 b 394 1024 407 981 401 1000 l 476 1074 l 546 979 b 582 968 554 971 565 968 b 642 981 601 968 624 975 l 761 1086 z m 751 1161 l 739 1094 l 629 1001 b 590 994 615 997 603 994 b 546 1010 572 994 560 997 l 497 1092 l 489 1149 l 467 1096 l 394 1046 l 385 1090 l 367 1114 l 457 1172 b 486 1181 465 1176 475 1181 b 522 1165 497 1181 510 1175 l 585 1072 l 600 1026 l 614 1069 l 697 1150 z m 225 1040 b 217 1089 224 1056 217 1074 b 229 1124 217 1100 221 1117 l 254 1124 b 342 964 300 1078 342 1006 b 324 925 342 947 335 935 b 225 1040 275 951 238 1004 z m 363 953 b 258 1139 356 1028 307 1089 l 293 1154 b 388 968 342 1111 386 1044 z "},"":{"ha":860,"x_min":0,"x_max":0,"o":"m 825 306 l 733 306 l 572 619 l 624 768 l 418 889 l 388 821 l 269 775 l 311 660 l 172 288 l 46 269 l 85 -14 l 294 -90 b 356 56 324 -25 342 22 b 579 79 411 56 486 64 l 647 -37 l 838 42 l 818 114 z m 572 732 b 272 -42 393 272 293 18 l 250 -28 l 264 99 l 201 -1 b 214 88 208 22 214 50 l 214 129 l 153 11 l 118 19 l 269 432 b 433 838 321 585 378 717 l 454 826 b 411 729 435 783 419 750 l 472 818 l 515 797 b 476 717 496 769 482 743 b 558 776 504 744 532 765 b 572 732 568 765 572 750 z m 781 60 b 729 110 764 68 746 85 l 728 92 b 735 60 728 88 731 76 l 658 104 l 697 28 b 492 400 632 28 492 318 b 557 582 492 436 514 499 l 794 79 z m 563 111 b 372 92 492 99 426 92 b 433 244 383 131 403 183 l 440 244 b 503 231 465 244 503 236 b 468 203 503 218 492 208 b 539 174 501 194 525 185 l 454 157 b 563 136 503 146 539 140 z m 106 113 l 96 231 l 149 238 z m 794 142 l 754 269 l 800 269 z m 333 696 l 308 756 l 374 778 z m 436 283 l 465 346 l 493 269 z m 672 197 b 654 217 672 207 665 214 b 639 197 643 217 639 210 b 654 179 639 188 643 182 b 672 197 665 179 672 185 z m 281 183 b 265 201 281 190 275 196 b 250 183 254 201 250 194 b 265 164 250 174 254 168 b 281 183 275 164 281 171 z m 454 653 b 442 667 454 660 449 664 b 429 653 433 667 429 663 b 442 638 429 646 433 640 b 454 653 449 638 454 642 z m 207 1096 b 318 981 207 1028 256 981 b 431 1069 371 981 417 1017 b 536 993 444 1021 488 993 b 651 1114 600 993 651 1046 b 536 1233 651 1182 599 1233 b 428 1143 481 1233 440 1196 b 318 1221 408 1188 367 1221 b 207 1096 256 1221 207 1165 z m 453 1113 b 536 1199 453 1161 490 1199 b 622 1115 582 1199 622 1164 b 536 1029 622 1067 582 1029 b 453 1113 490 1029 453 1063 z m 236 1097 b 318 1186 236 1147 274 1186 b 406 1101 367 1186 406 1151 b 318 1017 406 1051 367 1017 b 236 1097 274 1017 236 1051 z "},"":{"ha":860,"x_min":0,"x_max":0,"o":"m 825 306 l 733 306 l 572 619 l 624 768 l 418 889 l 388 821 l 269 775 l 311 660 l 172 288 l 46 269 l 85 -14 l 294 -90 b 356 56 324 -25 342 22 b 579 79 411 56 486 64 l 647 -37 l 838 42 l 818 114 z m 572 732 b 272 -42 393 272 293 18 l 250 -28 l 264 99 l 201 -1 b 214 88 208 22 214 50 l 214 129 l 153 11 l 118 19 l 269 432 b 433 838 321 585 378 717 l 454 826 b 411 729 435 783 419 750 l 472 818 l 515 797 b 476 717 496 769 482 743 b 558 776 504 744 532 765 b 572 732 568 765 572 750 z m 781 60 b 729 110 764 68 746 85 l 728 92 b 735 60 728 88 731 76 l 658 104 l 697 28 b 492 400 632 28 492 318 b 557 582 492 436 514 499 l 794 79 z m 563 111 b 372 92 492 99 426 92 b 433 244 383 131 403 183 l 440 244 b 503 231 465 244 503 236 b 468 203 503 218 492 208 b 539 174 501 194 525 185 l 454 157 b 563 136 503 146 539 140 z m 106 113 l 96 231 l 149 238 z m 794 142 l 754 269 l 800 269 z m 333 696 l 308 756 l 374 778 z m 436 283 l 465 346 l 493 269 z m 672 197 b 654 217 672 207 665 214 b 639 197 643 217 639 210 b 654 179 639 188 643 182 b 672 197 665 179 672 185 z m 281 183 b 265 201 281 190 275 196 b 250 183 254 201 250 194 b 265 164 250 174 254 168 b 281 183 275 164 281 171 z m 454 653 b 442 667 454 660 449 664 b 429 653 433 667 429 663 b 442 638 429 646 433 640 b 454 653 449 638 454 642 z m 618 1140 b 428 1300 618 1233 531 1300 b 242 1128 313 1300 242 1226 b 451 950 242 1026 332 950 b 618 1140 532 950 618 1056 z m 588 1147 b 457 971 588 1069 526 971 b 275 1142 358 971 275 1049 b 446 1275 275 1228 340 1275 b 588 1147 539 1275 588 1229 z m 515 1121 b 436 1193 515 1164 485 1193 b 344 1115 382 1193 344 1161 b 417 1040 344 1068 372 1040 b 515 1121 469 1040 515 1079 z m 485 1115 b 414 1068 485 1085 457 1068 b 374 1113 382 1068 374 1096 b 426 1172 374 1138 400 1172 b 485 1115 460 1172 485 1144 z m 556 1185 b 460 1254 556 1222 507 1254 b 556 1185 488 1231 531 1218 z m 335 1040 b 301 1135 321 1061 306 1092 b 289 1110 290 1128 289 1121 b 335 1040 289 1079 301 1056 z m 514 1047 b 435 1028 490 1032 468 1028 b 457 1007 435 1014 439 1007 b 518 1040 481 1007 514 1024 z m 340 1049 b 322 1140 335 1069 326 1097 b 313 1108 314 1128 313 1118 b 340 1049 313 1092 325 1072 z m 521 1165 b 463 1218 519 1200 493 1218 b 521 1165 474 1206 497 1183 z m 522 1022 b 451 1001 508 1013 481 1006 b 472 992 457 994 461 992 b 522 1022 494 992 519 1001 z "},"":{"ha":1082,"x_min":0,"x_max":0,"o":"m 1004 -47 l 951 197 b 940 199 950 199 947 199 l 801 199 b 790 197 796 199 792 199 l 761 258 l 910 258 l 917 478 l 664 465 l 638 518 l 978 518 b 1008 765 982 544 993 708 l 629 765 l 629 769 b 631 776 629 774 629 775 l 635 788 l 596 779 b 396 894 544 832 450 886 b 397 882 397 893 397 889 b 263 788 396 826 332 789 b 296 671 267 765 296 693 b 247 475 296 638 281 571 b 168 297 213 372 185 311 b 46 269 139 272 46 269 b 85 10 49 157 53 57 l 99 -11 b 121 -54 108 -26 119 -43 b 163 -46 138 -49 151 -46 b 294 -90 193 -46 278 -87 b 356 56 324 -25 342 22 b 449 60 383 56 411 58 b 431 -43 444 18 438 -18 z m 572 732 b 272 -42 393 272 293 18 l 250 -28 l 264 99 l 201 -1 b 214 76 213 22 214 33 l 214 129 l 153 11 l 118 19 l 269 432 b 433 838 325 583 375 717 l 454 826 b 411 729 435 783 419 750 l 472 818 l 515 797 b 476 717 496 769 482 743 b 558 776 504 744 532 765 b 572 732 568 765 572 750 z m 781 60 b 729 110 764 68 746 85 l 728 92 b 735 60 728 88 731 76 l 658 104 l 697 28 b 492 400 624 28 492 322 b 569 572 492 438 517 494 l 794 79 z m 940 713 l 794 683 l 939 667 l 939 643 l 829 638 l 939 613 l 947 569 b 676 563 857 564 767 563 l 613 563 l 579 617 l 579 621 b 607 626 581 624 601 625 b 597 628 606 628 603 628 l 589 628 b 581 629 583 628 582 628 l 594 674 l 685 686 l 599 686 l 606 703 b 640 738 619 736 628 736 l 950 738 z m 869 432 l 738 392 l 869 392 l 869 369 l 774 361 l 869 343 l 875 293 l 743 293 b 674 442 711 361 688 408 l 875 453 z m 563 111 b 372 92 492 99 426 92 b 433 244 383 131 403 183 l 444 244 b 503 231 464 244 503 236 b 468 203 503 218 492 208 b 539 174 501 194 525 185 l 454 157 b 563 136 503 146 539 140 z m 889 47 l 869 47 b 857 46 861 47 858 47 b 838 93 851 57 846 72 l 811 156 l 854 156 b 926 151 890 156 903 153 l 936 104 b 838 93 893 100 861 99 l 940 82 l 949 53 b 889 47 935 53 914 50 z m 836 -14 b 696 -18 794 -14 749 -18 l 721 -3 b 811 28 754 18 785 28 b 840 24 821 28 831 26 l 851 31 l 951 31 l 960 -4 b 836 -14 924 -10 882 -12 z m 499 7 l 613 28 b 632 -18 619 11 628 -4 l 490 -18 z m 106 118 l 106 124 b 96 228 106 135 103 169 l 149 235 z m 333 696 l 308 756 l 374 778 z m 500 67 b 579 79 524 68 549 71 b 604 42 586 65 596 53 l 501 53 z m 436 283 l 465 346 l 493 269 z m 672 197 b 654 217 672 207 665 214 b 639 197 643 217 639 210 b 654 179 639 188 643 182 b 672 197 665 179 672 185 z m 281 183 b 265 201 281 190 275 196 b 250 183 254 201 250 194 b 265 164 250 174 254 168 b 281 183 275 164 281 171 z m 454 653 b 442 667 454 660 449 664 b 429 653 433 667 429 663 b 442 638 429 646 433 640 b 454 653 449 638 454 642 z "},"":{"ha":626,"x_min":0,"x_max":0,"o":"m 243 -139 b 240 -172 242 -150 240 -161 b 361 -344 240 -258 300 -310 l 440 -289 b 433 -232 440 -269 438 -247 l 551 -146 b 567 -110 560 -135 564 -124 l 567 -87 b 560 -65 567 -79 564 -72 l 472 39 b 626 168 574 69 626 113 b 503 335 626 178 536 304 b 415 240 476 272 446 240 b 307 479 351 240 307 383 b 393 618 307 572 335 618 b 503 574 424 618 460 604 b 529 788 503 656 513 728 b 344 853 465 831 403 853 b 60 425 175 853 60 658 b 368 22 60 188 178 22 l 374 22 l 401 -44 l 440 -99 l 438 -107 l 381 -137 b 331 -92 364 -118 354 -106 z m 583 153 b 408 58 553 101 465 58 b 104 424 224 58 104 203 b 350 825 104 628 208 825 b 494 763 399 825 446 806 b 488 758 493 761 490 758 b 419 775 472 758 433 775 l 413 775 b 403 774 410 775 407 775 b 483 694 431 753 457 726 b 392 728 467 699 415 728 b 374 724 390 728 385 726 b 483 639 407 711 461 649 b 411 650 460 647 436 650 b 269 467 317 650 269 582 b 413 204 269 344 332 204 b 503 267 443 204 472 225 l 503 263 b 421 151 503 219 461 168 l 442 150 b 535 188 467 149 494 165 b 474 101 514 143 493 115 b 579 156 496 111 582 153 z m 458 -118 l 493 -122 l 461 -107 l 465 -99 l 421 -28 l 401 24 b 425 28 410 24 418 26 l 456 24 l 532 -75 b 535 -103 533 -85 535 -92 b 525 -136 535 -111 532 -122 l 424 -203 b 400 -153 419 -183 408 -171 l 426 -140 l 435 -156 l 443 -125 z m 299 -150 b 372 -282 342 -190 372 -249 b 358 -312 372 -294 372 -307 b 269 -181 299 -283 269 -215 b 282 -150 269 -169 274 -158 z m 392 -290 b 301 -136 385 -228 342 -186 l 331 -124 b 413 -281 369 -161 408 -217 z m 469 99 b 474 101 471 99 472 100 b 469 99 471 100 469 99 z "},"":{"ha":781,"x_min":0,"x_max":0,"o":"m 733 757 b 456 763 643 758 546 763 l 432 788 b 199 797 356 792 276 792 l 199 744 l 101 750 b 76 492 93 661 83 582 b 192 503 114 496 153 501 l 182 235 l 67 242 l 28 21 b 174 3 78 14 128 10 l 174 -35 b 285 -32 210 -33 249 -32 b 650 -67 400 -32 528 -43 b 686 135 664 1 674 67 l 440 193 l 440 228 l 638 214 b 649 447 642 296 647 367 b 444 457 581 453 514 453 l 444 522 l 785 556 z m 399 46 l 353 15 l 339 124 l 313 15 l 281 14 l 267 136 l 242 22 l 231 22 l 231 774 l 282 726 b 311 763 289 738 304 754 l 344 763 l 372 674 b 399 749 379 699 390 724 l 403 746 z m 447 560 l 447 732 l 717 732 l 718 728 l 642 692 b 721 686 665 689 700 686 l 724 656 l 656 636 b 731 628 681 635 707 629 l 744 585 z m 661 104 b 585 43 642 56 628 44 b 642 4 615 31 635 18 l 621 3 b 586 10 608 3 593 10 b 629 -33 590 -1 604 -15 l 628 -36 l 411 -1 l 440 146 z m 543 288 l 603 267 l 601 263 l 449 269 l 449 431 l 618 431 l 618 354 l 557 339 b 629 313 581 331 606 319 z m 174 15 l 58 56 l 92 213 l 182 213 z m 110 535 l 125 718 l 174 718 l 190 535 z m 335 640 l 307 640 l 307 604 b 338 636 324 613 335 624 z m 326 375 l 299 408 l 290 400 l 311 363 z m 349 1185 b 190 951 244 1168 190 1047 l 281 896 b 340 940 306 908 326 926 l 517 843 l 626 828 l 589 919 l 411 1039 b 440 1117 422 1065 433 1086 z m 278 1114 b 335 1146 294 1126 310 1146 l 342 1146 b 353 1142 342 1146 346 1144 l 361 1122 b 238 965 340 1047 278 965 b 218 969 229 965 224 967 b 278 1114 218 1025 247 1082 z m 589 856 l 519 865 l 358 964 b 400 1015 378 979 393 997 l 429 996 l 415 972 l 451 982 l 563 913 z m 258 946 b 376 1125 321 985 353 1054 l 406 1101 b 282 931 386 1036 346 967 z "},"":{"ha":781,"x_min":0,"x_max":0,"o":"m 733 757 b 456 763 643 758 546 763 l 432 788 b 199 797 356 792 276 792 l 199 744 l 101 750 b 76 492 93 661 83 582 b 192 503 114 496 153 501 l 182 235 l 67 242 l 28 21 b 174 3 78 14 128 10 l 174 -35 b 285 -32 210 -33 249 -32 b 650 -67 400 -32 528 -43 b 686 135 664 1 674 67 l 440 193 l 440 228 l 638 214 b 649 447 642 296 647 367 b 444 457 581 453 514 453 l 444 522 l 785 556 z m 399 46 l 353 15 l 339 124 l 313 15 l 281 14 l 267 136 l 242 22 l 231 22 l 231 774 l 282 726 b 311 763 289 738 304 754 l 344 763 l 372 674 b 399 749 379 699 390 724 l 403 746 z m 447 560 l 447 732 l 717 732 l 718 728 l 642 692 b 721 686 665 689 700 686 l 724 656 l 656 636 b 731 628 681 635 707 629 l 744 585 z m 661 104 b 585 43 642 56 628 44 b 642 4 615 31 635 18 l 621 3 b 586 10 608 3 593 10 b 629 -33 590 -1 604 -15 l 628 -36 l 411 -1 l 440 146 z m 543 288 l 603 267 l 601 263 l 449 269 l 449 431 l 618 431 l 618 354 l 557 339 b 629 313 581 331 606 319 z m 174 15 l 58 56 l 92 213 l 182 213 z m 110 535 l 125 718 l 174 718 l 190 535 z m 335 640 l 307 640 l 307 604 b 338 636 324 613 335 624 z m 326 375 l 299 408 l 290 400 l 311 363 z m 582 1181 b 451 1275 549 1226 500 1263 l 369 1206 b 390 1132 372 1175 383 1150 l 243 996 l 193 892 l 292 899 l 458 1033 l 489 1004 b 524 979 497 993 510 988 l 614 1044 b 617 1072 615 1056 617 1064 b 582 1181 617 1110 603 1147 z m 572 1139 b 585 1086 579 1119 585 1104 b 574 1057 585 1074 582 1064 l 554 1053 b 446 1210 494 1096 446 1174 b 458 1240 446 1221 451 1232 b 572 1139 511 1222 554 1176 z m 235 919 l 264 983 l 408 1108 b 442 1050 415 1088 429 1069 l 410 1033 l 397 1050 l 394 1013 l 294 929 z m 422 1210 b 550 1038 435 1136 499 1082 l 518 1018 b 401 1194 464 1056 413 1118 z "},"":{"ha":781,"x_min":0,"x_max":0,"o":"m 733 757 b 456 763 643 758 546 763 l 432 788 b 199 797 356 792 276 792 l 199 744 l 101 750 b 76 492 93 661 83 582 b 192 503 114 496 153 501 l 182 235 l 67 242 l 28 21 b 174 3 78 14 128 10 l 174 -35 b 285 -32 210 -33 249 -32 b 650 -67 400 -32 528 -43 b 686 135 664 1 674 67 l 440 193 l 440 228 l 638 214 b 649 447 642 296 647 367 b 444 457 581 453 514 453 l 444 522 l 785 556 z m 399 46 l 353 15 l 339 124 l 313 15 l 281 14 l 267 136 l 242 22 l 231 22 l 231 774 l 282 726 b 311 763 289 738 304 754 l 344 763 l 372 674 b 399 749 379 699 390 724 l 403 746 z m 447 560 l 447 732 l 717 732 l 718 728 l 642 692 b 721 686 665 689 700 686 l 724 656 l 656 636 b 731 628 681 635 707 629 l 744 585 z m 661 104 b 585 43 642 56 628 44 b 642 4 615 31 635 18 l 621 3 b 586 10 608 3 593 10 b 629 -33 590 -1 604 -15 l 628 -36 l 411 -1 l 440 146 z m 543 288 l 603 267 l 601 263 l 449 269 l 449 431 l 618 431 l 618 354 l 557 339 b 629 313 581 331 606 319 z m 174 15 l 58 56 l 92 213 l 182 213 z m 110 535 l 125 718 l 174 718 l 190 535 z m 335 640 l 307 640 l 307 604 b 338 636 324 613 335 624 z m 326 375 l 299 408 l 290 400 l 311 363 z m 611 872 b 704 1007 654 906 690 957 l 635 1090 b 564 1068 606 1085 583 1076 l 431 1218 b 389 1229 417 1226 403 1229 b 342 1218 371 1229 356 1226 l 163 1007 l 163 883 l 282 947 l 392 1083 l 403 1082 l 467 999 b 414 932 449 975 428 963 l 479 840 b 506 838 490 839 497 838 b 611 872 543 838 578 853 z m 415 1106 l 415 1150 l 403 1111 l 390 1114 l 258 971 l 182 914 l 188 999 l 354 1190 b 392 1199 367 1196 379 1199 b 428 1190 404 1199 414 1196 l 467 1146 l 540 1050 b 485 1015 519 1043 503 1033 l 467 1049 l 485 1061 l 447 1065 z m 571 883 b 518 868 551 876 536 868 b 490 879 507 868 497 872 l 486 904 b 640 1011 532 963 597 1011 b 669 999 651 1011 663 1007 b 571 883 651 946 607 901 z m 640 1035 b 471 906 569 1015 519 961 l 451 936 b 624 1057 488 993 550 1044 z "},"":{"ha":781,"x_min":0,"x_max":0,"o":"m 733 757 b 456 763 643 758 546 763 l 432 788 b 199 797 356 792 276 792 l 199 744 l 101 750 b 76 492 93 661 83 582 b 192 503 114 496 153 501 l 182 235 l 67 242 l 28 21 b 174 3 78 14 128 10 l 174 -35 b 285 -32 210 -33 249 -32 b 650 -67 400 -32 528 -43 b 686 135 664 1 674 67 l 440 193 l 440 228 l 638 214 b 649 447 642 296 647 367 b 444 457 581 453 514 453 l 444 522 l 785 556 z m 399 46 l 353 15 l 339 124 l 313 15 l 281 14 l 267 136 l 242 22 l 231 22 l 231 774 l 282 726 b 311 763 289 738 304 754 l 344 763 l 372 674 b 399 749 379 699 390 724 l 403 746 z m 447 560 l 447 732 l 717 732 l 718 728 l 642 692 b 721 686 665 689 700 686 l 724 656 l 656 636 b 731 628 681 635 707 629 l 744 585 z m 661 104 b 585 43 642 56 628 44 b 642 4 615 31 635 18 l 621 3 b 586 10 608 3 593 10 b 629 -33 590 -1 604 -15 l 628 -36 l 411 -1 l 440 146 z m 543 288 l 603 267 l 601 263 l 449 269 l 449 431 l 618 431 l 618 354 l 557 339 b 629 313 581 331 606 319 z m 174 15 l 58 56 l 92 213 l 182 213 z m 110 535 l 125 718 l 174 718 l 190 535 z m 335 640 l 307 640 l 307 604 b 338 636 324 613 335 624 z m 326 375 l 299 408 l 290 400 l 311 363 z m 196 975 b 307 860 196 907 244 860 b 419 949 360 860 406 896 b 525 872 433 900 476 872 b 640 993 589 872 640 925 b 525 1113 640 1061 588 1113 b 417 1022 469 1113 429 1075 b 307 1100 397 1067 356 1100 b 196 975 244 1100 196 1044 z m 442 992 b 525 1078 442 1040 479 1078 b 611 994 571 1078 611 1043 b 525 908 611 946 571 908 b 442 992 479 908 442 942 z m 225 976 b 307 1065 225 1026 263 1065 b 394 981 356 1065 394 1031 b 307 896 394 931 356 896 b 225 976 263 896 225 931 z "},"":{"ha":386,"x_min":0,"x_max":0,"o":"m 117 849 l 79 -54 l 347 -22 l 347 825 z m 286 26 l 272 93 l 261 22 l 235 21 l 207 142 l 194 11 l 126 -7 l 153 801 l 163 800 l 186 699 l 206 796 l 225 794 l 238 708 l 261 794 l 300 801 l 300 28 z m 168 1235 b 10 1001 64 1218 10 1097 l 100 946 b 160 990 125 958 146 976 l 336 893 l 446 878 l 408 969 l 231 1089 b 260 1167 242 1115 253 1136 z m 97 1164 b 154 1196 114 1176 129 1196 l 161 1196 b 172 1192 161 1196 165 1194 l 181 1172 b 57 1015 160 1097 97 1015 b 38 1019 49 1015 43 1017 b 97 1164 38 1075 67 1132 z m 408 906 l 339 915 l 178 1014 b 219 1065 197 1029 213 1047 l 249 1046 l 235 1022 l 271 1032 l 382 963 z m 78 996 b 196 1175 140 1035 172 1104 l 225 1151 b 101 981 206 1086 165 1017 z "},"":{"ha":386,"x_min":0,"x_max":0,"o":"m 117 849 l 79 -54 l 347 -22 l 347 825 z m 286 26 l 272 93 l 261 22 l 235 21 l 207 142 l 194 11 l 126 -7 l 153 801 l 163 800 l 186 699 l 206 796 l 225 794 l 238 708 l 261 794 l 300 801 l 300 28 z m 393 1169 b 263 1264 360 1215 311 1251 l 181 1194 b 201 1121 183 1164 194 1139 l 54 985 l 4 881 l 103 888 l 269 1022 l 300 993 b 335 968 308 982 321 976 l 425 1033 b 428 1061 426 1044 428 1053 b 393 1169 428 1099 414 1136 z m 383 1128 b 396 1075 390 1108 396 1093 b 385 1046 396 1063 393 1053 l 365 1042 b 257 1199 306 1085 257 1163 b 269 1229 257 1210 263 1221 b 383 1128 322 1211 365 1165 z m 46 908 l 75 972 l 219 1097 b 253 1039 226 1076 240 1058 l 221 1022 l 208 1039 l 206 1001 l 106 918 z m 233 1199 b 361 1026 246 1125 310 1071 l 329 1007 b 213 1183 275 1044 224 1107 z "},"":{"ha":386,"x_min":0,"x_max":0,"o":"m 117 849 l 79 -54 l 347 -22 l 347 825 z m 286 26 l 272 93 l 261 22 l 235 21 l 207 142 l 194 11 l 126 -7 l 153 801 l 163 800 l 186 699 l 206 796 l 225 794 l 238 708 l 261 794 l 300 801 l 300 28 z m 440 899 b 533 1033 483 932 519 983 l 464 1117 b 393 1094 435 1111 413 1103 l 260 1244 b 218 1256 246 1253 232 1256 b 171 1244 200 1256 185 1253 l -8 1033 l -8 910 l 111 974 l 221 1110 l 232 1108 l 296 1025 b 243 958 278 1001 257 989 l 308 867 b 335 864 319 865 326 864 b 440 899 372 864 407 879 z m 244 1132 l 244 1176 l 232 1138 l 219 1140 l 88 997 l 11 940 l 17 1025 l 183 1217 b 221 1225 196 1222 208 1225 b 257 1217 233 1225 243 1222 l 296 1172 l 369 1076 b 314 1042 349 1069 332 1060 l 296 1075 l 314 1088 l 276 1092 z m 400 910 b 347 894 381 903 365 894 b 319 906 336 894 326 899 l 315 931 b 469 1038 361 989 426 1038 b 499 1025 481 1038 492 1033 b 400 910 481 972 436 928 z m 469 1061 b 300 932 399 1042 349 988 l 281 963 b 453 1083 317 1019 379 1071 z "},"":{"ha":386,"x_min":0,"x_max":0,"o":"m 117 849 l 79 -54 l 347 -22 l 347 825 z m 286 26 l 272 93 l 261 22 l 235 21 l 207 142 l 194 11 l 126 -7 l 153 801 l 163 800 l 186 699 l 206 796 l 225 794 l 238 708 l 261 794 l 300 801 l 300 28 z m 6 1040 b 117 925 6 972 54 925 b 229 1014 169 925 215 961 b 335 938 243 965 286 938 b 450 1058 399 938 450 990 b 335 1178 450 1126 397 1178 b 226 1088 279 1178 239 1140 b 117 1165 207 1132 165 1165 b 6 1040 54 1165 6 1110 z m 251 1057 b 335 1143 251 1106 289 1143 b 421 1060 381 1143 421 1108 b 335 974 421 1011 381 974 b 251 1057 289 974 251 1007 z m 35 1042 b 117 1131 35 1092 72 1131 b 204 1046 165 1131 204 1096 b 117 961 204 996 165 961 b 35 1042 72 961 35 996 z "},"":{"ha":792,"x_min":0,"x_max":0,"o":"m 133 442 l 161 275 l 243 275 l 243 256 l 101 250 l 117 -36 b 232 -18 167 -28 206 -24 l 232 -28 l 475 -28 l 475 -18 b 482 -8 475 -11 478 -8 b 792 383 651 -8 792 188 b 610 708 792 536 732 643 b 514 763 551 740 518 761 l 501 801 l 240 783 l 236 719 l 93 703 b 75 524 81 638 75 578 b 85 444 75 486 78 458 b 242 458 125 453 178 457 l 242 440 z m 457 717 b 435 147 457 610 435 250 b 440 15 435 99 438 56 l 390 11 l 390 151 l 361 10 l 308 7 l 308 94 l 283 4 l 269 4 b 282 224 276 61 282 133 b 275 603 282 290 275 535 b 281 743 275 654 275 706 b 319 756 290 750 304 754 l 338 661 l 346 757 l 365 756 b 385 661 365 740 385 681 l 385 649 b 421 778 404 682 401 778 b 457 717 444 778 457 757 z m 744 347 b 483 22 744 178 654 56 l 483 213 b 596 357 549 236 596 289 b 496 496 596 415 563 461 b 493 557 494 514 493 533 b 510 719 493 593 499 646 b 744 347 647 682 744 521 z m 238 494 b 218 496 238 496 231 496 b 117 481 190 496 157 492 b 122 507 121 488 122 496 b 114 524 122 515 118 522 b 178 551 139 538 160 547 b 115 572 150 563 129 571 l 122 667 l 231 682 b 229 674 231 681 229 675 b 235 661 229 665 231 661 b 190 615 228 650 201 626 b 217 604 196 607 206 604 l 238 606 z m 239 15 l 153 15 l 142 225 l 232 225 b 178 175 218 201 201 185 b 210 168 192 171 203 168 b 240 174 217 168 226 169 l 231 139 b 172 106 210 114 219 118 b 225 81 190 89 207 81 b 242 83 229 81 235 82 z m 549 358 b 483 261 549 308 526 275 l 490 453 b 549 358 524 447 549 408 z m 243 304 l 174 304 l 169 338 l 228 344 l 168 351 l 163 374 l 193 374 l 243 381 z m 667 506 b 561 617 667 550 607 617 b 529 606 550 617 540 614 b 667 506 596 601 628 550 z m 161 388 l 156 419 l 242 419 l 242 388 z m 624 465 b 553 544 624 499 586 544 b 533 535 544 544 538 540 b 582 504 546 528 564 522 z m 369 599 l 357 604 l 346 593 b 367 581 354 585 363 581 b 376 592 374 581 376 583 z m 357 158 l 346 149 l 369 139 l 369 149 z "},"":{"ha":1000,"x_min":0,"x_max":0,"o":"m 932 242 l 950 783 l 676 810 l 667 422 l 408 682 l 393 832 l 125 819 l 121 694 l 38 604 l 136 510 l 192 -1 l 203 -1 b 374 -18 240 -1 344 -18 b 424 -11 393 -18 410 -15 l 414 286 l 667 38 l 674 -15 b 936 -42 825 -33 911 -42 l 933 113 l 1000 168 z m 901 10 l 851 15 l 818 136 l 808 15 l 774 21 l 746 117 l 738 28 l 703 31 l 703 764 l 750 754 l 768 635 l 794 754 l 822 614 l 822 758 l 913 731 z m 326 33 l 306 136 l 283 47 l 264 178 l 247 38 l 225 35 l 169 778 l 190 786 l 225 624 l 243 779 l 256 778 l 275 661 l 293 789 l 346 785 b 383 421 365 740 378 625 l 383 297 b 385 131 383 242 385 182 l 385 31 z m 410 340 l 411 401 l 501 353 l 415 444 l 415 486 l 503 403 l 418 540 l 418 636 l 674 369 l 674 75 z m 76 610 l 128 654 l 128 560 z m 938 149 l 928 201 l 964 168 z m 317 571 b 304 585 317 578 311 582 b 289 571 294 581 289 575 b 304 556 289 564 294 560 b 317 571 311 560 317 567 z m 799 192 l 786 179 l 799 168 l 811 179 z m 818 1215 l 731 1192 l 642 1114 l 579 1211 b 536 1228 565 1222 550 1228 b 499 1219 529 1228 517 1224 l 396 1147 b 324 1199 376 1171 357 1199 l 243 1160 b 238 1118 239 1151 238 1138 b 351 924 238 1038 282 957 l 451 969 b 453 990 451 976 453 983 b 440 1047 453 1004 447 1024 l 522 1097 l 592 1003 b 628 992 600 994 611 992 b 688 1004 647 992 669 999 l 807 1110 z m 797 1185 l 785 1118 l 675 1025 b 636 1018 661 1021 649 1018 b 592 1033 618 1018 606 1021 l 543 1115 l 535 1172 l 513 1119 l 440 1069 l 431 1114 l 413 1138 l 503 1196 b 532 1204 511 1200 521 1204 b 568 1189 543 1204 556 1199 l 631 1096 l 646 1050 l 660 1093 l 743 1174 z m 271 1064 b 263 1113 269 1079 263 1097 b 275 1147 263 1124 267 1140 l 300 1147 b 388 988 346 1101 388 1029 b 369 949 388 971 381 958 b 271 1064 321 975 283 1028 z m 408 976 b 304 1163 401 1051 353 1113 l 339 1178 b 433 992 388 1135 432 1068 z "},"":{"ha":853,"x_min":0,"x_max":0,"o":"m 853 446 b 453 831 853 669 682 831 b 60 419 218 831 60 656 b 501 -7 60 181 254 -7 b 853 446 669 -7 853 239 z m 811 467 b 514 25 811 257 675 25 b 110 454 288 25 110 231 b 490 794 110 669 263 794 b 811 467 694 794 811 671 z m 631 403 b 471 564 631 500 567 564 b 282 388 368 564 282 489 b 432 217 282 286 338 217 b 631 403 539 217 631 297 z m 589 389 b 424 260 589 313 525 260 b 326 379 349 260 326 324 b 453 536 326 447 385 536 b 589 389 524 536 589 468 z m 721 563 b 538 718 717 646 614 718 b 721 563 669 642 694 619 z m 267 235 b 217 432 242 272 225 339 b 204 376 208 418 204 399 b 263 235 204 322 238 235 z m 638 207 b 504 158 589 174 544 158 b 492 160 500 158 496 160 l 476 161 b 514 136 476 144 489 136 b 638 207 561 136 632 171 z m 238 204 b 167 425 206 254 182 329 b 161 376 163 413 161 397 b 238 204 161 304 186 247 z m 646 540 b 550 629 646 592 601 629 l 536 629 b 646 540 569 614 571 613 z m 642 146 b 515 99 613 126 571 111 l 538 96 b 551 94 539 94 544 94 b 642 146 594 94 642 115 z m 400 1219 b 242 986 296 1203 242 1082 l 332 931 b 392 975 357 943 378 961 l 568 878 l 678 863 l 640 954 l 463 1074 b 492 1151 474 1100 485 1121 z m 329 1149 b 386 1181 346 1161 361 1181 l 393 1181 b 404 1176 393 1181 397 1179 l 413 1157 b 289 1000 392 1082 329 1000 b 269 1004 281 1000 275 1001 b 329 1149 269 1060 299 1117 z m 640 890 l 571 900 l 410 999 b 451 1050 429 1014 444 1032 l 481 1031 l 467 1007 l 503 1017 l 614 947 z m 310 981 b 428 1160 372 1019 404 1089 l 457 1136 b 333 965 438 1071 397 1001 z "},"":{"ha":853,"x_min":0,"x_max":0,"o":"m 853 446 b 453 831 853 669 682 831 b 60 419 218 831 60 656 b 501 -7 60 181 254 -7 b 853 446 669 -7 853 239 z m 811 467 b 514 25 811 257 675 25 b 110 454 288 25 110 231 b 490 794 110 669 263 794 b 811 467 694 794 811 671 z m 631 403 b 471 564 631 500 567 564 b 282 388 368 564 282 489 b 432 217 282 286 338 217 b 631 403 539 217 631 297 z m 589 389 b 424 260 589 313 525 260 b 326 379 349 260 326 324 b 453 536 326 447 385 536 b 589 389 524 536 589 468 z m 721 563 b 538 718 717 646 614 718 b 721 563 669 642 694 619 z m 267 235 b 217 432 242 272 225 339 b 204 376 208 418 204 399 b 263 235 204 322 238 235 z m 638 207 b 504 158 589 174 544 158 b 492 160 500 158 496 160 l 476 161 b 514 136 476 144 489 136 b 638 207 561 136 632 171 z m 238 204 b 167 425 206 254 182 329 b 161 376 163 413 161 397 b 238 204 161 304 186 247 z m 646 540 b 550 629 646 592 601 629 l 536 629 b 646 540 569 614 571 613 z m 642 146 b 515 99 613 126 571 111 l 538 96 b 551 94 539 94 544 94 b 642 146 594 94 642 115 z m 654 1153 b 524 1247 621 1199 572 1235 l 442 1178 b 463 1104 444 1147 456 1122 l 315 968 l 265 864 l 364 871 l 531 1006 l 561 976 b 596 951 569 965 582 960 l 686 1017 b 689 1044 688 1028 689 1036 b 654 1153 689 1082 675 1119 z m 644 1111 b 657 1058 651 1092 657 1076 b 646 1029 657 1046 654 1036 l 626 1025 b 518 1182 567 1068 518 1146 b 531 1213 518 1193 524 1204 b 644 1111 583 1194 626 1149 z m 307 892 l 336 956 l 481 1081 b 514 1022 488 1060 501 1042 l 482 1006 l 469 1022 l 467 985 l 367 901 z m 494 1182 b 622 1010 507 1108 571 1054 l 590 990 b 474 1167 536 1028 485 1090 z "},"":{"ha":853,"x_min":0,"x_max":0,"o":"m 853 446 b 453 831 853 669 682 831 b 60 419 218 831 60 656 b 501 -7 60 181 254 -7 b 853 446 669 -7 853 239 z m 811 467 b 514 25 811 257 675 25 b 110 454 288 25 110 231 b 490 794 110 669 263 794 b 811 467 694 794 811 671 z m 631 403 b 471 564 631 500 567 564 b 282 388 368 564 282 489 b 432 217 282 286 338 217 b 631 403 539 217 631 297 z m 589 389 b 424 260 589 313 525 260 b 326 379 349 260 326 324 b 453 536 326 447 385 536 b 589 389 524 536 589 468 z m 721 563 b 538 718 717 646 614 718 b 721 563 669 642 694 619 z m 267 235 b 217 432 242 272 225 339 b 204 376 208 418 204 399 b 263 235 204 322 238 235 z m 638 207 b 504 158 589 174 544 158 b 492 160 500 158 496 160 l 476 161 b 514 136 476 144 489 136 b 638 207 561 136 632 171 z m 238 204 b 167 425 206 254 182 329 b 161 376 163 413 161 397 b 238 204 161 304 186 247 z m 646 540 b 550 629 646 592 601 629 l 536 629 b 646 540 569 614 571 613 z m 642 146 b 515 99 613 126 571 111 l 538 96 b 551 94 539 94 544 94 b 642 146 594 94 642 115 z m 686 896 b 779 1031 729 929 765 981 l 710 1114 b 639 1092 681 1108 658 1100 l 506 1242 b 464 1253 492 1250 478 1253 b 417 1242 446 1253 431 1250 l 238 1031 l 238 907 l 357 971 l 467 1107 l 478 1106 l 542 1022 b 489 956 524 999 503 986 l 554 864 b 581 861 565 863 572 861 b 686 896 618 861 653 876 z m 490 1129 l 490 1174 l 478 1135 l 465 1138 l 333 994 l 257 938 l 263 1022 l 429 1214 b 467 1222 442 1219 454 1222 b 503 1214 479 1222 489 1219 l 542 1169 l 615 1074 b 560 1039 594 1067 578 1057 l 542 1072 l 560 1085 l 522 1089 z m 646 907 b 593 892 626 900 611 892 b 565 903 582 892 572 896 l 561 928 b 715 1035 607 986 672 1035 b 744 1022 726 1035 738 1031 b 646 907 726 969 682 925 z m 715 1058 b 546 929 644 1039 594 985 l 526 960 b 699 1081 563 1017 625 1068 z "},"":{"ha":853,"x_min":0,"x_max":0,"o":"m 853 446 b 453 831 853 669 682 831 b 60 419 218 831 60 656 b 501 -7 60 181 254 -7 b 853 446 669 -7 853 239 z m 811 467 b 514 25 811 257 675 25 b 110 454 288 25 110 231 b 490 794 110 669 263 794 b 811 467 694 794 811 671 z m 631 403 b 471 564 631 500 567 564 b 282 388 368 564 282 489 b 432 217 282 286 338 217 b 631 403 539 217 631 297 z m 589 389 b 424 260 589 313 525 260 b 326 379 349 260 326 324 b 453 536 326 447 385 536 b 589 389 524 536 589 468 z m 721 563 b 538 718 717 646 614 718 b 721 563 669 642 694 619 z m 267 235 b 217 432 242 272 225 339 b 204 376 208 418 204 399 b 263 235 204 322 238 235 z m 638 207 b 504 158 589 174 544 158 b 492 160 500 158 496 160 l 476 161 b 514 136 476 144 489 136 b 638 207 561 136 632 171 z m 238 204 b 167 425 206 254 182 329 b 161 376 163 413 161 397 b 238 204 161 304 186 247 z m 646 540 b 550 629 646 592 601 629 l 536 629 b 646 540 569 614 571 613 z m 642 146 b 515 99 613 126 571 111 l 538 96 b 551 94 539 94 544 94 b 642 146 594 94 642 115 z m 738 1167 l 650 1143 l 561 1065 l 499 1163 b 456 1179 485 1174 469 1179 b 418 1171 449 1179 436 1175 l 315 1099 b 243 1150 296 1122 276 1150 l 163 1111 b 157 1069 158 1103 157 1089 b 271 875 157 989 201 908 l 371 921 b 372 942 371 928 372 935 b 360 999 372 956 367 975 l 442 1049 l 511 954 b 547 943 519 946 531 943 b 607 956 567 943 589 950 l 726 1061 z m 717 1136 l 704 1069 l 594 976 b 556 969 581 972 568 969 b 511 985 538 969 525 972 l 463 1067 l 454 1124 l 432 1071 l 360 1021 l 350 1065 l 332 1089 l 422 1147 b 451 1156 431 1151 440 1156 b 488 1140 463 1156 475 1150 l 550 1047 l 565 1001 l 579 1044 l 663 1125 z m 190 1015 b 182 1064 189 1031 182 1049 b 194 1099 182 1075 186 1092 l 219 1099 b 307 939 265 1053 307 981 b 289 900 307 922 300 910 b 190 1015 240 926 203 979 z m 328 928 b 224 1114 321 1003 272 1064 l 258 1129 b 353 943 307 1086 351 1019 z "},"":{"ha":853,"x_min":0,"x_max":0,"o":"m 853 446 b 453 831 853 669 682 831 b 60 419 218 831 60 656 b 501 -7 60 181 254 -7 b 853 446 669 -7 853 239 z m 811 467 b 514 25 811 257 675 25 b 110 454 288 25 110 231 b 490 794 110 669 263 794 b 811 467 694 794 811 671 z m 631 403 b 471 564 631 500 567 564 b 282 388 368 564 282 489 b 432 217 282 286 338 217 b 631 403 539 217 631 297 z m 589 389 b 424 260 589 313 525 260 b 326 379 349 260 326 324 b 453 536 326 447 385 536 b 589 389 524 536 589 468 z m 721 563 b 538 718 717 646 614 718 b 721 563 669 642 694 619 z m 267 235 b 217 432 242 272 225 339 b 204 376 208 418 204 399 b 263 235 204 322 238 235 z m 638 207 b 504 158 589 174 544 158 b 492 160 500 158 496 160 l 476 161 b 514 136 476 144 489 136 b 638 207 561 136 632 171 z m 238 204 b 167 425 206 254 182 329 b 161 376 163 413 161 397 b 238 204 161 304 186 247 z m 646 540 b 550 629 646 592 601 629 l 536 629 b 646 540 569 614 571 613 z m 642 146 b 515 99 613 126 571 111 l 538 96 b 551 94 539 94 544 94 b 642 146 594 94 642 115 z m 224 1019 b 335 904 224 951 272 904 b 447 993 388 904 433 940 b 553 917 461 944 504 917 b 668 1038 617 917 668 969 b 553 1157 668 1106 615 1157 b 444 1067 497 1157 457 1119 b 335 1144 425 1111 383 1144 b 224 1019 272 1144 224 1089 z m 469 1036 b 553 1122 469 1085 507 1122 b 639 1039 599 1122 639 1088 b 553 953 639 990 599 953 b 469 1036 507 953 469 986 z m 253 1021 b 335 1110 253 1071 290 1110 b 422 1025 383 1110 422 1075 b 335 940 422 975 383 940 b 253 1021 290 940 253 975 z "},"":{"ha":871,"x_min":0,"x_max":0,"o":"m 483 581 l 240 732 l 50 529 l 224 397 l 44 285 l 199 54 l 464 242 l 653 60 l 829 311 l 694 413 l 822 533 l 699 744 z m 779 533 b 229 115 508 310 429 251 l 208 101 l 272 182 l 183 131 l 271 213 l 171 167 l 103 267 l 686 661 l 761 557 l 621 461 z m 251 421 l 100 549 l 243 486 l 135 585 l 161 615 l 313 535 l 182 640 l 229 686 l 447 547 z m 743 236 l 647 274 l 692 199 l 617 224 l 647 121 l 503 264 l 647 378 l 779 296 z m 429 418 l 426 396 l 447 390 l 450 411 z "},"":{"ha":853,"x_min":0,"x_max":0,"o":"m 553 819 b 461 831 526 825 494 831 b 60 419 217 831 60 658 b 171 131 60 304 96 208 l 117 36 l 344 -81 l 390 4 b 501 -7 424 -3 461 -7 b 853 446 669 -7 853 239 b 757 704 853 549 821 636 l 797 778 l 603 904 z m 335 -14 l 296 13 l 376 129 l 367 135 l 272 31 l 267 38 l 321 178 l 313 193 l 213 54 l 168 60 l 603 851 l 617 835 l 561 739 l 631 825 l 664 801 l 617 674 l 706 789 l 743 779 z m 282 388 b 285 338 282 369 283 354 l 199 185 b 110 454 139 263 110 351 b 490 794 110 669 263 794 b 536 785 503 794 518 790 l 407 553 b 282 388 358 536 282 493 z m 811 467 b 514 25 811 258 672 25 b 408 38 478 25 442 31 l 510 229 b 631 403 590 265 631 328 b 625 453 631 421 629 436 l 746 682 b 811 467 789 626 811 553 z m 514 529 b 507 535 514 533 513 535 b 396 299 485 535 410 344 l 418 338 l 458 415 b 514 529 488 472 513 528 z m 638 207 b 504 158 589 174 544 158 b 492 160 503 158 496 160 l 476 161 b 514 136 476 144 489 136 b 638 207 561 136 632 171 z m 585 586 b 513 436 551 525 526 476 b 524 426 513 431 515 426 b 585 586 535 426 585 571 z m 331 415 b 376 501 332 449 346 478 z m 589 381 b 543 294 586 344 571 315 z m 396 297 l 396 296 z "},"":{"ha":860,"x_min":0,"x_max":0,"o":"m 860 779 b 851 849 860 801 857 825 l 582 822 l 582 796 b 450 231 582 399 540 231 b 347 433 383 231 347 299 b 354 578 347 446 353 556 l 357 661 b 361 721 357 685 357 704 b 354 811 361 754 358 786 l 89 788 b 92 706 90 763 92 735 b 82 397 92 651 82 453 b 449 -76 82 57 193 -76 b 842 418 674 -76 806 89 b 843 432 843 421 843 425 l 843 471 b 858 767 843 567 847 664 z m 819 724 b 774 271 819 590 804 440 b 401 -26 733 49 636 -26 b 128 478 217 -26 128 129 b 133 715 128 490 133 624 l 133 750 l 146 757 l 181 601 l 167 758 l 199 763 l 231 607 l 236 772 b 300 781 263 778 283 781 b 319 750 317 781 319 767 l 319 726 b 310 458 319 681 310 504 b 449 183 310 275 356 183 b 624 676 558 183 624 342 b 619 799 624 721 621 763 l 678 808 l 678 790 b 686 688 678 767 678 732 b 724 811 699 746 710 788 b 732 807 724 808 728 807 b 750 813 740 807 744 808 l 749 650 b 788 815 763 718 776 772 l 814 815 b 819 724 818 789 819 757 z m 524 139 b 422 129 478 133 443 129 b 376 136 403 129 388 131 b 438 114 386 122 407 114 b 524 139 475 114 503 122 z m 544 93 b 454 79 514 83 483 79 b 379 92 426 79 403 83 b 446 67 390 75 413 67 b 544 93 488 67 521 76 z m 353 1226 b 194 993 249 1210 194 1089 l 285 938 b 344 982 310 950 331 968 l 521 885 l 631 869 l 593 961 l 415 1081 b 444 1158 426 1107 438 1128 z m 282 1156 b 339 1188 299 1168 314 1188 l 346 1188 b 357 1183 346 1188 350 1186 l 365 1164 b 242 1007 344 1089 282 1007 b 222 1011 233 1007 228 1008 b 282 1156 222 1067 251 1124 z m 593 897 l 524 907 l 363 1006 b 404 1057 382 1021 397 1039 l 433 1038 l 419 1014 l 456 1024 l 567 954 z m 263 988 b 381 1167 325 1026 357 1096 l 410 1143 b 286 972 390 1078 350 1008 z "},"":{"ha":860,"x_min":0,"x_max":0,"o":"m 860 779 b 851 849 860 801 857 825 l 582 822 l 582 796 b 450 231 582 399 540 231 b 347 433 383 231 347 299 b 354 578 347 446 353 556 l 357 661 b 361 721 357 685 357 704 b 354 811 361 754 358 786 l 89 788 b 92 706 90 763 92 735 b 82 397 92 651 82 453 b 449 -76 82 57 193 -76 b 842 418 674 -76 806 89 b 843 432 843 421 843 425 l 843 471 b 858 767 843 567 847 664 z m 819 724 b 774 271 819 590 804 440 b 401 -26 733 49 636 -26 b 128 478 217 -26 128 129 b 133 715 128 490 133 624 l 133 750 l 146 757 l 181 601 l 167 758 l 199 763 l 231 607 l 236 772 b 300 781 263 778 283 781 b 319 750 317 781 319 767 l 319 726 b 310 458 319 681 310 504 b 449 183 310 275 356 183 b 624 676 558 183 624 342 b 619 799 624 721 621 763 l 678 808 l 678 790 b 686 688 678 767 678 732 b 724 811 699 746 710 788 b 732 807 724 808 728 807 b 750 813 740 807 744 808 l 749 650 b 788 815 763 718 776 772 l 814 815 b 819 724 818 789 819 757 z m 524 139 b 422 129 478 133 443 129 b 376 136 403 129 388 131 b 438 114 386 122 407 114 b 524 139 475 114 503 122 z m 544 93 b 454 79 514 83 483 79 b 379 92 426 79 403 83 b 446 67 390 75 413 67 b 544 93 488 67 521 76 z m 656 1146 b 525 1240 622 1192 574 1228 l 443 1171 b 464 1097 446 1140 457 1115 l 317 961 l 267 857 l 365 864 l 532 999 l 563 969 b 597 944 571 958 583 953 l 688 1010 b 690 1038 689 1021 690 1029 b 656 1146 690 1075 676 1113 z m 646 1104 b 658 1051 653 1085 658 1069 b 647 1022 658 1039 656 1029 l 628 1018 b 519 1175 568 1061 519 1139 b 532 1206 519 1186 525 1197 b 646 1104 585 1188 628 1142 z m 308 885 l 338 949 l 482 1074 b 515 1015 489 1053 503 1035 l 483 999 l 471 1015 l 468 978 l 368 894 z m 496 1175 b 624 1003 508 1101 572 1047 l 592 983 b 475 1160 538 1021 486 1083 z "},"":{"ha":860,"x_min":0,"x_max":0,"o":"m 860 779 b 851 849 860 801 857 825 l 582 822 l 582 796 b 450 231 582 399 540 231 b 347 433 383 231 347 299 b 354 578 347 446 353 556 l 357 661 b 361 721 357 685 357 704 b 354 811 361 754 358 786 l 89 788 b 92 706 90 763 92 735 b 82 397 92 651 82 453 b 449 -76 82 57 193 -76 b 842 418 674 -76 806 89 b 843 432 843 421 843 425 l 843 471 b 858 767 843 567 847 664 z m 819 724 b 774 271 819 590 804 440 b 401 -26 733 49 636 -26 b 128 478 217 -26 128 129 b 133 715 128 490 133 624 l 133 750 l 146 757 l 181 601 l 167 758 l 199 763 l 231 607 l 236 772 b 300 781 263 778 283 781 b 319 750 317 781 319 767 l 319 726 b 310 458 319 681 310 504 b 449 183 310 275 356 183 b 624 676 558 183 624 342 b 619 799 624 721 621 763 l 678 808 l 678 790 b 686 688 678 767 678 732 b 724 811 699 746 710 788 b 732 807 724 808 728 807 b 750 813 740 807 744 808 l 749 650 b 788 815 763 718 776 772 l 814 815 b 819 724 818 789 819 757 z m 524 139 b 422 129 478 133 443 129 b 376 136 403 129 388 131 b 438 114 386 122 407 114 b 524 139 475 114 503 122 z m 544 93 b 454 79 514 83 483 79 b 379 92 426 79 403 83 b 446 67 390 75 413 67 b 544 93 488 67 521 76 z m 690 881 b 783 1015 733 914 769 965 l 714 1099 b 643 1076 685 1093 663 1085 l 510 1226 b 468 1238 496 1235 482 1238 b 421 1226 450 1238 435 1235 l 242 1015 l 242 892 l 361 956 l 471 1092 l 482 1090 l 546 1007 b 493 940 528 983 507 971 l 558 849 b 585 846 569 847 576 846 b 690 881 622 846 657 861 z m 494 1114 l 494 1158 l 482 1119 l 469 1122 l 338 979 l 261 922 l 267 1007 l 433 1199 b 471 1207 446 1204 458 1207 b 507 1199 483 1207 493 1204 l 546 1154 l 619 1058 b 564 1024 599 1051 582 1042 l 546 1057 l 564 1069 l 526 1074 z m 650 892 b 597 876 631 885 615 876 b 569 888 586 876 576 881 l 565 913 b 719 1019 611 971 676 1019 b 749 1007 731 1019 742 1015 b 650 892 731 954 686 910 z m 719 1043 b 550 914 649 1024 599 969 l 531 944 b 703 1065 567 1001 629 1053 z "},"":{"ha":860,"x_min":0,"x_max":0,"o":"m 860 779 b 851 849 860 801 857 825 l 582 822 l 582 796 b 450 231 582 399 540 231 b 347 433 383 231 347 299 b 354 578 347 446 353 556 l 357 661 b 361 721 357 685 357 704 b 354 811 361 754 358 786 l 89 788 b 92 706 90 763 92 735 b 82 397 92 651 82 453 b 449 -76 82 57 193 -76 b 842 418 674 -76 806 89 b 843 432 843 421 843 425 l 843 471 b 858 767 843 567 847 664 z m 819 724 b 774 271 819 590 804 440 b 401 -26 733 49 636 -26 b 128 478 217 -26 128 129 b 133 715 128 490 133 624 l 133 750 l 146 757 l 181 601 l 167 758 l 199 763 l 231 607 l 236 772 b 300 781 263 778 283 781 b 319 750 317 781 319 767 l 319 726 b 310 458 319 681 310 504 b 449 183 310 275 356 183 b 624 676 558 183 624 342 b 619 799 624 721 621 763 l 678 808 l 678 790 b 686 688 678 767 678 732 b 724 811 699 746 710 788 b 732 807 724 808 728 807 b 750 813 740 807 744 808 l 749 650 b 788 815 763 718 776 772 l 814 815 b 819 724 818 789 819 757 z m 524 139 b 422 129 478 133 443 129 b 376 136 403 129 388 131 b 438 114 386 122 407 114 b 524 139 475 114 503 122 z m 544 93 b 454 79 514 83 483 79 b 379 92 426 79 403 83 b 446 67 390 75 413 67 b 544 93 488 67 521 76 z m 231 1022 b 342 907 231 954 279 907 b 454 996 394 907 440 943 b 560 919 468 947 511 919 b 675 1040 624 919 675 972 b 560 1160 675 1108 622 1160 b 451 1069 504 1160 464 1122 b 342 1147 432 1114 390 1147 b 231 1022 279 1147 231 1092 z m 476 1039 b 560 1125 476 1088 514 1125 b 646 1042 606 1125 646 1090 b 560 956 646 993 606 956 b 476 1039 514 956 476 989 z m 260 1024 b 342 1113 260 1074 297 1113 b 429 1028 390 1113 429 1078 b 342 943 429 978 390 943 b 260 1024 297 943 260 978 z "},"":{"ha":785,"x_min":0,"x_max":0,"o":"m 526 797 l 396 549 l 175 794 l -15 567 l 244 272 l 124 35 l 351 -104 l 785 661 z m 340 -54 l 263 -14 l 324 99 l 238 7 l 221 18 l 300 178 l 197 35 l 174 54 l 547 751 l 617 718 l 553 575 l 654 689 l 682 674 l 621 546 l 711 661 l 750 647 z m 379 515 b 263 310 306 388 267 319 l 46 568 l 82 617 l 206 515 l 107 642 l 131 667 l 236 567 l 153 697 l 181 728 z m 414 343 l 401 331 l 414 318 l 426 331 z m 569 1181 b 439 1275 536 1226 488 1263 l 357 1206 b 378 1132 360 1175 371 1150 l 231 996 l 181 892 l 279 899 l 446 1033 l 476 1004 b 511 979 485 993 497 988 l 601 1044 b 604 1072 603 1056 604 1064 b 569 1181 604 1110 590 1147 z m 560 1139 b 572 1086 567 1119 572 1104 b 561 1057 572 1074 569 1064 l 542 1053 b 433 1210 482 1096 433 1174 b 446 1240 433 1221 439 1232 b 560 1139 499 1222 542 1176 z m 222 919 l 251 983 l 396 1108 b 429 1050 403 1088 417 1069 l 397 1033 l 385 1050 l 382 1013 l 282 929 z m 410 1210 b 538 1038 422 1136 486 1082 l 506 1018 b 389 1194 451 1056 400 1118 z "},"":{"ha":889,"x_min":0,"x_max":0,"o":"m 890 419 b 538 676 890 571 728 676 b 419 665 499 676 458 674 l 408 849 l 150 849 l 150 649 l 42 631 l 76 418 l 149 413 l 144 347 l 85 322 b 149 92 128 244 149 169 b 146 -12 149 53 147 18 l 450 24 l 450 161 b 890 419 710 161 890 258 z m 361 50 l 329 178 l 319 39 l 288 35 l 269 190 l 238 24 l 179 15 l 179 824 l 225 824 l 256 525 l 256 825 l 381 819 l 414 64 z m 840 431 b 522 206 840 290 713 206 b 444 213 494 206 468 210 l 446 328 b 501 319 465 322 483 319 b 614 419 564 319 614 356 b 503 482 614 461 578 482 l 440 479 l 438 521 l 517 540 l 436 550 l 436 567 l 517 606 l 436 597 b 440 617 438 606 440 610 b 435 631 440 625 438 629 b 511 636 458 635 483 636 b 840 431 708 636 840 557 z m 592 421 b 501 367 575 385 546 367 b 438 376 486 367 465 369 l 435 443 b 490 458 449 454 467 458 b 592 421 529 458 564 446 z m 94 456 l 71 610 l 147 619 l 147 447 z m 772 442 b 708 539 772 483 751 515 b 757 389 732 493 749 444 b 772 442 767 410 772 426 z m 704 446 b 626 549 704 492 671 538 b 697 413 660 515 683 482 b 704 446 703 424 704 435 z m 121 310 l 142 310 l 142 251 z m 282 238 b 272 250 282 243 278 249 b 263 240 265 250 263 247 b 272 228 263 232 265 229 b 282 238 278 228 282 231 z "},"":{"ha":871,"x_min":0,"x_max":0,"o":"m 832 635 b 706 693 799 674 757 693 b 503 601 629 693 553 653 b 364 667 469 646 422 667 b 67 389 214 667 67 536 b 104 267 67 338 79 296 b 225 169 125 242 213 194 b 201 153 217 164 213 158 b 111 193 160 179 129 192 b 22 15 111 182 39 58 b 225 -43 88 -24 153 -43 b 414 35 300 -43 364 -18 l 407 10 b 579 -31 460 -18 517 -31 b 836 210 744 -31 836 65 b 775 324 836 263 824 300 b 617 418 674 354 617 368 b 663 464 617 444 632 460 b 733 458 681 464 707 458 b 753 460 744 458 751 458 b 832 631 776 528 801 585 z m 447 558 b 389 579 421 572 401 579 l 386 579 b 379 572 385 579 383 578 b 432 528 413 549 431 535 l 414 503 b 351 535 385 524 363 535 b 401 483 385 511 401 493 b 396 471 401 479 397 479 l 392 469 b 338 483 388 479 368 483 b 238 385 271 483 238 450 b 289 313 238 346 253 328 b 440 197 396 281 440 263 b 213 0 440 101 319 0 b 67 36 204 0 156 13 b 72 49 68 43 72 47 b 174 21 115 35 149 22 l 175 25 b 89 72 131 39 103 56 l 103 99 b 186 69 117 83 144 78 l 188 76 b 121 129 151 99 129 115 b 129 146 122 136 125 140 b 199 118 153 128 178 118 b 265 175 225 118 265 157 b 146 269 265 192 167 244 b 104 389 118 303 104 338 b 351 636 104 518 221 636 b 465 596 393 636 432 624 b 447 558 457 582 454 569 z m 778 592 b 718 606 751 601 731 606 b 708 597 717 606 713 604 b 765 560 744 578 764 564 l 751 533 b 685 558 719 551 699 558 b 739 511 719 538 738 522 b 733 500 739 510 738 506 l 731 496 b 696 507 726 504 715 507 b 583 414 621 507 583 476 b 646 332 583 364 606 340 b 806 218 757 299 806 297 b 597 11 806 124 699 24 b 449 35 581 11 538 18 l 456 47 b 560 28 499 36 529 28 l 560 35 b 468 72 514 44 482 57 l 479 99 b 567 79 496 88 524 83 l 567 85 b 493 133 528 103 504 118 l 501 149 b 564 128 522 135 543 128 b 635 190 582 128 635 157 b 504 274 635 213 535 239 b 453 411 469 307 453 353 b 693 660 453 536 561 660 b 790 629 729 660 761 650 b 778 592 786 613 785 599 z m 408 425 b 415 385 411 419 413 404 b 594 182 432 238 535 242 l 572 163 b 479 193 528 186 499 193 l 468 168 b 471 206 469 181 471 193 b 418 294 471 244 454 274 b 269 396 328 331 269 351 b 319 443 269 426 286 443 b 408 425 340 443 383 433 z m 740 207 b 681 281 738 235 717 260 l 678 275 b 718 204 706 249 718 225 b 699 122 718 194 711 168 b 740 199 726 144 740 169 z m 372 181 b 319 258 372 210 354 236 l 318 254 b 351 182 340 228 351 203 b 324 99 351 178 342 150 b 372 181 356 121 372 147 z m 321 197 b 286 238 321 225 310 238 l 275 238 b 300 181 293 219 300 201 b 265 107 300 156 289 131 b 321 197 301 115 321 158 z m 208 483 b 174 401 185 472 174 446 b 190 342 174 378 179 358 b 213 479 194 418 203 464 z m 686 218 b 653 256 685 243 674 256 l 638 254 b 669 193 658 239 669 218 b 642 124 669 171 660 147 b 688 206 672 135 688 169 b 686 218 688 207 686 214 z m 169 490 b 129 396 142 482 129 450 b 140 339 129 375 133 356 l 146 339 b 142 378 144 353 142 365 b 174 483 142 418 153 454 z m 547 492 b 521 426 529 482 521 460 b 542 351 521 397 528 372 b 540 364 540 354 540 358 l 540 401 b 551 490 540 447 544 476 z m 510 494 b 478 422 489 483 478 458 b 493 342 478 392 481 365 l 499 343 b 490 404 492 363 490 385 b 514 490 490 438 499 467 z "},"":{"ha":688,"x_min":0,"x_max":0,"o":"m 688 28 b 661 244 681 49 674 201 b 646 243 658 243 653 243 l 586 243 b 461 492 532 375 489 458 b 507 629 481 550 494 597 l 478 624 b 317 717 424 676 369 708 b 318 704 318 715 318 711 b 213 629 318 661 258 629 b 238 536 213 608 238 550 b 136 239 238 515 160 253 b 36 215 101 218 42 215 b 60 19 36 126 44 61 b 96 -43 60 15 96 -25 b 129 -36 107 -37 118 -36 b 236 -72 153 -36 214 -65 b 285 44 260 -21 274 18 b 464 64 329 44 389 50 b 510 -43 493 18 510 -19 b 649 22 511 -43 603 22 b 672 19 653 22 661 21 z m 458 585 b 218 -33 313 214 236 15 l 201 -22 l 213 79 l 161 -1 b 171 93 168 38 171 69 l 171 104 l 122 10 l 94 15 b 347 669 238 396 267 488 l 364 661 b 329 583 346 628 338 603 l 378 654 l 411 638 b 381 572 397 615 386 593 b 446 621 400 593 422 610 b 458 585 454 610 458 597 z m 625 47 b 582 88 610 56 596 69 l 582 72 b 589 47 582 65 583 57 l 526 82 l 558 22 b 393 319 501 25 393 257 b 456 458 393 350 414 397 l 636 61 z m 450 90 b 297 75 396 79 343 75 b 346 196 306 106 322 147 l 354 196 b 403 185 368 196 403 192 b 375 161 403 174 393 167 b 432 139 399 156 418 147 b 364 125 400 133 378 129 b 450 110 401 117 432 111 z m 636 114 l 603 215 l 639 215 z m 85 94 l 85 100 b 78 182 85 111 82 139 l 118 186 z m 267 557 l 247 604 l 299 624 z m 350 226 l 372 278 l 396 215 z m 538 158 b 524 174 538 163 533 169 b 511 158 515 174 511 169 b 524 142 511 150 515 146 b 538 158 533 142 538 147 z m 225 147 b 213 161 225 153 219 158 b 201 147 204 161 201 157 b 213 131 201 139 204 135 b 225 147 219 131 225 136 z m 364 522 b 353 535 364 526 361 532 b 343 522 346 535 343 529 b 353 510 343 517 346 513 b 364 522 361 510 364 514 z m 296 1122 b 138 889 192 1106 138 985 l 228 833 b 288 878 253 846 274 864 l 464 781 l 574 765 l 536 857 l 358 976 b 388 1054 369 1003 381 1024 z m 225 1051 b 282 1083 242 1064 257 1083 l 289 1083 b 300 1079 289 1083 293 1082 l 308 1060 b 185 903 288 985 225 903 b 165 907 176 903 171 904 b 225 1051 165 963 194 1019 z m 536 793 l 467 803 l 306 901 b 347 953 325 917 340 935 l 376 933 l 363 910 l 399 919 l 510 850 z m 206 883 b 324 1063 268 922 300 992 l 353 1039 b 229 868 333 974 293 904 z "},"":{"ha":688,"x_min":0,"x_max":0,"o":"m 688 28 b 661 244 681 49 674 201 b 646 243 658 243 653 243 l 586 243 b 461 492 532 375 489 458 b 507 629 481 550 494 597 l 478 624 b 317 717 424 676 369 708 b 318 704 318 715 318 711 b 213 629 318 661 258 629 b 238 536 213 608 238 550 b 136 239 238 515 160 253 b 36 215 101 218 42 215 b 60 19 36 126 44 61 b 96 -43 60 15 96 -25 b 129 -36 107 -37 118 -36 b 236 -72 153 -36 214 -65 b 285 44 260 -21 274 18 b 464 64 329 44 389 50 b 510 -43 493 18 510 -19 b 649 22 511 -43 603 22 b 672 19 653 22 661 21 z m 458 585 b 218 -33 313 214 236 15 l 201 -22 l 213 79 l 161 -1 b 171 93 168 38 171 69 l 171 104 l 122 10 l 94 15 b 347 669 238 396 267 488 l 364 661 b 329 583 346 628 338 603 l 378 654 l 411 638 b 381 572 397 615 386 593 b 446 621 400 593 422 610 b 458 585 454 610 458 597 z m 625 47 b 582 88 610 56 596 69 l 582 72 b 589 47 582 65 583 57 l 526 82 l 558 22 b 393 319 501 25 393 257 b 456 458 393 350 414 397 l 636 61 z m 450 90 b 297 75 396 79 343 75 b 346 196 306 106 322 147 l 354 196 b 403 185 368 196 403 192 b 375 161 403 174 393 167 b 432 139 399 156 418 147 b 364 125 400 133 378 129 b 450 110 401 117 432 111 z m 636 114 l 603 215 l 639 215 z m 85 94 l 85 100 b 78 182 85 111 82 139 l 118 186 z m 267 557 l 247 604 l 299 624 z m 350 226 l 372 278 l 396 215 z m 538 158 b 524 174 538 163 533 169 b 511 158 515 174 511 169 b 524 142 511 150 515 146 b 538 158 533 142 538 147 z m 225 147 b 213 161 225 153 219 158 b 201 147 204 161 201 157 b 213 131 201 139 204 135 b 225 147 219 131 225 136 z m 364 522 b 353 535 364 526 361 532 b 343 522 346 535 343 529 b 353 510 343 517 346 513 b 364 522 361 510 364 514 z m 544 1025 b 414 1119 511 1071 463 1107 l 332 1050 b 353 976 335 1019 346 994 l 206 840 l 156 736 l 254 743 l 421 878 l 451 849 b 486 824 460 838 472 832 l 576 889 b 579 917 578 900 579 908 b 544 1025 579 954 565 992 z m 535 983 b 547 931 542 964 547 949 b 536 901 547 918 544 908 l 517 897 b 408 1054 457 940 408 1018 b 421 1085 408 1065 414 1076 b 535 983 474 1067 517 1021 z m 197 764 l 226 828 l 371 953 b 404 894 378 932 392 914 l 372 878 l 360 894 l 357 857 l 257 774 z m 385 1054 b 513 882 397 981 461 926 l 481 863 b 364 1039 426 900 375 963 z "},"":{"ha":688,"x_min":0,"x_max":0,"o":"m 688 28 b 661 244 681 49 674 201 b 646 243 658 243 653 243 l 586 243 b 461 492 532 375 489 458 b 507 629 481 550 494 597 l 478 624 b 317 717 424 676 369 708 b 318 704 318 715 318 711 b 213 629 318 661 258 629 b 238 536 213 608 238 550 b 136 239 238 515 160 253 b 36 215 101 218 42 215 b 60 19 36 126 44 61 b 96 -43 60 15 96 -25 b 129 -36 107 -37 118 -36 b 236 -72 153 -36 214 -65 b 285 44 260 -21 274 18 b 464 64 329 44 389 50 b 510 -43 493 18 510 -19 b 649 22 511 -43 603 22 b 672 19 653 22 661 21 z m 458 585 b 218 -33 313 214 236 15 l 201 -22 l 213 79 l 161 -1 b 171 93 168 38 171 69 l 171 104 l 122 10 l 94 15 b 347 669 238 396 267 488 l 364 661 b 329 583 346 628 338 603 l 378 654 l 411 638 b 381 572 397 615 386 593 b 446 621 400 593 422 610 b 458 585 454 610 458 597 z m 625 47 b 582 88 610 56 596 69 l 582 72 b 589 47 582 65 583 57 l 526 82 l 558 22 b 393 319 501 25 393 257 b 456 458 393 350 414 397 l 636 61 z m 450 90 b 297 75 396 79 343 75 b 346 196 306 106 322 147 l 354 196 b 403 185 368 196 403 192 b 375 161 403 174 393 167 b 432 139 399 156 418 147 b 364 125 400 133 378 129 b 450 110 401 117 432 111 z m 636 114 l 603 215 l 639 215 z m 85 94 l 85 100 b 78 182 85 111 82 139 l 118 186 z m 267 557 l 247 604 l 299 624 z m 350 226 l 372 278 l 396 215 z m 538 158 b 524 174 538 163 533 169 b 511 158 515 174 511 169 b 524 142 511 150 515 146 b 538 158 533 142 538 147 z m 225 147 b 213 161 225 153 219 158 b 201 147 204 161 201 157 b 213 131 201 139 204 135 b 225 147 219 131 225 136 z m 364 522 b 353 535 364 526 361 532 b 343 522 346 535 343 529 b 353 510 343 517 346 513 b 364 522 361 510 364 514 z m 575 782 b 668 917 618 815 654 867 l 599 1000 b 528 978 569 994 547 986 l 394 1128 b 353 1139 381 1136 367 1139 b 306 1128 335 1139 319 1136 l 126 917 l 126 793 l 246 857 l 356 993 l 367 992 l 431 908 b 378 842 413 885 392 872 l 443 750 b 469 747 454 749 461 747 b 575 782 507 747 542 763 z m 379 1015 l 379 1060 l 367 1021 l 354 1024 l 222 881 l 146 824 l 151 908 l 318 1100 b 356 1108 331 1106 343 1108 b 392 1100 368 1108 378 1106 l 431 1056 l 504 960 b 449 925 483 953 467 943 l 431 958 l 449 971 l 411 975 z m 535 793 b 482 778 515 786 500 778 b 454 789 471 778 461 782 l 450 814 b 604 921 496 872 561 921 b 633 908 615 921 626 917 b 535 793 615 856 571 811 z m 604 944 b 435 815 533 925 483 871 l 415 846 b 588 967 451 903 514 954 z "},"":{"ha":688,"x_min":0,"x_max":0,"o":"m 688 28 b 661 244 681 49 674 201 b 646 243 658 243 653 243 l 586 243 b 461 492 532 375 489 458 b 507 629 481 550 494 597 l 478 624 b 317 717 424 676 369 708 b 318 704 318 715 318 711 b 213 629 318 661 258 629 b 238 536 213 608 238 550 b 136 239 238 515 160 253 b 36 215 101 218 42 215 b 60 19 36 126 44 61 b 96 -43 60 15 96 -25 b 129 -36 107 -37 118 -36 b 236 -72 153 -36 214 -65 b 285 44 260 -21 274 18 b 464 64 329 44 389 50 b 510 -43 493 18 510 -19 b 649 22 511 -43 603 22 b 672 19 653 22 661 21 z m 458 585 b 218 -33 313 214 236 15 l 201 -22 l 213 79 l 161 -1 b 171 93 168 38 171 69 l 171 104 l 122 10 l 94 15 b 347 669 238 396 267 488 l 364 661 b 329 583 346 628 338 603 l 378 654 l 411 638 b 381 572 397 615 386 593 b 446 621 400 593 422 610 b 458 585 454 610 458 597 z m 625 47 b 582 88 610 56 596 69 l 582 72 b 589 47 582 65 583 57 l 526 82 l 558 22 b 393 319 501 25 393 257 b 456 458 393 350 414 397 l 636 61 z m 450 90 b 297 75 396 79 343 75 b 346 196 306 106 322 147 l 354 196 b 403 185 368 196 403 192 b 375 161 403 174 393 167 b 432 139 399 156 418 147 b 364 125 400 133 378 129 b 450 110 401 117 432 111 z m 636 114 l 603 215 l 639 215 z m 85 94 l 85 100 b 78 182 85 111 82 139 l 118 186 z m 267 557 l 247 604 l 299 624 z m 350 226 l 372 278 l 396 215 z m 538 158 b 524 174 538 163 533 169 b 511 158 515 174 511 169 b 524 142 511 150 515 146 b 538 158 533 142 538 147 z m 225 147 b 213 161 225 153 219 158 b 201 147 204 161 201 157 b 213 131 201 139 204 135 b 225 147 219 131 225 136 z m 364 522 b 353 535 364 526 361 532 b 343 522 346 535 343 529 b 353 510 343 517 346 513 b 364 522 361 510 364 514 z m 669 1031 l 582 1007 l 493 929 l 431 1026 b 388 1043 417 1038 401 1043 b 350 1035 381 1043 368 1039 l 247 963 b 175 1014 228 986 208 1014 l 94 975 b 89 933 90 967 89 953 b 203 739 89 853 133 772 l 303 785 b 304 806 303 792 304 799 b 292 863 304 819 299 839 l 374 913 l 443 818 b 479 807 451 810 463 807 b 539 819 499 807 521 814 l 658 925 z m 649 1000 l 636 933 l 526 840 b 488 833 513 836 500 833 b 443 849 469 833 457 836 l 394 931 l 386 988 l 364 935 l 292 885 l 282 929 l 264 953 l 354 1011 b 383 1019 363 1015 372 1019 b 419 1004 394 1019 407 1014 l 482 911 l 497 865 l 511 908 l 594 989 z m 122 879 b 114 928 121 894 114 913 b 126 963 114 939 118 956 l 151 963 b 239 803 197 917 239 844 b 221 764 239 786 232 774 b 122 879 172 790 135 843 z m 260 792 b 156 978 253 867 204 928 l 190 993 b 285 807 239 950 283 883 z "},"":{"ha":688,"x_min":0,"x_max":0,"o":"m 688 28 b 661 244 681 49 674 201 b 646 243 658 243 653 243 l 586 243 b 461 492 532 375 489 458 b 507 629 481 550 494 597 l 478 624 b 317 717 424 676 369 708 b 318 704 318 715 318 711 b 213 629 318 661 258 629 b 238 536 213 608 238 550 b 136 239 238 515 160 253 b 36 215 101 218 42 215 b 60 19 36 126 44 61 b 96 -43 60 15 96 -25 b 129 -36 107 -37 118 -36 b 236 -72 153 -36 214 -65 b 285 44 260 -21 274 18 b 464 64 329 44 389 50 b 510 -43 493 18 510 -19 b 649 22 511 -43 603 22 b 672 19 653 22 661 21 z m 458 585 b 218 -33 313 214 236 15 l 201 -22 l 213 79 l 161 -1 b 171 93 168 38 171 69 l 171 104 l 122 10 l 94 15 b 347 669 238 396 267 488 l 364 661 b 329 583 346 628 338 603 l 378 654 l 411 638 b 381 572 397 615 386 593 b 446 621 400 593 422 610 b 458 585 454 610 458 597 z m 625 47 b 582 88 610 56 596 69 l 582 72 b 589 47 582 65 583 57 l 526 82 l 558 22 b 393 319 501 25 393 257 b 456 458 393 350 414 397 l 636 61 z m 450 90 b 297 75 396 79 343 75 b 346 196 306 106 322 147 l 354 196 b 403 185 368 196 403 192 b 375 161 403 174 393 167 b 432 139 399 156 418 147 b 364 125 400 133 378 129 b 450 110 401 117 432 111 z m 636 114 l 603 215 l 639 215 z m 85 94 l 85 100 b 78 182 85 111 82 139 l 118 186 z m 267 557 l 247 604 l 299 624 z m 350 226 l 372 278 l 396 215 z m 538 158 b 524 174 538 163 533 169 b 511 158 515 174 511 169 b 524 142 511 150 515 146 b 538 158 533 142 538 147 z m 225 147 b 213 161 225 153 219 158 b 201 147 204 161 201 157 b 213 131 201 139 204 135 b 225 147 219 131 225 136 z m 364 522 b 353 535 364 526 361 532 b 343 522 346 535 343 529 b 353 510 343 517 346 513 b 364 522 361 510 364 514 z m 142 890 b 253 775 142 822 190 775 b 365 864 306 775 351 811 b 471 788 379 815 422 788 b 586 908 535 788 586 840 b 471 1028 586 976 533 1028 b 363 938 415 1028 375 990 b 253 1015 343 982 301 1015 b 142 890 190 1015 142 960 z m 388 907 b 471 993 388 956 425 993 b 557 910 517 993 557 958 b 471 824 557 861 517 824 b 388 907 425 824 388 857 z m 171 892 b 253 981 171 942 208 981 b 340 896 301 981 340 946 b 253 811 340 846 301 811 b 171 892 208 811 171 846 z "}}}
